<?xml version="1.0" encoding="UTF-8" standalone="no"?>
<!-- Created with Inkscape (http://www.inkscape.org/) -->

<svg
   version="1.1"
   id="svg2"
   width="377.74667"
   height="364.04001"
   viewBox="0 0 377.74667 364.04001"
   sodipodi:docname="UON_Alternative.eps"
   xmlns:inkscape="http://www.inkscape.org/namespaces/inkscape"
   xmlns:sodipodi="http://sodipodi.sourceforge.net/DTD/sodipodi-0.dtd"
   xmlns="http://www.w3.org/2000/svg"
   xmlns:svg="http://www.w3.org/2000/svg">
  <defs
     id="defs6" />
  <sodipodi:namedview
     id="namedview4"
     pagecolor="#ffffff"
     bordercolor="#000000"
     borderopacity="0.25"
     inkscape:showpageshadow="2"
     inkscape:pageopacity="0.0"
     inkscape:pagecheckerboard="0"
     inkscape:deskcolor="#d1d1d1" />
  <g
     id="g8"
     inkscape:groupmode="layer"
     inkscape:label="ink_ext_XXXXXX"
     transform="matrix(1.3333333,0,0,-1.3333333,0,364.04)">
    <g
       id="g10"
       transform="scale(0.1)">
      <path
         d="M 0,981.699 H 138.32 V 960.371 H 83.7148 V 816.148 H 54.2969 V 960.371 H 0 v 21.328"
         style="fill:#231f20;fill-opacity:1;fill-rule:nonzero;stroke:none"
         id="path12" />
      <path
         d="m 301.715,890.699 h -77.746 v -74.551 h -29.403 v 165.551 h 29.403 v -69.64 h 77.746 v 69.64 h 29.39 V 816.148 h -29.39 v 74.551"
         style="fill:#231f20;fill-opacity:1;fill-rule:nonzero;stroke:none"
         id="path14" />
      <path
         d="M 508.73,816.148 H 405.438 v 165.551 h 100.496 v -21.328 h -71.075 v -48.312 h 51.813 v -21.36 H 434.859 V 837.48 h 73.871 v -21.332"
         style="fill:#231f20;fill-opacity:1;fill-rule:nonzero;stroke:none"
         id="path16" />
      <path
         d="m 831.84,872.461 c 0,-22.402 -13.289,-59.852 -68.277,-59.852 -43.743,0 -68.231,21.34 -68.231,59.852 v 109.238 h 29.359 V 872.461 c 0,-25.223 14.02,-38.512 39.579,-38.512 27.324,0 39.578,18.223 39.578,38.512 V 981.699 H 831.84 V 872.461"
         style="fill:#231f20;fill-opacity:1;fill-rule:nonzero;stroke:none"
         id="path18" />
      <path
         d="M 1055.68,981.699 V 816.148 h -26.31 L 934.508,935.48 V 816.148 h -27.977 v 165.551 h 26.907 l 94.892,-119.711 v 119.711 h 27.35"
         style="fill:#231f20;fill-opacity:1;fill-rule:nonzero;stroke:none"
         id="path20" />
      <path
         d="m 1132.04,816.148 v 165.551 h 29.41 V 816.148 h -29.41"
         style="fill:#231f20;fill-opacity:1;fill-rule:nonzero;stroke:none"
         id="path22" />
      <path
         d="m 1289.85,814.711 h -14.36 l -56.37,166.988 h 29.75 l 37.11,-113.41 39.6,113.41 h 27.3 l -63.03,-166.988"
         style="fill:#231f20;fill-opacity:1;fill-rule:nonzero;stroke:none"
         id="path24" />
      <path
         d="m 1514.17,816.148 h -103.19 v 165.551 h 100.38 v -21.328 h -71.06 v -48.312 h 51.81 v -21.36 H 1440.3 V 837.48 h 73.87 v -21.332"
         style="fill:#231f20;fill-opacity:1;fill-rule:nonzero;stroke:none"
         id="path26" />
      <path
         d="m 1623.76,910.621 c 22.41,0.348 35.72,11.93 35.72,25.961 0,14.688 -12.23,24.137 -35.33,24.137 h -12.95 v -50.098 z m 52.18,-97.652 -45.83,76.301 h -18.62 v -73.122 h -29.76 v 165.551 h 50.78 c 40.98,0 56.74,-24.5 56.74,-41.988 0,-24.16 -17.89,-39.231 -31.84,-44.813 l 50.74,-78.75 -32.21,-3.179"
         style="fill:#231f20;fill-opacity:1;fill-rule:nonzero;stroke:none"
         id="path28" />
      <path
         d="m 1807.26,833.949 c 15.72,0 28.64,9.141 28.64,21.711 0,14.012 -16.77,22.059 -35.67,32.25 -16.49,8.738 -43.06,22.711 -43.06,52.481 0,23.808 21.32,44.828 52.51,44.828 22.03,0 36.78,-5.25 45.83,-9.809 l -8.05,-18.91 c -8.74,3.871 -19.58,7.359 -37.44,7.359 -16.48,0 -25.93,-10.5 -25.93,-19.621 0,-14.328 16.51,-23.437 34.34,-33.269 15.41,-8.379 46.56,-21.328 46.56,-51.418 0,-32.582 -37.82,-46.942 -57.73,-46.942 -28.08,0 -44.85,9.473 -54.3,14 l 9.08,19.301 c 7.71,-3.551 23.46,-11.961 45.22,-11.961"
         style="fill:#231f20;fill-opacity:1;fill-rule:nonzero;stroke:none"
         id="path30" />
      <path
         d="m 1930.73,816.148 v 165.551 h 29.46 V 816.148 h -29.46"
         style="fill:#231f20;fill-opacity:1;fill-rule:nonzero;stroke:none"
         id="path32" />
      <path
         d="m 2016.41,981.699 h 138.33 v -21.328 h -54.63 V 816.148 h -29.42 v 144.223 h -54.28 v 21.328"
         style="fill:#231f20;fill-opacity:1;fill-rule:nonzero;stroke:none"
         id="path34" />
      <path
         d="m 2339.31,981.699 -55.33,-85.41 v -80.141 h -29.42 v 80.141 l -56.74,85.41 h 31.2 l 41.99,-65.097 39.61,65.097 h 28.69"
         style="fill:#231f20;fill-opacity:1;fill-rule:nonzero;stroke:none"
         id="path36" />
      <path
         d="m 2530.07,899.082 c 0,-39.203 22.09,-65.133 54.98,-65.133 32.91,0 54.61,25.93 54.61,65.133 0,38.848 -21.7,64.777 -54.61,64.777 -32.89,0 -54.98,-25.929 -54.98,-64.777 z m 141.81,0 c 0,-53.562 -39.19,-86.473 -86.83,-86.473 -49.72,0 -87.19,32.539 -87.19,86.473 0,50.059 36.78,86.137 87.19,86.137 53.2,0 86.83,-34.68 86.83,-86.137"
         style="fill:#231f20;fill-opacity:1;fill-rule:nonzero;stroke:none"
         id="path38" />
      <path
         d="m 2732.31,816.148 v 165.551 h 94.9 v -21.328 h -65.48 v -48.312 h 46.21 v -21.36 h -46.21 v -74.551 h -29.42"
         style="fill:#231f20;fill-opacity:1;fill-rule:nonzero;stroke:none"
         id="path40" />
      <path
         d="M 319.105,664.68 V 320.582 H 264.52 L 67.3242,568.648 V 320.582 H 9.17578 V 664.68 H 65.1719 L 262.34,415.879 V 664.68 h 56.765"
         style="fill:#231f20;fill-opacity:1;fill-rule:nonzero;stroke:none"
         id="path42" />
      <path
         d="M 614.008,320.582 H 399.391 V 664.68 H 608.18 V 620.27 H 460.484 V 519.91 H 568.168 V 475.539 H 460.484 V 364.961 h 153.524 v -44.379"
         style="fill:#231f20;fill-opacity:1;fill-rule:nonzero;stroke:none"
         id="path44" />
      <path
         d="M 796.656,317.66 H 765.359 L 648.238,664.68 h 63.278 l 79.304,-242.25 50.922,142.59 -32.738,99.66 h 62.555 l 76.379,-235.719 82.232,235.719 h 56.72 L 956.656,317.66 H 925.41 L 865.035,498.07 796.656,317.66"
         style="fill:#231f20;fill-opacity:1;fill-rule:nonzero;stroke:none"
         id="path46" />
      <path
         d="m 1408.31,343.121 c -23.98,-15.242 -56.73,-29.82 -125.13,-29.82 -120.76,0 -184.73,90.918 -184.73,179.711 0,88.75 63.97,178.976 184.73,178.976 67.7,0 103.29,-20.386 117.83,-26.957 l -18.88,-41.461 c -11.63,5.121 -42.21,23.289 -96.76,23.289 -74.91,0 -120.02,-56.019 -120.02,-133.847 0,-78.563 47.28,-134.571 125.83,-134.571 54.56,0 82.24,15.258 98.24,22.5 l 18.89,-37.82"
         style="fill:#231f20;fill-opacity:1;fill-rule:nonzero;stroke:none"
         id="path48" />
      <path
         d="m 1586.9,553.379 -42.91,-102.578 h 82.91 z m -96.75,-232.797 h -59.67 l 152.09,345.59 h 23.24 l 135.31,-345.59 h -64.74 l -32.71,85.828 H 1525.8 l -35.65,-85.828"
         style="fill:#231f20;fill-opacity:1;fill-rule:nonzero;stroke:none"
         id="path50" />
      <path
         d="m 1889.56,357.672 c 32.73,0 59.65,18.93 59.65,45.098 0,29.109 -34.93,45.839 -74.19,66.921 -34.21,18.2 -89.5,47.297 -89.5,109.149 0,49.461 44.36,93.148 109.14,93.148 45.84,0 76.35,-10.937 95.29,-20.386 l -16.73,-39.293 c -18.21,7.961 -40.73,15.261 -77.84,15.261 -34.2,0 -53.87,-21.808 -53.87,-40.738 0,-29.844 34.22,-48.73 71.34,-69.113 32,-17.469 96.75,-44.367 96.75,-106.938 0,-67.66 -78.6,-97.48 -120.04,-97.48 -58.24,0 -93.12,19.648 -112.79,29.121 l 18.94,39.988 c 16,-7.269 48.77,-24.738 93.85,-24.738"
         style="fill:#231f20;fill-opacity:1;fill-rule:nonzero;stroke:none"
         id="path52" />
      <path
         d="m 2039.74,664.68 h 287.3 V 620.27 H 2213.58 V 320.582 h -61.09 V 620.27 h -112.75 v 44.41"
         style="fill:#231f20;fill-opacity:1;fill-rule:nonzero;stroke:none"
         id="path54" />
      <path
         d="m 2439.6,364.961 h 131.68 V 320.582 H 2378.51 V 664.68 h 61.09 V 364.961"
         style="fill:#231f20;fill-opacity:1;fill-rule:nonzero;stroke:none"
         id="path56" />
      <path
         d="M 2833.07,320.582 H 2618.42 V 664.68 h 208.79 V 620.27 H 2679.55 V 519.91 h 107.67 V 475.539 H 2679.55 V 364.961 h 153.52 v -44.379"
         style="fill:#231f20;fill-opacity:1;fill-rule:nonzero;stroke:none"
         id="path58" />
      <path
         d="M 747.703,115.559 727.016,66.1797 h 39.953 z M 701.137,3.51172 H 672.422 L 745.57,169.832 h 11.223 L 821.938,3.51172 H 790.762 L 774.996,44.8203 H 718.258 L 701.137,3.51172"
         style="fill:#231f20;fill-opacity:1;fill-rule:nonzero;stroke:none"
         id="path60" />
      <path
         d="M 1010.36,59.8984 C 1010.36,37.4883 997.078,0 942.09,0 898.313,0 873.789,21.3789 873.789,59.8984 V 169.121 h 29.449 V 59.8984 c 0,-25.1992 13.989,-38.5195 39.551,-38.5195 27.313,0 39.59,18.1914 39.59,38.5195 V 169.121 h 27.981 V 59.8984"
         style="fill:#231f20;fill-opacity:1;fill-rule:nonzero;stroke:none"
         id="path62" />
      <path
         d="m 1126.69,21.3789 c 15.75,0 28.74,9.1094 28.74,21.6914 0,14.0391 -16.82,22.0899 -35.71,32.2383 -16.49,8.7305 -43.09,22.7734 -43.09,52.5194 0,23.832 21.37,44.801 52.53,44.801 22.06,0 36.77,-5.231 45.85,-9.801 l -8.06,-18.887 c -8.74,3.821 -19.61,7.329 -37.47,7.329 -16.46,0 -25.87,-10.481 -25.87,-19.622 0,-14.328 16.4,-23.429 34.28,-33.2183 15.42,-8.3906 46.56,-21.3984 46.56,-51.4883 C 1184.45,14.3789 1146.67,0 1126.69,0 c -28,0 -44.82,9.44922 -54.29,14.0195 l 9.14,19.2618 c 7.72,-3.5 23.46,-11.9024 45.15,-11.9024"
         style="fill:#231f20;fill-opacity:1;fill-rule:nonzero;stroke:none"
         id="path64" />
      <path
         d="m 1229.04,169.121 h 138.28 v -21.359 h -54.6 V 3.51172 H 1283.3 V 147.762 h -54.26 v 21.359"
         style="fill:#231f20;fill-opacity:1;fill-rule:nonzero;stroke:none"
         id="path66" />
      <path
         d="m 1465.56,98.082 c 22.42,0.3477 35.74,11.859 35.74,25.887 0,14.711 -12.27,24.16 -35.34,24.16 h -12.98 V 98.082 Z m 52.2,-97.730437 -45.88,76.359337 h -18.55 V 3.51172 h -29.78 V 169.121 h 50.8 c 40.95,0 56.68,-24.512 56.68,-42.012 0,-24.14 -17.88,-39.1988 -31.83,-44.8082 l 50.75,-78.78908 -32.19,-3.160157"
         style="fill:#231f20;fill-opacity:1;fill-rule:nonzero;stroke:none"
         id="path68" />
      <path
         d="m 1661.63,115.559 -20.7,-49.3793 h 39.94 z M 1615.04,3.51172 h -28.7 l 73.17,166.32028 h 11.18 L 1735.83,3.51172 h -31.17 L 1688.9,44.8203 h -56.69 L 1615.04,3.51172"
         style="fill:#231f20;fill-opacity:1;fill-rule:nonzero;stroke:none"
         id="path70" />
      <path
         d="m 1819.83,24.8984 h 63.36 V 3.51172 h -92.81 V 169.121 h 29.45 V 24.8984"
         style="fill:#231f20;fill-opacity:1;fill-rule:nonzero;stroke:none"
         id="path72" />
      <path
         d="M 1937.32,3.51172 V 169.121 h 29.37 V 3.51172 h -29.37"
         style="fill:#231f20;fill-opacity:1;fill-rule:nonzero;stroke:none"
         id="path74" />
      <path
         d="m 2095.56,115.559 -20.67,-49.3793 h 39.96 z M 2048.99,3.51172 h -28.71 l 73.17,166.32028 h 11.21 L 2169.82,3.51172 h -31.2 l -15.75,41.30858 h -56.71 L 2048.99,3.51172"
         style="fill:#231f20;fill-opacity:1;fill-rule:nonzero;stroke:none"
         id="path76" />
      <path
         d="m 1307.61,2698.55 c 0.32,0 0.63,-0.28 0.63,-0.63 0,-0.34 -0.31,-0.51 -0.61,-0.64 C 1089.82,2621.13 1020.66,2356 1020.66,2356 c -0.06,-0.39 0.06,-0.78 0.39,-1 0.44,-0.32 1.02,-0.2 1.37,0.23 394.22,516.29 761.38,349.24 761.38,349.24 0.68,-0.18 1.07,-0.81 0.88,-1.49 -0.13,-0.57 -0.65,-0.97 -1.2,-0.92 -7.02,0.66 -115.58,9.38 -151.81,-90.86 l 547.29,-611.05 c 0,-17.8 -6.84,-33.58 -17.83,-47.44 -5.66,8.32 -29.19,19.33 -44.79,24.35 -21.45,6.92 -41.33,10.35 -41.33,26.31 0,11.57 10.11,14.67 15.41,14.67 4.67,0 7.3,-2.2 7.3,-2.2 0.08,-0.11 0.24,-0.14 0.33,-0.03 0.12,0.1 0.14,0.24 0.08,0.33 0,0 -3.69,8.13 -14.6,8.3 -10.63,0.26 -27.56,-7.34 -28.6,-27.49 -0.72,-16.64 7.17,-25.66 19.27,-34.04 11.94,-8.27 35.4,-18.84 35.4,-36.27 0,-17.39 -13.36,-21.57 -16.34,-22.95 -5.81,-2.81 -55.38,-25.15 -103.93,-34.24 -2.42,8.47 -2.56,36.73 -52.45,86.6 -96.5,96.5 -440.76,15.78 -440.76,253.15 0,109.5 104.01,153.2 163.54,149.93 50.46,-2.77 71.68,-18.27 75.45,-20.7 0.3,-0.21 0.72,-0.19 1.04,0.04 0.54,0.31 0.71,0.96 0.38,1.47 0,0 -37.8,83.14 -145.17,83.14 -118.8,0 -285.68,-86.95 -285.68,-276.7 0,-393.9 551.88,-369.16 551.88,-702.06 0,-129.87 -76.3,-196.22 -172.32,-230.35 0,0 45.93,32.48 45.93,94.32 0,281.62 -652.39,221.1 -652.39,530.41 0,120.42 102.73,164.01 129.06,164.01 0.6,0 1.09,0.49 1.09,1.08 0,0.38 -0.21,0.74 -0.53,0.91 -3.19,1.96 -19.86,10.7 -51.12,10.7 -81.69,0 -237.421,-73.55 -237.421,-260.76 0,-222.96 290.041,-363.19 290.041,-470.87 0,-46.9 -29.44,-78.64 -29.44,-78.64 -238.292,76.02 -542.784,314.97 -542.784,741.03 0,515.32 481.214,752.39 669.934,752.39"
         style="fill:#231f20;fill-opacity:1;fill-rule:nonzero;stroke:none"
         id="path78" />
    </g>
  </g>
</svg>
