<svg xmlns="http://www.w3.org/2000/svg" xmlns:xlink="http://www.w3.org/1999/xlink" xmlns:inkscape="http://www.inkscape.org/namespaces/inkscape" version="1.1" width="600" height="400" viewBox="0 0 600 400">
<defs>
<clipPath id="clip_0">
<path transform="matrix(1,0,0,-1,0,400)" d="M0 0H600V600H0Z"/>
</clipPath>
<clipPath id="clip_1">
<path transform="matrix(1,0,0,-1,0,400)" d="M0 0H600V600H0Z"/>
</clipPath>
<clipPath id="clip_2">
<path transform="matrix(1,0,0,-1,0,400)" d="M63.19 44.21H469.83V388.19H63.19Z"/>
</clipPath>
<clipPath id="clip_3">
<path transform="matrix(1,0,0,-1,0,400)" d="M63.19 44.21H469.83V388.19H63.19Z"/>
</clipPath>
<clipPath id="clip_4">
<path transform="matrix(1,0,0,-1,0,400)" d="M63.19 44.21H469.83V388.19H63.19Z"/>
</clipPath>
<clipPath id="clip_5">
<path transform="matrix(1,0,0,-1,0,400)" d="M63.19 44.21H469.83V388.19H63.19Z"/>
</clipPath>
<clipPath id="clip_6">
<path transform="matrix(1,0,0,-1,0,400)" d="M63.19 44.21H469.83V388.19H63.19Z"/>
</clipPath>
<clipPath id="clip_7">
<path transform="matrix(1,0,0,-1,0,400)" d="M63.19 44.21H469.83V388.19H63.19Z"/>
</clipPath>
<clipPath id="clip_8">
<path transform="matrix(1,0,0,-1,0,400)" d="M63.19 44.21H469.83V388.19H63.19Z"/>
</clipPath>
<clipPath id="clip_9">
<path transform="matrix(1,0,0,-1,0,400)" d="M63.19 44.21H469.83V388.19H63.19Z"/>
</clipPath>
<clipPath id="clip_10">
<path transform="matrix(1,0,0,-1,0,400)" d="M63.19 44.21H469.83V388.19H63.19Z"/>
</clipPath>
<clipPath id="clip_11">
<path transform="matrix(1,0,0,-1,0,400)" d="M63.19 44.21H469.83V388.19H63.19Z"/>
</clipPath>
<clipPath id="clip_12">
<path transform="matrix(1,0,0,-1,0,400)" d="M63.19 44.21H469.83V388.19H63.19Z"/>
</clipPath>
<clipPath id="clip_13">
<path transform="matrix(1,0,0,-1,0,400)" d="M63.19 44.21H469.83V388.19H63.19Z"/>
</clipPath>
<clipPath id="clip_14">
<path transform="matrix(1,0,0,-1,0,400)" d="M63.19 44.21H469.83V388.19H63.19Z"/>
</clipPath>
<clipPath id="clip_15">
<path transform="matrix(1,0,0,-1,0,400)" d="M63.19 44.21H469.83V388.19H63.19Z"/>
</clipPath>
<clipPath id="clip_16">
<path transform="matrix(1,0,0,-1,0,400)" d="M63.19 44.21H469.83V388.19H63.19Z"/>
</clipPath>
<clipPath id="clip_17">
<path transform="matrix(1,0,0,-1,0,400)" d="M63.19 44.21H469.83V388.19H63.19Z"/>
</clipPath>
<clipPath id="clip_18">
<path transform="matrix(1,0,0,-1,0,400)" d="M63.19 44.21H469.83V388.19H63.19Z"/>
</clipPath>
<clipPath id="clip_19">
<path transform="matrix(1,0,0,-1,0,400)" d="M63.19 44.21H469.83V388.19H63.19Z"/>
</clipPath>
<clipPath id="clip_20">
<path transform="matrix(1,0,0,-1,0,400)" d="M0 0H600V600H0Z"/>
</clipPath>
<clipPath id="clip_21">
<path transform="matrix(1,0,0,-1,0,400)" d="M0 0H600V600H0Z"/>
</clipPath>
<clipPath id="clip_22">
<path transform="matrix(1,0,0,-1,0,400)" d="M0 0H600V600H0Z"/>
</clipPath>
<clipPath id="clip_23">
<path transform="matrix(1,0,0,-1,0,400)" d="M0 0H600V600H0Z"/>
</clipPath>
<clipPath id="clip_24">
<path transform="matrix(1,0,0,-1,0,400)" d="M0 0H600V600H0Z"/>
</clipPath>
<clipPath id="clip_25">
<path transform="matrix(1,0,0,-1,0,400)" d="M0 0H600V600H0Z"/>
</clipPath>
<clipPath id="clip_26">
<path transform="matrix(1,0,0,-1,0,400)" d="M0 0H600V600H0Z"/>
</clipPath>
<clipPath id="clip_27">
<path transform="matrix(1,0,0,-1,0,400)" d="M0 0H600V600H0Z"/>
</clipPath>
<clipPath id="clip_28">
<path transform="matrix(1,0,0,-1,0,400)" d="M0 0H600V600H0Z"/>
</clipPath>
<clipPath id="clip_29">
<path transform="matrix(1,0,0,-1,0,400)" d="M0 0H600V600H0Z"/>
</clipPath>
<clipPath id="clip_30">
<path transform="matrix(1,0,0,-1,0,400)" d="M0 0H600V600H0Z"/>
</clipPath>
<clipPath id="clip_31">
<path transform="matrix(1,0,0,-1,0,400)" d="M0 0H600V600H0Z"/>
</clipPath>
<clipPath id="clip_32">
<path transform="matrix(1,0,0,-1,0,400)" d="M0 0H600V600H0Z"/>
</clipPath>
<clipPath id="clip_33">
<path transform="matrix(1,0,0,-1,0,400)" d="M0 0H600V600H0Z"/>
</clipPath>
<clipPath id="clip_34">
<path transform="matrix(1,0,0,-1,0,400)" d="M0 0H600V600H0Z"/>
</clipPath>
<clipPath id="clip_35">
<path transform="matrix(1,0,0,-1,0,400)" d="M0 0H600V600H0Z"/>
</clipPath>
<clipPath id="clip_36">
<path transform="matrix(1,0,0,-1,0,400)" d="M0 0H600V600H0Z"/>
</clipPath>
<clipPath id="clip_37">
<path transform="matrix(1,0,0,-1,0,400)" d="M0 0H600V600H0Z"/>
</clipPath>
<clipPath id="clip_38">
<path transform="matrix(1,0,0,-1,0,400)" d="M0 0H600V600H0Z"/>
</clipPath>
<clipPath id="clip_39">
<path transform="matrix(1,0,0,-1,0,400)" d="M0 0H600V600H0Z"/>
</clipPath>
<clipPath id="clip_40">
<path transform="matrix(1,0,0,-1,0,400)" d="M0 0H600V600H0Z"/>
</clipPath>
<clipPath id="clip_41">
<path transform="matrix(1,0,0,-1,0,400)" d="M0 0H600V600H0Z"/>
</clipPath>
<clipPath id="clip_42">
<path transform="matrix(1,0,0,-1,0,400)" d="M0 0H600V600H0Z"/>
</clipPath>
<clipPath id="clip_43">
<path transform="matrix(1,0,0,-1,0,400)" d="M0 0H600V600H0Z"/>
</clipPath>
<clipPath id="clip_44">
<path transform="matrix(1,0,0,-1,0,400)" d="M0 0H600V600H0Z"/>
</clipPath>
<clipPath id="clip_45">
<path transform="matrix(1,0,0,-1,0,400)" d="M0 0H600V600H0Z"/>
</clipPath>
<clipPath id="clip_46">
<path transform="matrix(1,0,0,-1,0,400)" d="M0 0H600V600H0Z"/>
</clipPath>
<clipPath id="clip_47">
<path transform="matrix(1,0,0,-1,0,400)" d="M0 0H600V600H0Z"/>
</clipPath>
<clipPath id="clip_48">
<path transform="matrix(1,0,0,-1,0,400)" d="M0 0H600V600H0Z"/>
</clipPath>
<clipPath id="clip_49">
<path transform="matrix(1,0,0,-1,0,400)" d="M0 0H600V600H0Z"/>
</clipPath>
<clipPath id="clip_50">
<path transform="matrix(1,0,0,-1,0,400)" d="M0 0H600V600H0Z"/>
</clipPath>
<clipPath id="clip_51">
<path transform="matrix(1,0,0,-1,0,400)" d="M0 0H600V600H0Z"/>
</clipPath>
<clipPath id="clip_52">
<path transform="matrix(1,0,0,-1,0,400)" d="M0 0H600V600H0Z"/>
</clipPath>
<clipPath id="clip_53">
<path transform="matrix(1,0,0,-1,0,400)" d="M0 0H600V600H0Z"/>
</clipPath>
<clipPath id="clip_54">
<path transform="matrix(1,0,0,-1,0,400)" d="M0 0H600V600H0Z"/>
</clipPath>
<clipPath id="clip_55">
<path transform="matrix(1,0,0,-1,0,400)" d="M0 0H600V600H0Z"/>
</clipPath>
<clipPath id="clip_56">
<path transform="matrix(1,0,0,-1,0,400)" d="M0 0H600V600H0Z"/>
</clipPath>
<clipPath id="clip_57">
<path transform="matrix(1,0,0,-1,0,400)" d="M0 0H600V600H0Z"/>
</clipPath>
<clipPath id="clip_58">
<path transform="matrix(1,0,0,-1,0,400)" d="M0 0H600V600H0Z"/>
</clipPath>
<clipPath id="clip_59">
<path transform="matrix(1,0,0,-1,0,400)" d="M0 0H600V600H0Z"/>
</clipPath>
<clipPath id="clip_60">
<path transform="matrix(1,0,0,-1,0,400)" d="M0 0H600V600H0Z"/>
</clipPath>
<clipPath id="clip_61">
<path transform="matrix(1,0,0,-1,0,400)" d="M0 0H600V600H0Z"/>
</clipPath>
<clipPath id="clip_62">
<path transform="matrix(1,0,0,-1,0,400)" d="M0 0H600V600H0Z"/>
</clipPath>
<clipPath id="clip_63">
<path transform="matrix(1,0,0,-1,0,400)" d="M0 0H600V600H0Z"/>
</clipPath>
<clipPath id="clip_64">
<path transform="matrix(1,0,0,-1,0,400)" d="M0 0H600V600H0Z"/>
</clipPath>
<clipPath id="clip_65">
<path transform="matrix(1,0,0,-1,0,400)" d="M0 0H600V600H0Z"/>
</clipPath>
<clipPath id="clip_66">
<path transform="matrix(1,0,0,-1,0,400)" d="M0 0H600V600H0Z"/>
</clipPath>
<clipPath id="clip_67">
<path transform="matrix(1,0,0,-1,0,400)" d="M0 0H600V600H0Z"/>
</clipPath>
<clipPath id="clip_68">
<path transform="matrix(1,0,0,-1,0,400)" d="M0 0H600V600H0Z"/>
</clipPath>
<clipPath id="clip_69">
<path transform="matrix(1,0,0,-1,0,400)" d="M0 0H600V600H0Z"/>
</clipPath>
<clipPath id="clip_70">
<path transform="matrix(1,0,0,-1,0,400)" d="M0 0H600V600H0Z"/>
</clipPath>
<clipPath id="clip_71">
<path transform="matrix(1,0,0,-1,0,400)" d="M0 0H600V600H0Z"/>
</clipPath>
<clipPath id="clip_72">
<path transform="matrix(1,0,0,-1,0,400)" d="M0 0H600V600H0Z"/>
</clipPath>
<clipPath id="clip_73">
<path transform="matrix(1,0,0,-1,0,400)" d="M0 0H600V600H0Z"/>
</clipPath>
<clipPath id="clip_74">
<path transform="matrix(1,0,0,-1,0,400)" d="M0 0H600V600H0Z"/>
</clipPath>
<clipPath id="clip_75">
<path transform="matrix(1,0,0,-1,0,400)" d="M0 0H600V600H0Z"/>
</clipPath>
<clipPath id="clip_76">
<path transform="matrix(1,0,0,-1,0,400)" d="M0 0H600V600H0Z"/>
</clipPath>
<clipPath id="clip_77">
<path transform="matrix(1,0,0,-1,0,400)" d="M0 0H600V600H0Z"/>
</clipPath>
<clipPath id="clip_78">
<path transform="matrix(1,0,0,-1,0,400)" d="M0 0H600V600H0Z"/>
</clipPath>
<clipPath id="clip_79">
<path transform="matrix(1,0,0,-1,0,400)" d="M0 0H600V600H0Z"/>
</clipPath>
<clipPath id="clip_80">
<path transform="matrix(1,0,0,-1,0,400)" d="M0 0H600V600H0Z"/>
</clipPath>
<clipPath id="clip_81">
<path transform="matrix(1,0,0,-1,0,400)" d="M0 0H600V600H0Z"/>
</clipPath>
<clipPath id="clip_82">
<path transform="matrix(1,0,0,-1,0,400)" d="M0 0H600V600H0Z"/>
</clipPath>
<clipPath id="clip_83">
<path transform="matrix(1,0,0,-1,0,400)" d="M0 0H600V600H0Z"/>
</clipPath>
<clipPath id="clip_84">
<path transform="matrix(1,0,0,-1,0,400)" d="M0 0H600V600H0Z"/>
</clipPath>
<clipPath id="clip_85">
<path transform="matrix(1,0,0,-1,0,400)" d="M0 0H600V600H0Z"/>
</clipPath>
<clipPath id="clip_86">
<path transform="matrix(1,0,0,-1,0,400)" d="M0 0H600V600H0Z"/>
</clipPath>
<clipPath id="clip_87">
<path transform="matrix(1,0,0,-1,0,400)" d="M0 0H600V600H0Z"/>
</clipPath>
<clipPath id="clip_88">
<path transform="matrix(1,0,0,-1,0,400)" d="M0 0H600V600H0Z"/>
</clipPath>
<clipPath id="clip_89">
<path transform="matrix(1,0,0,-1,0,400)" d="M63.19 44.21H469.83V388.19H63.19Z"/>
</clipPath>
<clipPath id="clip_90">
<path transform="matrix(1,0,0,-1,0,400)" d="M63.19 44.21H469.83V388.19H63.19Z"/>
</clipPath>
<clipPath id="clip_91">
<path transform="matrix(1,0,0,-1,0,400)" d="M63.19 44.21H469.83V388.19H63.19Z"/>
</clipPath>
<clipPath id="clip_92">
<path transform="matrix(1,0,0,-1,0,400)" d="M63.19 44.21H469.83V388.19H63.19Z"/>
</clipPath>
<clipPath id="clip_93">
<path transform="matrix(1,0,0,-1,0,400)" d="M63.19 44.21H469.83V388.19H63.19Z"/>
</clipPath>
<clipPath id="clip_94">
<path transform="matrix(1,0,0,-1,0,400)" d="M63.19 44.21H469.83V388.19H63.19Z"/>
</clipPath>
<clipPath id="clip_95">
<path transform="matrix(1,0,0,-1,0,400)" d="M63.19 44.21H469.83V388.19H63.19Z"/>
</clipPath>
<clipPath id="clip_96">
<path transform="matrix(1,0,0,-1,0,400)" d="M63.19 44.21H469.83V388.19H63.19Z"/>
</clipPath>
<clipPath id="clip_97">
<path transform="matrix(1,0,0,-1,0,400)" d="M63.19 44.21H469.83V388.19H63.19Z"/>
</clipPath>
<clipPath id="clip_98">
<path transform="matrix(1,0,0,-1,0,400)" d="M63.19 44.21H469.83V388.19H63.19Z"/>
</clipPath>
<clipPath id="clip_99">
<path transform="matrix(1,0,0,-1,0,400)" d="M63.19 44.21H469.83V388.19H63.19Z"/>
</clipPath>
<clipPath id="clip_100">
<path transform="matrix(1,0,0,-1,0,400)" d="M63.19 44.21H469.83V388.19H63.19Z"/>
</clipPath>
<clipPath id="clip_101">
<path transform="matrix(1,0,0,-1,0,400)" d="M63.19 44.21H469.83V388.19H63.19Z"/>
</clipPath>
<clipPath id="clip_102">
<path transform="matrix(1,0,0,-1,0,400)" d="M63.19 44.21H469.83V388.19H63.19Z"/>
</clipPath>
<clipPath id="clip_103">
<path transform="matrix(1,0,0,-1,0,400)" d="M63.19 44.21H469.83V388.19H63.19Z"/>
</clipPath>
<clipPath id="clip_104">
<path transform="matrix(1,0,0,-1,0,400)" d="M63.19 44.21H469.83V388.19H63.19Z"/>
</clipPath>
<clipPath id="clip_105">
<path transform="matrix(1,0,0,-1,0,400)" d="M63.19 44.21H469.83V388.19H63.19Z"/>
</clipPath>
<clipPath id="clip_106">
<path transform="matrix(1,0,0,-1,0,400)" d="M63.19 44.21H469.83V388.19H63.19Z"/>
</clipPath>
<clipPath id="clip_107">
<path transform="matrix(1,0,0,-1,0,400)" d="M63.19 44.21H469.83V388.19H63.19Z"/>
</clipPath>
<clipPath id="clip_108">
<path transform="matrix(1,0,0,-1,0,400)" d="M63.19 44.21H469.83V388.19H63.19Z"/>
</clipPath>
<clipPath id="clip_109">
<path transform="matrix(1,0,0,-1,0,400)" d="M63.19 44.21H469.83V388.19H63.19Z"/>
</clipPath>
<clipPath id="clip_110">
<path transform="matrix(1,0,0,-1,0,400)" d="M63.19 44.21H469.83V388.19H63.19Z"/>
</clipPath>
<clipPath id="clip_111">
<path transform="matrix(1,0,0,-1,0,400)" d="M63.19 44.21H469.83V388.19H63.19Z"/>
</clipPath>
<clipPath id="clip_112">
<path transform="matrix(1,0,0,-1,0,400)" d="M63.19 44.21H469.83V388.19H63.19Z"/>
</clipPath>
<clipPath id="clip_113">
<path transform="matrix(1,0,0,-1,0,400)" d="M63.19 44.21H469.83V388.19H63.19Z"/>
</clipPath>
<clipPath id="clip_114">
<path transform="matrix(1,0,0,-1,0,400)" d="M63.19 44.21H469.83V388.19H63.19Z"/>
</clipPath>
<clipPath id="clip_115">
<path transform="matrix(1,0,0,-1,0,400)" d="M63.19 44.21H469.83V388.19H63.19Z"/>
</clipPath>
<clipPath id="clip_116">
<path transform="matrix(1,0,0,-1,0,400)" d="M63.19 44.21H469.83V388.19H63.19Z"/>
</clipPath>
<clipPath id="clip_117">
<path transform="matrix(1,0,0,-1,0,400)" d="M63.19 44.21H469.83V388.19H63.19Z"/>
</clipPath>
<clipPath id="clip_118">
<path transform="matrix(1,0,0,-1,0,400)" d="M63.19 44.21H469.83V388.19H63.19Z"/>
</clipPath>
<clipPath id="clip_119">
<path transform="matrix(1,0,0,-1,0,400)" d="M63.19 44.21H469.83V388.19H63.19Z"/>
</clipPath>
<clipPath id="clip_120">
<path transform="matrix(1,0,0,-1,0,400)" d="M63.19 44.21H469.83V388.19H63.19Z"/>
</clipPath>
<clipPath id="clip_121">
<path transform="matrix(1,0,0,-1,0,400)" d="M63.19 44.21H469.83V388.19H63.19Z"/>
</clipPath>
<clipPath id="clip_122">
<path transform="matrix(1,0,0,-1,0,400)" d="M63.19 44.21H469.83V388.19H63.19Z"/>
</clipPath>
<clipPath id="clip_123">
<path transform="matrix(1,0,0,-1,0,400)" d="M63.19 44.21H469.83V388.19H63.19Z"/>
</clipPath>
<clipPath id="clip_124">
<path transform="matrix(1,0,0,-1,0,400)" d="M63.19 44.21H469.83V388.19H63.19Z"/>
</clipPath>
<clipPath id="clip_125">
<path transform="matrix(1,0,0,-1,0,400)" d="M63.19 44.21H469.83V388.19H63.19Z"/>
</clipPath>
<clipPath id="clip_126">
<path transform="matrix(1,0,0,-1,0,400)" d="M63.19 44.21H469.83V388.19H63.19Z"/>
</clipPath>
<clipPath id="clip_127">
<path transform="matrix(1,0,0,-1,0,400)" d="M63.19 44.21H469.83V388.19H63.19Z"/>
</clipPath>
<clipPath id="clip_128">
<path transform="matrix(1,0,0,-1,0,400)" d="M63.19 44.21H469.83V388.19H63.19Z"/>
</clipPath>
<clipPath id="clip_129">
<path transform="matrix(1,0,0,-1,0,400)" d="M63.19 44.21H469.83V388.19H63.19Z"/>
</clipPath>
<clipPath id="clip_130">
<path transform="matrix(1,0,0,-1,0,400)" d="M63.19 44.21H469.83V388.19H63.19Z"/>
</clipPath>
<clipPath id="clip_131">
<path transform="matrix(1,0,0,-1,0,400)" d="M63.19 44.21H469.83V388.19H63.19Z"/>
</clipPath>
<clipPath id="clip_132">
<path transform="matrix(1,0,0,-1,0,400)" d="M63.19 44.21H469.83V388.19H63.19Z"/>
</clipPath>
<clipPath id="clip_133">
<path transform="matrix(1,0,0,-1,0,400)" d="M63.19 44.21H469.83V388.19H63.19Z"/>
</clipPath>
<clipPath id="clip_134">
<path transform="matrix(1,0,0,-1,0,400)" d="M63.19 44.21H469.83V388.19H63.19Z"/>
</clipPath>
<clipPath id="clip_135">
<path transform="matrix(1,0,0,-1,0,400)" d="M63.19 44.21H469.83V388.19H63.19Z"/>
</clipPath>
<clipPath id="clip_136">
<path transform="matrix(1,0,0,-1,0,400)" d="M63.19 44.21H469.83V388.19H63.19Z"/>
</clipPath>
<clipPath id="clip_137">
<path transform="matrix(1,0,0,-1,0,400)" d="M63.19 44.21H469.83V388.19H63.19Z"/>
</clipPath>
<clipPath id="clip_138">
<path transform="matrix(1,0,0,-1,0,400)" d="M63.19 44.21H469.83V388.19H63.19Z"/>
</clipPath>
<clipPath id="clip_139">
<path transform="matrix(1,0,0,-1,0,400)" d="M0 0H600V600H0Z"/>
</clipPath>
<clipPath id="clip_140">
<path transform="matrix(1,0,0,-1,0,400)" d="M0 0H600V600H0Z"/>
</clipPath>
<clipPath id="clip_141">
<path transform="matrix(1,0,0,-1,0,400)" d="M0 0H600V600H0Z"/>
</clipPath>
<clipPath id="clip_142">
<path transform="matrix(1,0,0,-1,0,400)" d="M0 0H600V600H0Z"/>
</clipPath>
<clipPath id="clip_143">
<path transform="matrix(1,0,0,-1,0,400)" d="M0 0H600V600H0Z"/>
</clipPath>
<clipPath id="clip_144">
<path transform="matrix(1,0,0,-1,0,400)" d="M0 0H600V600H0Z"/>
</clipPath>
<clipPath id="clip_145">
<path transform="matrix(1,0,0,-1,0,400)" d="M0 0H600V600H0Z"/>
</clipPath>
<clipPath id="clip_146">
<path transform="matrix(1,0,0,-1,0,400)" d="M0 0H600V600H0Z"/>
</clipPath>
<clipPath id="clip_147">
<path transform="matrix(1,0,0,-1,0,400)" d="M0 0H600V600H0Z"/>
</clipPath>
<clipPath id="clip_148">
<path transform="matrix(1,0,0,-1,0,400)" d="M0 0H600V600H0Z"/>
</clipPath>
<clipPath id="clip_149">
<path transform="matrix(1,0,0,-1,0,400)" d="M0 0H600V600H0Z"/>
</clipPath>
<clipPath id="clip_150">
<path transform="matrix(1,0,0,-1,0,400)" d="M0 0H600V600H0Z"/>
</clipPath>
<clipPath id="clip_151">
<path transform="matrix(1,0,0,-1,0,400)" d="M0 0H600V600H0Z"/>
</clipPath>
<clipPath id="clip_152">
<path transform="matrix(1,0,0,-1,0,400)" d="M0 0H600V600H0Z"/>
</clipPath>
<clipPath id="clip_153">
<path transform="matrix(1,0,0,-1,0,400)" d="M0 0H600V600H0Z"/>
</clipPath>
<clipPath id="clip_154">
<path transform="matrix(1,0,0,-1,0,400)" d="M0 0H600V600H0Z"/>
</clipPath>
<clipPath id="clip_155">
<path transform="matrix(1,0,0,-1,0,400)" d="M0 0H600V600H0Z"/>
</clipPath>
<clipPath id="clip_156">
<path transform="matrix(1,0,0,-1,0,400)" d="M0 0H600V600H0Z"/>
</clipPath>
<clipPath id="clip_157">
<path transform="matrix(1,0,0,-1,0,400)" d="M0 0H600V600H0Z"/>
</clipPath>
<clipPath id="clip_158">
<path transform="matrix(1,0,0,-1,0,400)" d="M0 0H600V600H0Z"/>
</clipPath>
<clipPath id="clip_159">
<path transform="matrix(1,0,0,-1,0,400)" d="M0 0H600V600H0Z"/>
</clipPath>
<clipPath id="clip_160">
<path transform="matrix(1,0,0,-1,0,400)" d="M0 0H600V600H0Z"/>
</clipPath>
<clipPath id="clip_161">
<path transform="matrix(1,0,0,-1,0,400)" d="M0 0H600V600H0Z"/>
</clipPath>
<clipPath id="clip_162">
<path transform="matrix(1,0,0,-1,0,400)" d="M0 0H600V600H0Z"/>
</clipPath>
<clipPath id="clip_163">
<path transform="matrix(1,0,0,-1,0,400)" d="M0 0H600V600H0Z"/>
</clipPath>
<clipPath id="clip_164">
<path transform="matrix(1,0,0,-1,0,400)" d="M0 0H600V600H0Z"/>
</clipPath>
<clipPath id="clip_165">
<path transform="matrix(1,0,0,-1,0,400)" d="M0 0H600V600H0Z"/>
</clipPath>
<clipPath id="clip_166">
<path transform="matrix(1,0,0,-1,0,400)" d="M0 0H600V600H0Z"/>
</clipPath>
<clipPath id="clip_167">
<path transform="matrix(1,0,0,-1,0,400)" d="M0 0H600V600H0Z"/>
</clipPath>
<clipPath id="clip_168">
<path transform="matrix(1,0,0,-1,0,400)" d="M0 0H600V600H0Z"/>
</clipPath>
<clipPath id="clip_169">
<path transform="matrix(1,0,0,-1,0,400)" d="M0 0H600V600H0Z"/>
</clipPath>
<clipPath id="clip_170">
<path transform="matrix(1,0,0,-1,0,400)" d="M0 0H600V600H0Z"/>
</clipPath>
<clipPath id="clip_171">
<path transform="matrix(1,0,0,-1,0,400)" d="M0 0H600V600H0Z"/>
</clipPath>
<clipPath id="clip_172">
<path transform="matrix(1,0,0,-1,0,400)" d="M0 0H600V600H0Z"/>
</clipPath>
<clipPath id="clip_173">
<path transform="matrix(1,0,0,-1,0,400)" d="M0 0H600V600H0Z"/>
</clipPath>
</defs>
<g clip-path="url(#clip_0)">
<path transform="matrix(1,0,0,-1,0,400)" d="M0 0H600V400H0" fill="#ffffff" fill-rule="evenodd"/>
</g>
<g clip-path="url(#clip_1)">
<path transform="matrix(1,0,0,-1,0,400)" d="M63.19 44.21H469.83V388.19H63.19" fill="#ffffff" fill-rule="evenodd"/>
</g>
<g clip-path="url(#clip_2)">
<path transform="matrix(1,0,0,-1,0,400)" stroke-width=".5" stroke-linecap="round" stroke-linejoin="round" fill="none" stroke="#000000" stroke-opacity=".0980392" d="M63.19 44.21V388.19"/>
</g>
<g clip-path="url(#clip_3)">
<path transform="matrix(1,0,0,-1,0,400)" stroke-width=".5" stroke-linecap="round" stroke-linejoin="round" fill="none" stroke="#000000" stroke-opacity=".0980392" d="M185.18 44.21V388.19"/>
</g>
<g clip-path="url(#clip_4)">
<path transform="matrix(1,0,0,-1,0,400)" stroke-width=".5" stroke-linecap="round" stroke-linejoin="round" fill="none" stroke="#000000" stroke-opacity=".0980392" d="M307.17 44.21V388.19"/>
</g>
<g clip-path="url(#clip_5)">
<path transform="matrix(1,0,0,-1,0,400)" stroke-width=".5" stroke-linecap="round" stroke-linejoin="round" fill="none" stroke="#000000" stroke-opacity=".0980392" d="M429.16 44.21V388.19"/>
</g>
<g clip-path="url(#clip_6)">
<path transform="matrix(1,0,0,-1,0,400)" stroke-width=".5" stroke-linecap="round" stroke-linejoin="round" fill="none" stroke="#000000" stroke-opacity=".0980392" d="M63.19 44.21V388.19"/>
</g>
<g clip-path="url(#clip_7)">
<path transform="matrix(1,0,0,-1,0,400)" stroke-width=".5" stroke-linecap="round" stroke-linejoin="round" fill="none" stroke="#000000" stroke-opacity=".0980392" d="M185.18 44.21V388.19"/>
</g>
<g clip-path="url(#clip_8)">
<path transform="matrix(1,0,0,-1,0,400)" stroke-width=".5" stroke-linecap="round" stroke-linejoin="round" fill="none" stroke="#000000" stroke-opacity=".0980392" d="M307.17 44.21V388.19"/>
</g>
<g clip-path="url(#clip_9)">
<path transform="matrix(1,0,0,-1,0,400)" stroke-width=".5" stroke-linecap="round" stroke-linejoin="round" fill="none" stroke="#000000" stroke-opacity=".0980392" d="M429.16 44.21V388.19"/>
</g>
<g clip-path="url(#clip_10)">
<path transform="matrix(1,0,0,-1,0,400)" stroke-width=".5" stroke-linecap="round" stroke-linejoin="round" fill="none" stroke="#000000" stroke-opacity=".0980392" d="M63.19 44.21H469.83"/>
</g>
<g clip-path="url(#clip_11)">
<path transform="matrix(1,0,0,-1,0,400)" stroke-width=".5" stroke-linecap="round" stroke-linejoin="round" fill="none" stroke="#000000" stroke-opacity=".0980392" d="M63.19 130.2H469.83"/>
</g>
<g clip-path="url(#clip_12)">
<path transform="matrix(1,0,0,-1,0,400)" stroke-width=".5" stroke-linecap="round" stroke-linejoin="round" fill="none" stroke="#000000" stroke-opacity=".0980392" d="M63.19 216.2H469.83"/>
</g>
<g clip-path="url(#clip_13)">
<path transform="matrix(1,0,0,-1,0,400)" stroke-width=".5" stroke-linecap="round" stroke-linejoin="round" fill="none" stroke="#000000" stroke-opacity=".0980392" d="M63.19 302.19H469.83"/>
</g>
<g clip-path="url(#clip_14)">
<path transform="matrix(1,0,0,-1,0,400)" stroke-width=".5" stroke-linecap="round" stroke-linejoin="round" fill="none" stroke="#000000" stroke-opacity=".0980392" d="M63.19 388.19H469.83"/>
</g>
<g clip-path="url(#clip_15)">
<path transform="matrix(1,0,0,-1,0,400)" stroke-width=".5" stroke-linecap="round" stroke-linejoin="round" fill="none" stroke="#000000" stroke-opacity=".0980392" d="M63.19 44.21H469.83"/>
</g>
<g clip-path="url(#clip_16)">
<path transform="matrix(1,0,0,-1,0,400)" stroke-width=".5" stroke-linecap="round" stroke-linejoin="round" fill="none" stroke="#000000" stroke-opacity=".0980392" d="M63.19 130.2H469.83"/>
</g>
<g clip-path="url(#clip_17)">
<path transform="matrix(1,0,0,-1,0,400)" stroke-width=".5" stroke-linecap="round" stroke-linejoin="round" fill="none" stroke="#000000" stroke-opacity=".0980392" d="M63.19 216.2H469.83"/>
</g>
<g clip-path="url(#clip_18)">
<path transform="matrix(1,0,0,-1,0,400)" stroke-width=".5" stroke-linecap="round" stroke-linejoin="round" fill="none" stroke="#000000" stroke-opacity=".0980392" d="M63.19 302.19H469.83"/>
</g>
<g clip-path="url(#clip_19)">
<path transform="matrix(1,0,0,-1,0,400)" stroke-width=".5" stroke-linecap="round" stroke-linejoin="round" fill="none" stroke="#000000" stroke-opacity=".0980392" d="M63.19 388.19H469.83"/>
</g>
<g clip-path="url(#clip_20)">
<path transform="matrix(1,0,0,-1,0,400)" stroke-width="1" stroke-linecap="round" stroke-linejoin="round" fill="none" stroke="#000000" d="M63.19 44.21H469.83"/>
</g>
<g clip-path="url(#clip_21)">
<path transform="matrix(1,0,0,-1,0,400)" stroke-width="1" stroke-linecap="round" stroke-linejoin="round" fill="none" stroke="#000000" d="M63.19 388.19H469.83"/>
</g>
<g clip-path="url(#clip_22)">
<path transform="matrix(1,0,0,-1,0,400)" stroke-width="1" stroke-linecap="round" stroke-linejoin="round" fill="none" stroke="#000000" d="M63.19 44.21V48.93"/>
</g>
<g clip-path="url(#clip_23)">
<path transform="matrix(1,0,0,-1,0,400)" stroke-width="1" stroke-linecap="round" stroke-linejoin="round" fill="none" stroke="#000000" d="M185.18 44.21V48.93"/>
</g>
<g clip-path="url(#clip_24)">
<path transform="matrix(1,0,0,-1,0,400)" stroke-width="1" stroke-linecap="round" stroke-linejoin="round" fill="none" stroke="#000000" d="M307.17 44.21V48.93"/>
</g>
<g clip-path="url(#clip_25)">
<path transform="matrix(1,0,0,-1,0,400)" stroke-width="1" stroke-linecap="round" stroke-linejoin="round" fill="none" stroke="#000000" d="M429.16 44.21V48.93"/>
</g>
<g clip-path="url(#clip_26)">
<path transform="matrix(1,0,0,-1,0,400)" stroke-width="1" stroke-linecap="round" stroke-linejoin="round" fill="none" stroke="#000000" d="M63.19 388.19V383.46"/>
</g>
<g clip-path="url(#clip_27)">
<path transform="matrix(1,0,0,-1,0,400)" stroke-width="1" stroke-linecap="round" stroke-linejoin="round" fill="none" stroke="#000000" d="M185.18 388.19V383.46"/>
</g>
<g clip-path="url(#clip_28)">
<path transform="matrix(1,0,0,-1,0,400)" stroke-width="1" stroke-linecap="round" stroke-linejoin="round" fill="none" stroke="#000000" d="M307.17 388.19V383.46"/>
</g>
<g clip-path="url(#clip_29)">
<path transform="matrix(1,0,0,-1,0,400)" stroke-width="1" stroke-linecap="round" stroke-linejoin="round" fill="none" stroke="#000000" d="M429.16 388.19V383.46"/>
</g>
<g clip-path="url(#clip_30)">
<path transform="matrix(1,0,0,-1,0,400)" d="M53.77 36.48C53.77 36.48 52.86 36.48 52.41 35.58 52.41 35.58 51.96 34.7 51.96 32.92 51.96 32.92 51.96 31.14 52.41 30.25 52.41 30.25 52.86 29.36 53.77 29.36 53.77 29.36 54.68 29.36 55.13 30.25 55.13 30.25 55.58 31.14 55.58 32.92 55.58 32.92 55.58 34.7 55.13 35.58 55.13 35.58 54.68 36.48 53.77 36.48M53.77 37.4C53.77 37.4 55.22 37.4 55.98 36.25 55.98 36.25 56.75 35.1 56.75 32.92 56.75 32.92 56.75 30.73 55.98 29.58 55.98 29.58 55.22 28.44 53.77 28.44 53.77 28.44 52.31 28.44 51.54 29.58 51.54 29.58 50.78 30.73 50.78 32.92 50.78 32.92 50.78 35.1 51.54 36.25 51.54 36.25 52.31 37.4 53.77 37.4Z"/>
</g>
<g clip-path="url(#clip_31)">
<path transform="matrix(1,0,0,-1,0,400)" d="M58.81 30.07H60.03V28.61H58.81V30.07Z"/>
</g>
<g clip-path="url(#clip_32)">
<path transform="matrix(1,0,0,-1,0,400)" d="M65.07 36.48C65.07 36.48 64.17 36.48 63.71 35.58 63.71 35.58 63.26 34.7 63.26 32.92 63.26 32.92 63.26 31.14 63.71 30.25 63.71 30.25 64.17 29.36 65.07 29.36 65.07 29.36 65.98 29.36 66.43 30.25 66.43 30.25 66.89 31.14 66.89 32.92 66.89 32.92 66.89 34.7 66.43 35.58 66.43 35.58 65.98 36.48 65.07 36.48M65.07 37.4C65.07 37.4 66.53 37.4 67.29 36.25 67.29 36.25 68.06 35.1 68.06 32.92 68.06 32.92 68.06 30.73 67.29 29.58 67.29 29.58 66.53 28.44 65.07 28.44 65.07 28.44 63.62 28.44 62.85 29.58 62.85 29.58 62.09 30.73 62.09 32.92 62.09 32.92 62.09 35.1 62.85 36.25 62.85 36.25 63.62 37.4 65.07 37.4Z"/>
</g>
<g clip-path="url(#clip_33)">
<path transform="matrix(1,0,0,-1,0,400)" d="M72.62 36.48C72.62 36.48 71.71 36.48 71.26 35.58 71.26 35.58 70.8 34.7 70.8 32.92 70.8 32.92 70.8 31.14 71.26 30.25 71.26 30.25 71.71 29.36 72.62 29.36 72.62 29.36 73.52 29.36 73.98 30.25 73.98 30.25 74.43 31.14 74.43 32.92 74.43 32.92 74.43 34.7 73.98 35.58 73.98 35.58 73.52 36.48 72.62 36.48M72.62 37.4C72.62 37.4 74.07 37.4 74.83 36.25 74.83 36.25 75.6 35.1 75.6 32.92 75.6 32.92 75.6 30.73 74.83 29.58 74.83 29.58 74.07 28.44 72.62 28.44 72.62 28.44 71.16 28.44 70.39 29.58 70.39 29.58 69.63 30.73 69.63 32.92 69.63 32.92 69.63 35.1 70.39 36.25 70.39 36.25 71.16 37.4 72.62 37.4Z"/>
</g>
<g clip-path="url(#clip_34)">
<path transform="matrix(1,0,0,-1,0,400)" d="M175.91 36.48C175.91 36.48 175.01 36.48 174.55 35.58 174.55 35.58 174.1 34.7 174.1 32.92 174.1 32.92 174.1 31.14 174.55 30.25 174.55 30.25 175.01 29.36 175.91 29.36 175.91 29.36 176.82 29.36 177.27 30.25 177.27 30.25 177.73 31.14 177.73 32.92 177.73 32.92 177.73 34.7 177.27 35.58 177.27 35.58 176.82 36.48 175.91 36.48M175.91 37.4C175.91 37.4 177.36 37.4 178.13 36.25 178.13 36.25 178.9 35.1 178.9 32.92 178.9 32.92 178.9 30.73 178.13 29.58 178.13 29.58 177.36 28.44 175.91 28.44 175.91 28.44 174.46 28.44 173.69 29.58 173.69 29.58 172.92 30.73 172.92 32.92 172.92 32.92 172.92 35.1 173.69 36.25 173.69 36.25 174.46 37.4 175.91 37.4Z"/>
</g>
<g clip-path="url(#clip_35)">
<path transform="matrix(1,0,0,-1,0,400)" d="M180.95 30.07H182.17V28.61H180.95V30.07Z"/>
</g>
<g clip-path="url(#clip_36)">
<path transform="matrix(1,0,0,-1,0,400)" d="M187.22 36.48C187.22 36.48 186.32 36.48 185.86 35.58 185.86 35.58 185.41 34.7 185.41 32.92 185.41 32.92 185.41 31.14 185.86 30.25 185.86 30.25 186.32 29.36 187.22 29.36 187.22 29.36 188.13 29.36 188.58 30.25 188.58 30.25 189.04 31.14 189.04 32.92 189.04 32.92 189.04 34.7 188.58 35.58 188.58 35.58 188.13 36.48 187.22 36.48M187.22 37.4C187.22 37.4 188.67 37.4 189.44 36.25 189.44 36.25 190.2 35.1 190.2 32.92 190.2 32.92 190.2 30.73 189.44 29.58 189.44 29.58 188.67 28.44 187.22 28.44 187.22 28.44 185.77 28.44 185 29.58 185 29.58 184.23 30.73 184.23 32.92 184.23 32.92 184.23 35.1 185 36.25 185 36.25 185.77 37.4 187.22 37.4Z"/>
</g>
<g clip-path="url(#clip_37)">
<path transform="matrix(1,0,0,-1,0,400)" d="M192.46 29.59H194.37V36.18L192.29 35.76V36.83L194.36 37.25H195.53V29.59H197.44V28.61H192.46V29.59Z"/>
</g>
<g clip-path="url(#clip_38)">
<path transform="matrix(1,0,0,-1,0,400)" d="M297.95 36.48C297.95 36.48 297.05 36.48 296.59 35.58 296.59 35.58 296.14 34.7 296.14 32.92 296.14 32.92 296.14 31.14 296.59 30.25 296.59 30.25 297.05 29.36 297.95 29.36 297.95 29.36 298.86 29.36 299.31 30.25 299.31 30.25 299.77 31.14 299.77 32.92 299.77 32.92 299.77 34.7 299.31 35.58 299.31 35.58 298.86 36.48 297.95 36.48M297.95 37.4C297.95 37.4 299.4 37.4 300.16 36.25 300.16 36.25 300.93 35.1 300.93 32.92 300.93 32.92 300.93 30.73 300.16 29.58 300.16 29.58 299.4 28.44 297.95 28.44 297.95 28.44 296.5 28.44 295.73 29.58 295.73 29.58 294.96 30.73 294.96 32.92 294.96 32.92 294.96 35.1 295.73 36.25 295.73 36.25 296.5 37.4 297.95 37.4Z"/>
</g>
<g clip-path="url(#clip_39)">
<path transform="matrix(1,0,0,-1,0,400)" d="M302.99 30.07H304.21V28.61H302.99V30.07Z"/>
</g>
<g clip-path="url(#clip_40)">
<path transform="matrix(1,0,0,-1,0,400)" d="M309.26 36.48C309.26 36.48 308.35 36.48 307.9 35.58 307.9 35.58 307.44 34.7 307.44 32.92 307.44 32.92 307.44 31.14 307.9 30.25 307.9 30.25 308.35 29.36 309.26 29.36 309.26 29.36 310.16 29.36 310.62 30.25 310.62 30.25 311.07 31.14 311.07 32.92 311.07 32.92 311.07 34.7 310.62 35.58 310.62 35.58 310.16 36.48 309.26 36.48M309.26 37.4C309.26 37.4 310.71 37.4 311.47 36.25 311.47 36.25 312.24 35.1 312.24 32.92 312.24 32.92 312.24 30.73 311.47 29.58 311.47 29.58 310.71 28.44 309.26 28.44 309.26 28.44 307.8 28.44 307.03 29.58 307.03 29.58 306.27 30.73 306.27 32.92 306.27 32.92 306.27 35.1 307.03 36.25 307.03 36.25 307.8 37.4 309.26 37.4Z"/>
</g>
<g clip-path="url(#clip_41)">
<path transform="matrix(1,0,0,-1,0,400)" d="M315.3 29.59H319.38V28.61H313.9V29.59C313.9 29.59 314.56 30.28 315.71 31.43 315.71 31.43 316.86 32.6 317.16 32.93 317.16 32.93 317.72 33.56 317.94 34 317.94 34 318.16 34.44 318.16 34.86 318.16 34.86 318.16 35.55 317.68 35.98 317.68 35.98 317.2 36.42 316.42 36.42 316.42 36.42 315.87 36.42 315.26 36.23 315.26 36.23 314.65 36.04 313.96 35.65V36.83C313.96 36.83 314.66 37.11 315.27 37.26 315.27 37.26 315.89 37.4 316.4 37.4 316.4 37.4 317.74 37.4 318.54 36.73 318.54 36.73 319.34 36.06 319.34 34.94 319.34 34.94 319.34 34.4 319.13 33.92 319.13 33.92 318.94 33.45 318.41 32.8 318.41 32.8 318.27 32.63 317.49 31.83 317.49 31.83 316.72 31.03 315.3 29.59Z"/>
</g>
<g clip-path="url(#clip_42)">
<path transform="matrix(1,0,0,-1,0,400)" d="M419.82 36.48C419.82 36.48 418.92 36.48 418.46 35.58 418.46 35.58 418.01 34.7 418.01 32.92 418.01 32.92 418.01 31.14 418.46 30.25 418.46 30.25 418.92 29.36 419.82 29.36 419.82 29.36 420.73 29.36 421.18 30.25 421.18 30.25 421.64 31.14 421.64 32.92 421.64 32.92 421.64 34.7 421.18 35.58 421.18 35.58 420.73 36.48 419.82 36.48M419.82 37.4C419.82 37.4 421.27 37.4 422.04 36.25 422.04 36.25 422.81 35.1 422.81 32.92 422.81 32.92 422.81 30.73 422.04 29.58 422.04 29.58 421.27 28.44 419.82 28.44 419.82 28.44 418.37 28.44 417.6 29.58 417.6 29.58 416.83 30.73 416.83 32.92 416.83 32.92 416.83 35.1 417.6 36.25 417.6 36.25 418.37 37.4 419.82 37.4Z"/>
</g>
<g clip-path="url(#clip_43)">
<path transform="matrix(1,0,0,-1,0,400)" d="M424.86 30.07H426.08V28.61H424.86V30.07Z"/>
</g>
<g clip-path="url(#clip_44)">
<path transform="matrix(1,0,0,-1,0,400)" d="M431.13 36.48C431.13 36.48 430.23 36.48 429.77 35.58 429.77 35.58 429.32 34.7 429.32 32.92 429.32 32.92 429.32 31.14 429.77 30.25 429.77 30.25 430.23 29.36 431.13 29.36 431.13 29.36 432.04 29.36 432.49 30.25 432.49 30.25 432.95 31.14 432.95 32.92 432.95 32.92 432.95 34.7 432.49 35.58 432.49 35.58 432.04 36.48 431.13 36.48M431.13 37.4C431.13 37.4 432.58 37.4 433.34 36.25 433.34 36.25 434.11 35.1 434.11 32.92 434.11 32.92 434.11 30.73 433.34 29.58 433.34 29.58 432.58 28.44 431.13 28.44 431.13 28.44 429.68 28.44 428.91 29.58 428.91 29.58 428.14 30.73 428.14 32.92 428.14 32.92 428.14 35.1 428.91 36.25 428.91 36.25 429.68 37.4 431.13 37.4Z"/>
</g>
<g clip-path="url(#clip_45)">
<path transform="matrix(1,0,0,-1,0,400)" d="M439.71 33.26C439.71 33.26 440.55 33.08 441.02 32.52 441.02 32.52 441.49 31.95 441.49 31.12 441.49 31.12 441.49 29.84 440.61 29.14 440.61 29.14 439.73 28.44 438.11 28.44 438.11 28.44 437.57 28.44 436.99 28.55 436.99 28.55 436.42 28.65 435.8 28.87V29.99C435.8 29.99 436.29 29.71 436.87 29.57 436.87 29.57 437.45 29.42 438.08 29.42 438.08 29.42 439.18 29.42 439.75 29.86 439.75 29.86 440.33 30.29 440.33 31.12 440.33 31.12 440.33 31.88 439.79 32.31 439.79 32.31 439.26 32.74 438.3 32.74H437.3V33.7H438.35C438.35 33.7 439.21 33.7 439.67 34.04 439.67 34.04 440.13 34.39 440.13 35.04 440.13 35.04 440.13 35.71 439.65 36.06 439.65 36.06 439.18 36.42 438.3 36.42 438.3 36.42 437.82 36.42 437.27 36.31 437.27 36.31 436.72 36.21 436.06 35.99V37.03C436.06 37.03 436.73 37.22 437.31 37.31 437.31 37.31 437.89 37.4 438.41 37.4 438.41 37.4 439.74 37.4 440.51 36.79 440.51 36.79 441.29 36.19 441.29 35.16 441.29 35.16 441.29 34.44 440.88 33.95 440.88 33.95 440.47 33.45 439.71 33.26Z"/>
</g>
<g clip-path="url(#clip_46)">
<path transform="matrix(1,0,0,-1,0,400)" d="M234.05 19.87H244.1V18.52H239.88V7.99H238.27V18.52H234.05V19.87Z"/>
</g>
<g clip-path="url(#clip_47)">
<path transform="matrix(1,0,0,-1,0,400)" d="M245.09 16.9H246.55V7.99H245.09V16.9M245.09 20.37H246.55V18.52H245.09V20.37Z"/>
</g>
<g clip-path="url(#clip_48)">
<path transform="matrix(1,0,0,-1,0,400)" d="M256.55 15.19C256.55 15.19 257.1 16.18 257.87 16.65 257.87 16.65 258.63 17.12 259.67 17.12 259.67 17.12 261.06 17.12 261.81 16.14 261.81 16.14 262.57 15.17 262.57 13.37V7.99H261.1V13.32C261.1 13.32 261.1 14.6 260.64 15.22 260.64 15.22 260.19 15.84 259.26 15.84 259.26 15.84 258.12 15.84 257.46 15.09 257.46 15.09 256.8 14.33 256.8 13.03V7.99H255.33V13.32C255.33 13.32 255.33 14.61 254.88 15.22 254.88 15.22 254.42 15.84 253.48 15.84 253.48 15.84 252.35 15.84 251.69 15.08 251.69 15.08 251.03 14.32 251.03 13.03V7.99H249.56V16.9H251.03V15.52C251.03 15.52 251.53 16.34 252.23 16.73 252.23 16.73 252.93 17.12 253.9 17.12 253.9 17.12 254.87 17.12 255.54 16.62 255.54 16.62 256.23 16.13 256.55 15.19Z"/>
</g>
<g clip-path="url(#clip_49)">
<path transform="matrix(1,0,0,-1,0,400)" d="M273.11 12.81V12.09H266.38C266.38 12.09 266.48 10.58 267.29 9.79 267.29 9.79 268.11 9 269.56 9 269.56 9 270.41 9 271.2 9.21 271.2 9.21 271.99 9.41 272.77 9.83V8.44C272.77 8.44 271.98 8.11 271.16 7.93 271.16 7.93 270.33 7.76 269.48 7.76 269.48 7.76 267.34 7.76 266.1 9 266.1 9 264.85 10.24 264.85 12.36 264.85 12.36 264.85 14.55 266.03 15.83 266.03 15.83 267.22 17.12 269.22 17.12 269.22 17.12 271.02 17.12 272.06 15.95 272.06 15.95 273.11 14.8 273.11 12.81M271.65 13.24C271.65 13.24 271.63 14.44 270.97 15.16 270.97 15.16 270.32 15.87 269.24 15.87 269.24 15.87 268.01 15.87 267.27 15.18 267.27 15.18 266.54 14.49 266.43 13.23L271.65 13.24Z"/>
</g>
<g clip-path="url(#clip_50)">
<path transform="matrix(1,0,0,-1,0,400)" d="M284.21 20.35C284.21 20.35 283.15 18.52 282.63 16.73 282.63 16.73 282.11 14.94 282.11 13.11 282.11 13.11 282.11 11.27 282.63 9.46 282.63 9.46 283.16 7.66 284.21 5.84H282.94C282.94 5.84 281.75 7.71 281.15 9.52 281.15 9.52 280.56 11.32 280.56 13.11 280.56 13.11 280.56 14.88 281.15 16.68 281.15 16.68 281.74 18.48 282.94 20.35H284.21Z"/>
</g>
<g clip-path="url(#clip_51)">
<path transform="matrix(1,0,0,-1,0,400)" d="M292.74 16.64V15.25C292.74 15.25 292.12 15.57 291.45 15.73 291.45 15.73 290.78 15.89 290.06 15.89 290.06 15.89 288.97 15.89 288.42 15.56 288.42 15.56 287.88 15.22 287.88 14.55 287.88 14.55 287.88 14.04 288.27 13.75 288.27 13.75 288.66 13.46 289.84 13.2L290.34 13.09C290.34 13.09 291.9 12.76 292.55 12.14 292.55 12.14 293.21 11.54 293.21 10.45 293.21 10.45 293.21 9.21 292.23 8.48 292.23 8.48 291.25 7.76 289.53 7.76 289.53 7.76 288.81 7.76 288.03 7.9 288.03 7.9 287.26 8.04 286.4 8.32V9.83C286.4 9.83 287.21 9.41 288 9.19 288 9.19 288.79 8.98 289.56 8.98 289.56 8.98 290.6 8.98 291.15 9.33 291.15 9.33 291.71 9.69 291.71 10.34 291.71 10.34 291.71 10.93 291.3 11.25 291.3 11.25 290.91 11.57 289.55 11.86L289.04 11.98C289.04 11.98 287.68 12.27 287.07 12.86 287.07 12.86 286.47 13.46 286.47 14.49 286.47 14.49 286.47 15.75 287.36 16.43 287.36 16.43 288.25 17.12 289.89 17.12 289.89 17.12 290.7 17.12 291.41 17 291.41 17 292.13 16.88 292.74 16.64Z"/>
</g>
<g clip-path="url(#clip_52)">
<path transform="matrix(1,0,0,-1,0,400)" d="M295.31 20.35H296.59C296.59 20.35 297.78 18.48 298.37 16.68 298.37 16.68 298.97 14.88 298.97 13.11 298.97 13.11 298.97 11.32 298.37 9.52 298.37 9.52 297.78 7.71 296.59 5.84H295.31C295.31 5.84 296.37 7.66 296.89 9.46 296.89 9.46 297.41 11.27 297.41 13.11 297.41 13.11 297.41 14.94 296.89 16.73 296.89 16.73 296.37 18.52 295.31 20.35Z"/>
</g>
<g clip-path="url(#clip_53)">
<path transform="matrix(1,0,0,-1,0,400)" stroke-width="1" stroke-linecap="round" stroke-linejoin="round" fill="none" stroke="#000000" d="M63.19 44.21V388.19"/>
</g>
<g clip-path="url(#clip_54)">
<path transform="matrix(1,0,0,-1,0,400)" stroke-width="1" stroke-linecap="round" stroke-linejoin="round" fill="none" stroke="#000000" d="M469.83 44.21V388.19"/>
</g>
<g clip-path="url(#clip_55)">
<path transform="matrix(1,0,0,-1,0,400)" stroke-width="1" stroke-linecap="round" stroke-linejoin="round" fill="none" stroke="#000000" d="M63.19 44.21H66.85"/>
</g>
<g clip-path="url(#clip_56)">
<path transform="matrix(1,0,0,-1,0,400)" stroke-width="1" stroke-linecap="round" stroke-linejoin="round" fill="none" stroke="#000000" d="M63.19 130.2H66.85"/>
</g>
<g clip-path="url(#clip_57)">
<path transform="matrix(1,0,0,-1,0,400)" stroke-width="1" stroke-linecap="round" stroke-linejoin="round" fill="none" stroke="#000000" d="M63.19 216.2H66.85"/>
</g>
<g clip-path="url(#clip_58)">
<path transform="matrix(1,0,0,-1,0,400)" stroke-width="1" stroke-linecap="round" stroke-linejoin="round" fill="none" stroke="#000000" d="M63.19 302.19H66.85"/>
</g>
<g clip-path="url(#clip_59)">
<path transform="matrix(1,0,0,-1,0,400)" stroke-width="1" stroke-linecap="round" stroke-linejoin="round" fill="none" stroke="#000000" d="M63.19 388.19H66.85"/>
</g>
<g clip-path="url(#clip_60)">
<path transform="matrix(1,0,0,-1,0,400)" stroke-width="1" stroke-linecap="round" stroke-linejoin="round" fill="none" stroke="#000000" d="M469.83 44.21H466.17"/>
</g>
<g clip-path="url(#clip_61)">
<path transform="matrix(1,0,0,-1,0,400)" stroke-width="1" stroke-linecap="round" stroke-linejoin="round" fill="none" stroke="#000000" d="M469.83 130.2H466.17"/>
</g>
<g clip-path="url(#clip_62)">
<path transform="matrix(1,0,0,-1,0,400)" stroke-width="1" stroke-linecap="round" stroke-linejoin="round" fill="none" stroke="#000000" d="M469.83 216.2H466.17"/>
</g>
<g clip-path="url(#clip_63)">
<path transform="matrix(1,0,0,-1,0,400)" stroke-width="1" stroke-linecap="round" stroke-linejoin="round" fill="none" stroke="#000000" d="M469.83 302.19H466.17"/>
</g>
<g clip-path="url(#clip_64)">
<path transform="matrix(1,0,0,-1,0,400)" stroke-width="1" stroke-linecap="round" stroke-linejoin="round" fill="none" stroke="#000000" d="M469.83 388.19H466.17"/>
</g>
<g clip-path="url(#clip_65)">
<path transform="matrix(1,0,0,-1,0,400)" d="M28.85 39.26H30.76V45.85L28.68 45.43V46.5L30.75 46.91H31.92V39.26H33.83V38.27H28.85V39.26Z"/>
</g>
<g clip-path="url(#clip_66)">
<path transform="matrix(1,0,0,-1,0,400)" d="M38.69 46.14C38.69 46.14 37.79 46.14 37.33 45.25 37.33 45.25 36.88 44.37 36.88 42.58 36.88 42.58 36.88 40.81 37.33 39.92 37.33 39.92 37.79 39.03 38.69 39.03 38.69 39.03 39.6 39.03 40.05 39.92 40.05 39.92 40.51 40.81 40.51 42.58 40.51 42.58 40.51 44.37 40.05 45.25 40.05 45.25 39.6 46.14 38.69 46.14M38.69 47.07C38.69 47.07 40.14 47.07 40.9 45.92 40.9 45.92 41.67 44.77 41.67 42.58 41.67 42.58 41.67 40.4 40.9 39.25 40.9 39.25 40.14 38.11 38.69 38.11 38.69 38.11 37.24 38.11 36.47 39.25 36.47 39.25 35.7 40.4 35.7 42.58 35.7 42.58 35.7 44.77 36.47 45.92 36.47 45.92 37.24 47.07 38.69 47.07Z"/>
</g>
<g clip-path="url(#clip_67)">
<path transform="matrix(1,0,0,-1,0,400)" d="M41.67 48.54H47.7V47.74H41.67V48.54Z"/>
</g>
<g clip-path="url(#clip_68)">
<path transform="matrix(1,0,0,-1,0,400)" d="M51.78 48.46C51.78 48.46 51.11 48.46 50.72 48.1 50.72 48.1 50.33 47.74 50.33 47.1 50.33 47.1 50.33 46.47 50.72 46.1 50.72 46.1 51.11 45.74 51.78 45.74 51.78 45.74 52.46 45.74 52.85 46.1 52.85 46.1 53.24 46.47 53.24 47.1 53.24 47.1 53.24 47.74 52.85 48.1 52.85 48.1 52.47 48.46 51.78 48.46M50.83 48.86C50.83 48.86 50.22 49.01 49.88 49.43 49.88 49.43 49.54 49.85 49.54 50.45 49.54 50.45 49.54 51.29 50.14 51.78 50.14 51.78 50.74 52.27 51.78 52.27 51.78 52.27 52.83 52.27 53.43 51.78 53.43 51.78 54.03 51.29 54.03 50.45 54.03 50.45 54.03 49.85 53.68 49.43 53.68 49.43 53.34 49.01 52.74 48.86 52.74 48.86 53.42 48.7 53.81 48.24 53.81 48.24 54.19 47.77 54.19 47.1 54.19 47.1 54.19 46.08 53.57 45.53 53.57 45.53 52.94 44.99 51.78 44.99 51.78 44.99 50.62 44.99 50 45.53 50 45.53 49.38 46.08 49.38 47.1 49.38 47.1 49.38 47.77 49.76 48.24 49.76 48.24 50.15 48.7 50.83 48.86M50.49 50.36C50.49 50.36 50.49 49.82 50.82 49.51 50.82 49.51 51.17 49.21 51.78 49.21 51.78 49.21 52.39 49.21 52.74 49.51 52.74 49.51 53.09 49.82 53.09 50.36 53.09 50.36 53.09 50.91 52.74 51.21 52.74 51.21 52.39 51.52 51.78 51.52 51.78 51.52 51.17 51.52 50.82 51.21 50.82 51.21 50.49 50.91 50.49 50.36Z"/>
</g>
<g clip-path="url(#clip_69)">
<path transform="matrix(1,0,0,-1,0,400)" d="M28.8 125.25H30.71V131.84L28.63 131.43V132.49L30.7 132.91H31.87V125.25H33.78V124.27H28.8V125.25Z"/>
</g>
<g clip-path="url(#clip_70)">
<path transform="matrix(1,0,0,-1,0,400)" d="M38.64 132.14C38.64 132.14 37.73 132.14 37.28 131.25 37.28 131.25 36.83 130.36 36.83 128.58 36.83 128.58 36.83 126.8 37.28 125.91 37.28 125.91 37.73 125.03 38.64 125.03 38.64 125.03 39.55 125.03 40 125.91 40 125.91 40.45 126.8 40.45 128.58 40.45 128.58 40.45 130.36 40 131.25 40 131.25 39.55 132.14 38.64 132.14M38.64 133.07C38.64 133.07 40.09 133.07 40.85 131.91 40.85 131.91 41.62 130.77 41.62 128.58 41.62 128.58 41.62 126.4 40.85 125.25 40.85 125.25 40.09 124.1 38.64 124.1 38.64 124.1 37.18 124.1 36.41 125.25 36.41 125.25 35.65 126.4 35.65 128.58 35.65 128.58 35.65 130.77 36.41 131.91 36.41 131.91 37.18 133.07 38.64 133.07Z"/>
</g>
<g clip-path="url(#clip_71)">
<path transform="matrix(1,0,0,-1,0,400)" d="M41.62 134.54H47.65V133.74H41.62V134.54Z"/>
</g>
<g clip-path="url(#clip_72)">
<path transform="matrix(1,0,0,-1,0,400)" d="M51.85 135.01C51.85 135.01 51.21 135.01 50.83 134.57 50.83 134.57 50.46 134.14 50.46 133.37 50.46 133.37 50.46 132.62 50.83 132.17 50.83 132.17 51.21 131.74 51.85 131.74 51.85 131.74 52.49 131.74 52.86 132.17 52.86 132.17 53.24 132.62 53.24 133.37 53.24 133.37 53.24 134.14 52.86 134.57 52.86 134.57 52.49 135.01 51.85 135.01M53.73 137.99V137.12C53.73 137.12 53.38 137.29 53.01 137.38 53.01 137.38 52.65 137.47 52.29 137.47 52.29 137.47 51.35 137.47 50.85 136.83 50.85 136.83 50.36 136.2 50.29 134.92 50.29 134.92 50.57 135.33 50.98 135.54 50.98 135.54 51.4 135.76 51.91 135.76 51.91 135.76 52.96 135.76 53.58 135.12 53.58 135.12 54.19 134.48 54.19 133.37 54.19 133.37 54.19 132.29 53.55 131.64 53.55 131.64 52.91 130.99 51.85 130.99 51.85 130.99 50.63 130.99 49.99 131.92 49.99 131.92 49.34 132.85 49.34 134.62 49.34 134.62 49.34 136.29 50.13 137.28 50.13 137.28 50.92 138.27 52.25 138.27 52.25 138.27 52.61 138.27 52.97 138.2 52.97 138.2 53.34 138.13 53.73 137.99Z"/>
</g>
<g clip-path="url(#clip_73)">
<path transform="matrix(1,0,0,-1,0,400)" d="M28.73 211.25H30.64V217.84L28.57 217.42V218.49L30.63 218.91H31.8V211.25H33.71V210.27H28.73V211.25Z"/>
</g>
<g clip-path="url(#clip_74)">
<path transform="matrix(1,0,0,-1,0,400)" d="M38.57 218.14C38.57 218.14 37.67 218.14 37.21 217.24 37.21 217.24 36.76 216.36 36.76 214.58 36.76 214.58 36.76 212.8 37.21 211.91 37.21 211.91 37.67 211.02 38.57 211.02 38.57 211.02 39.48 211.02 39.93 211.91 39.93 211.91 40.39 212.8 40.39 214.58 40.39 214.58 40.39 216.36 39.93 217.24 39.93 217.24 39.48 218.14 38.57 218.14M38.57 219.06C38.57 219.06 40.02 219.06 40.79 217.91 40.79 217.91 41.56 216.76 41.56 214.58 41.56 214.58 41.56 212.39 40.79 211.24 40.79 211.24 40.02 210.1 38.57 210.1 38.57 210.1 37.12 210.1 36.35 211.24 36.35 211.24 35.58 212.39 35.58 214.58 35.58 214.58 35.58 216.76 36.35 217.91 36.35 217.91 37.12 219.06 38.57 219.06Z"/>
</g>
<g clip-path="url(#clip_75)">
<path transform="matrix(1,0,0,-1,0,400)" d="M41.56 220.54H47.58V219.74H41.56V220.54Z"/>
</g>
<g clip-path="url(#clip_76)">
<path transform="matrix(1,0,0,-1,0,400)" d="M52.24 223.31 49.85 219.56H52.24V223.31M52 224.14H53.19V219.56H54.19V218.77H53.19V217.12H52.24V218.77H49.08V219.69L52 224.14Z"/>
</g>
<g clip-path="url(#clip_77)">
<path transform="matrix(1,0,0,-1,0,400)" d="M29.16 297.24H31.07V303.84L28.99 303.42V304.48L31.05 304.9H32.22V297.24H34.13V296.26H29.16V297.24Z"/>
</g>
<g clip-path="url(#clip_78)">
<path transform="matrix(1,0,0,-1,0,400)" d="M38.99 304.13C38.99 304.13 38.09 304.13 37.63 303.24 37.63 303.24 37.18 302.35 37.18 300.57 37.18 300.57 37.18 298.8 37.63 297.9 37.63 297.9 38.09 297.02 38.99 297.02 38.99 297.02 39.9 297.02 40.35 297.9 40.35 297.9 40.81 298.8 40.81 300.57 40.81 300.57 40.81 302.35 40.35 303.24 40.35 303.24 39.9 304.13 38.99 304.13M38.99 305.06C38.99 305.06 40.45 305.06 41.21 303.91 41.21 303.91 41.98 302.76 41.98 300.57 41.98 300.57 41.98 298.39 41.21 297.24 41.21 297.24 40.45 296.09 38.99 296.09 38.99 296.09 37.54 296.09 36.77 297.24 36.77 297.24 36.01 298.39 36.01 300.57 36.01 300.57 36.01 302.76 36.77 303.91 36.77 303.91 37.54 305.06 38.99 305.06Z"/>
</g>
<g clip-path="url(#clip_79)">
<path transform="matrix(1,0,0,-1,0,400)" d="M41.98 306.53H48.01V305.73H41.98V306.53Z"/>
</g>
<g clip-path="url(#clip_80)">
<path transform="matrix(1,0,0,-1,0,400)" d="M50.88 303.91H54.19V303.11H49.73V303.91C49.73 303.91 50.27 304.47 51.21 305.41 51.21 305.41 52.14 306.36 52.38 306.63 52.38 306.63 52.84 307.14 53.02 307.5 53.02 307.5 53.2 307.85 53.2 308.2 53.2 308.2 53.2 308.76 52.8 309.11 52.8 309.11 52.41 309.46 51.78 309.46 51.78 309.46 51.34 309.46 50.84 309.31 50.84 309.31 50.34 309.15 49.78 308.84V309.8C49.78 309.8 50.35 310.03 50.85 310.14 50.85 310.14 51.35 310.26 51.76 310.26 51.76 310.26 52.86 310.26 53.5 309.72 53.5 309.72 54.15 309.17 54.15 308.26 54.15 308.26 54.15 307.83 53.99 307.43 53.99 307.43 53.83 307.05 53.4 306.52 53.4 306.52 53.28 306.39 52.65 305.73 52.65 305.73 52.02 305.08 50.88 303.91Z"/>
</g>
<g clip-path="url(#clip_81)">
<path transform="matrix(1,0,0,-1,0,400)" d="M36.51 383.24H38.42V389.83L36.35 389.42V390.48L38.41 390.9H39.58V383.24H41.49V382.26H36.51V383.24Z"/>
</g>
<g clip-path="url(#clip_82)">
<path transform="matrix(1,0,0,-1,0,400)" d="M46.35 390.13C46.35 390.13 45.45 390.13 44.99 389.24 44.99 389.24 44.54 388.35 44.54 386.57 44.54 386.57 44.54 384.79 44.99 383.9 44.99 383.9 45.45 383.02 46.35 383.02 46.35 383.02 47.26 383.02 47.71 383.9 47.71 383.9 48.17 384.79 48.17 386.57 48.17 386.57 48.17 388.35 47.71 389.24 47.71 389.24 47.26 390.13 46.35 390.13M46.35 391.05C46.35 391.05 47.81 391.05 48.57 389.9 48.57 389.9 49.34 388.76 49.34 386.57 49.34 386.57 49.34 384.39 48.57 383.24 48.57 383.24 47.81 382.09 46.35 382.09 46.35 382.09 44.9 382.09 44.13 383.24 44.13 383.24 43.37 384.39 43.37 386.57 43.37 386.57 43.37 388.76 44.13 389.9 44.13 389.9 44.9 391.05 46.35 391.05Z"/>
</g>
<g clip-path="url(#clip_83)">
<path transform="matrix(1,0,0,-1,0,400)" d="M51.76 395.5C51.76 395.5 51.03 395.5 50.66 394.78 50.66 394.78 50.29 394.06 50.29 392.61 50.29 392.61 50.29 391.17 50.66 390.45 50.66 390.45 51.03 389.73 51.76 389.73 51.76 389.73 52.5 389.73 52.87 390.45 52.87 390.45 53.24 391.17 53.24 392.61 53.24 392.61 53.24 394.06 52.87 394.78 52.87 394.78 52.5 395.5 51.76 395.5M51.76 396.26C51.76 396.26 52.94 396.26 53.57 395.32 53.57 395.32 54.19 394.39 54.19 392.61 54.19 392.61 54.19 390.84 53.57 389.9 53.57 389.9 52.94 388.97 51.76 388.97 51.76 388.97 50.58 388.97 49.96 389.9 49.96 389.9 49.34 390.84 49.34 392.61 49.34 392.61 49.34 394.39 49.96 395.32 49.96 395.32 50.58 396.26 51.76 396.26Z"/>
</g>
<g clip-path="url(#clip_84)">
<path transform="matrix(1,0,0,-1,0,400)" d="M4.12 197.14V204.65H5.47V198.74H8.99V204.4H10.34V198.74H14.65V204.79H16V197.14H4.12Z"/>
</g>
<g clip-path="url(#clip_85)">
<path transform="matrix(1,0,0,-1,0,400)" d="M8.46 212.53C8.46 212.53 8.31 212.29 8.25 211.99 8.25 211.99 8.18 211.71 8.18 211.36 8.18 211.36 8.18 210.11 8.99 209.45 8.99 209.45 9.79 208.78 11.31 208.78H16V207.31H7.09V208.78H8.47C8.47 208.78 7.66 209.25 7.27 209.99 7.27 209.99 6.87 210.73 6.87 211.78 6.87 211.78 6.87 211.94 6.9 212.12 6.9 212.12 6.91 212.3 6.95 212.52L8.46 212.53Z"/>
</g>
<g clip-path="url(#clip_86)">
<path transform="matrix(1,0,0,-1,0,400)" d="M8.46 218.95C8.46 218.95 8.31 218.7 8.25 218.41 8.25 218.41 8.18 218.12 8.18 217.77 8.18 217.77 8.18 216.53 8.99 215.86 8.99 215.86 9.79 215.2 11.31 215.2H16V213.73H7.09V215.2H8.47C8.47 215.2 7.66 215.66 7.27 216.4 7.27 216.4 6.87 217.14 6.87 218.2 6.87 218.2 6.87 218.35 6.9 218.53 6.9 218.53 6.91 218.72 6.95 218.94L8.46 218.95Z"/>
</g>
<g clip-path="url(#clip_87)">
<path transform="matrix(1,0,0,-1,0,400)" d="M8.12 223.58C8.12 223.58 8.12 222.4 9.04 221.72 9.04 221.72 9.95 221.03 11.55 221.03 11.55 221.03 13.15 221.03 14.08 221.71 14.08 221.71 14.99 222.39 14.99 223.58 14.99 223.58 14.99 224.75 14.07 225.43 14.07 225.43 13.14 226.12 11.55 226.12 11.55 226.12 9.97 226.12 9.05 225.43 9.05 225.43 8.12 224.75 8.12 223.58M6.87 223.58C6.87 223.58 6.87 225.49 8.12 226.58 8.12 226.58 9.36 227.67 11.55 227.67 11.55 227.67 13.74 227.67 14.99 226.58 14.99 226.58 16.23 225.49 16.23 223.58 16.23 223.58 16.23 221.66 14.99 220.57 14.99 220.57 13.74 219.49 11.55 219.49 11.55 219.49 9.36 219.49 8.12 220.57 8.12 220.57 6.87 221.66 6.87 223.58Z"/>
</g>
<g clip-path="url(#clip_88)">
<path transform="matrix(1,0,0,-1,0,400)" d="M8.46 235.26C8.46 235.26 8.31 235.01 8.25 234.72 8.25 234.72 8.18 234.43 8.18 234.08 8.18 234.08 8.18 232.84 8.99 232.17 8.99 232.17 9.79 231.51 11.31 231.51H16V230.04H7.09V231.51H8.47C8.47 231.51 7.66 231.97 7.27 232.71 7.27 232.71 6.87 233.45 6.87 234.51 6.87 234.51 6.87 234.66 6.9 234.84 6.9 234.84 6.91 235.03 6.95 235.25L8.46 235.26Z"/>
</g>
<g clip-path="url(#clip_89)">
<path transform="matrix(1,0,0,-1,0,400)" stroke-width="3" stroke-linecap="round" stroke-linejoin="round" fill="none" stroke="#009afa" d="M108.37 356.06 153.55 318.62 198.74 325.26 243.92 328.92 289.1 332.65 334.28 347.81 379.46 369.32 424.65 378.33 469.83 354.34"/>
</g>
<g clip-path="url(#clip_90)">
<path transform="matrix(1,0,0,-1,0,400)" stroke-width="2.4" stroke-linecap="round" stroke-linejoin="round" fill="none" stroke="#009afa" d="M108.37 356.06V363.06"/>
<path transform="matrix(1,0,0,-1,0,400)" stroke-width="2.4" stroke-linecap="round" stroke-linejoin="round" fill="none" stroke="#009afa" d="M108.37 356.06H101.37"/>
<path transform="matrix(1,0,0,-1,0,400)" stroke-width="2.4" stroke-linecap="round" stroke-linejoin="round" fill="none" stroke="#009afa" d="M108.37 356.06V349.06"/>
<path transform="matrix(1,0,0,-1,0,400)" stroke-width="2.4" stroke-linecap="round" stroke-linejoin="round" fill="none" stroke="#009afa" d="M108.37 356.06H115.37"/>
</g>
<g clip-path="url(#clip_91)">
<path transform="matrix(1,0,0,-1,0,400)" stroke-width="2.4" stroke-linecap="round" stroke-linejoin="round" fill="none" stroke="#009afa" d="M153.55 318.62V325.62"/>
<path transform="matrix(1,0,0,-1,0,400)" stroke-width="2.4" stroke-linecap="round" stroke-linejoin="round" fill="none" stroke="#009afa" d="M153.55 318.62H146.55"/>
<path transform="matrix(1,0,0,-1,0,400)" stroke-width="2.4" stroke-linecap="round" stroke-linejoin="round" fill="none" stroke="#009afa" d="M153.55 318.62V311.62"/>
<path transform="matrix(1,0,0,-1,0,400)" stroke-width="2.4" stroke-linecap="round" stroke-linejoin="round" fill="none" stroke="#009afa" d="M153.55 318.62H160.55"/>
</g>
<g clip-path="url(#clip_92)">
<path transform="matrix(1,0,0,-1,0,400)" stroke-width="2.4" stroke-linecap="round" stroke-linejoin="round" fill="none" stroke="#009afa" d="M198.74 325.26V332.26"/>
<path transform="matrix(1,0,0,-1,0,400)" stroke-width="2.4" stroke-linecap="round" stroke-linejoin="round" fill="none" stroke="#009afa" d="M198.74 325.26H191.74"/>
<path transform="matrix(1,0,0,-1,0,400)" stroke-width="2.4" stroke-linecap="round" stroke-linejoin="round" fill="none" stroke="#009afa" d="M198.74 325.26V318.26"/>
<path transform="matrix(1,0,0,-1,0,400)" stroke-width="2.4" stroke-linecap="round" stroke-linejoin="round" fill="none" stroke="#009afa" d="M198.74 325.26H205.74"/>
</g>
<g clip-path="url(#clip_93)">
<path transform="matrix(1,0,0,-1,0,400)" stroke-width="2.4" stroke-linecap="round" stroke-linejoin="round" fill="none" stroke="#009afa" d="M243.92 328.92V335.92"/>
<path transform="matrix(1,0,0,-1,0,400)" stroke-width="2.4" stroke-linecap="round" stroke-linejoin="round" fill="none" stroke="#009afa" d="M243.92 328.92H236.92"/>
<path transform="matrix(1,0,0,-1,0,400)" stroke-width="2.4" stroke-linecap="round" stroke-linejoin="round" fill="none" stroke="#009afa" d="M243.92 328.92V321.92"/>
<path transform="matrix(1,0,0,-1,0,400)" stroke-width="2.4" stroke-linecap="round" stroke-linejoin="round" fill="none" stroke="#009afa" d="M243.92 328.92H250.92"/>
</g>
<g clip-path="url(#clip_94)">
<path transform="matrix(1,0,0,-1,0,400)" stroke-width="2.4" stroke-linecap="round" stroke-linejoin="round" fill="none" stroke="#009afa" d="M289.1 332.65V339.65"/>
<path transform="matrix(1,0,0,-1,0,400)" stroke-width="2.4" stroke-linecap="round" stroke-linejoin="round" fill="none" stroke="#009afa" d="M289.1 332.65H282.1"/>
<path transform="matrix(1,0,0,-1,0,400)" stroke-width="2.4" stroke-linecap="round" stroke-linejoin="round" fill="none" stroke="#009afa" d="M289.1 332.65V325.65"/>
<path transform="matrix(1,0,0,-1,0,400)" stroke-width="2.4" stroke-linecap="round" stroke-linejoin="round" fill="none" stroke="#009afa" d="M289.1 332.65H296.1"/>
</g>
<g clip-path="url(#clip_95)">
<path transform="matrix(1,0,0,-1,0,400)" stroke-width="2.4" stroke-linecap="round" stroke-linejoin="round" fill="none" stroke="#009afa" d="M334.28 347.81V354.81"/>
<path transform="matrix(1,0,0,-1,0,400)" stroke-width="2.4" stroke-linecap="round" stroke-linejoin="round" fill="none" stroke="#009afa" d="M334.28 347.81H327.28"/>
<path transform="matrix(1,0,0,-1,0,400)" stroke-width="2.4" stroke-linecap="round" stroke-linejoin="round" fill="none" stroke="#009afa" d="M334.28 347.81V340.81"/>
<path transform="matrix(1,0,0,-1,0,400)" stroke-width="2.4" stroke-linecap="round" stroke-linejoin="round" fill="none" stroke="#009afa" d="M334.28 347.81H341.28"/>
</g>
<g clip-path="url(#clip_96)">
<path transform="matrix(1,0,0,-1,0,400)" stroke-width="2.4" stroke-linecap="round" stroke-linejoin="round" fill="none" stroke="#009afa" d="M379.46 369.32V376.32"/>
<path transform="matrix(1,0,0,-1,0,400)" stroke-width="2.4" stroke-linecap="round" stroke-linejoin="round" fill="none" stroke="#009afa" d="M379.46 369.32H372.46"/>
<path transform="matrix(1,0,0,-1,0,400)" stroke-width="2.4" stroke-linecap="round" stroke-linejoin="round" fill="none" stroke="#009afa" d="M379.46 369.32V362.32"/>
<path transform="matrix(1,0,0,-1,0,400)" stroke-width="2.4" stroke-linecap="round" stroke-linejoin="round" fill="none" stroke="#009afa" d="M379.46 369.32H386.46"/>
</g>
<g clip-path="url(#clip_97)">
<path transform="matrix(1,0,0,-1,0,400)" stroke-width="2.4" stroke-linecap="round" stroke-linejoin="round" fill="none" stroke="#009afa" d="M424.65 378.33V385.33"/>
<path transform="matrix(1,0,0,-1,0,400)" stroke-width="2.4" stroke-linecap="round" stroke-linejoin="round" fill="none" stroke="#009afa" d="M424.65 378.33H417.65"/>
<path transform="matrix(1,0,0,-1,0,400)" stroke-width="2.4" stroke-linecap="round" stroke-linejoin="round" fill="none" stroke="#009afa" d="M424.65 378.33V371.33"/>
<path transform="matrix(1,0,0,-1,0,400)" stroke-width="2.4" stroke-linecap="round" stroke-linejoin="round" fill="none" stroke="#009afa" d="M424.65 378.33H431.65"/>
</g>
<g clip-path="url(#clip_98)">
<path transform="matrix(1,0,0,-1,0,400)" stroke-width="2.4" stroke-linecap="round" stroke-linejoin="round" fill="none" stroke="#009afa" d="M469.83 354.34V361.34"/>
<path transform="matrix(1,0,0,-1,0,400)" stroke-width="2.4" stroke-linecap="round" stroke-linejoin="round" fill="none" stroke="#009afa" d="M469.83 354.34H462.83"/>
<path transform="matrix(1,0,0,-1,0,400)" stroke-width="2.4" stroke-linecap="round" stroke-linejoin="round" fill="none" stroke="#009afa" d="M469.83 354.34V347.34"/>
<path transform="matrix(1,0,0,-1,0,400)" stroke-width="2.4" stroke-linecap="round" stroke-linejoin="round" fill="none" stroke="#009afa" d="M469.83 354.34H476.83"/>
</g>
<g clip-path="url(#clip_99)">
<path transform="matrix(1,0,0,-1,0,400)" stroke-width="3" stroke-linecap="round" stroke-linejoin="round" fill="none" stroke="#e36f47" d="M108.37 221.87 153.55 259.9 198.74 277.19 243.92 269.87 289.1 300.38 334.28 323.17 379.46 316.2 424.65 293.86 469.83 293.92"/>
</g>
<g clip-path="url(#clip_100)">
<path transform="matrix(1,0,0,-1,0,400)" stroke-width="2.4" stroke-linecap="round" stroke-linejoin="round" fill="none" stroke="#e36f47" d="M108.37 221.87V228.87"/>
<path transform="matrix(1,0,0,-1,0,400)" stroke-width="2.4" stroke-linecap="round" stroke-linejoin="round" fill="none" stroke="#e36f47" d="M108.37 221.87H101.37"/>
<path transform="matrix(1,0,0,-1,0,400)" stroke-width="2.4" stroke-linecap="round" stroke-linejoin="round" fill="none" stroke="#e36f47" d="M108.37 221.87V214.87"/>
<path transform="matrix(1,0,0,-1,0,400)" stroke-width="2.4" stroke-linecap="round" stroke-linejoin="round" fill="none" stroke="#e36f47" d="M108.37 221.87H115.37"/>
</g>
<g clip-path="url(#clip_101)">
<path transform="matrix(1,0,0,-1,0,400)" stroke-width="2.4" stroke-linecap="round" stroke-linejoin="round" fill="none" stroke="#e36f47" d="M153.55 259.9V266.9"/>
<path transform="matrix(1,0,0,-1,0,400)" stroke-width="2.4" stroke-linecap="round" stroke-linejoin="round" fill="none" stroke="#e36f47" d="M153.55 259.9H146.55"/>
<path transform="matrix(1,0,0,-1,0,400)" stroke-width="2.4" stroke-linecap="round" stroke-linejoin="round" fill="none" stroke="#e36f47" d="M153.55 259.9V252.9"/>
<path transform="matrix(1,0,0,-1,0,400)" stroke-width="2.4" stroke-linecap="round" stroke-linejoin="round" fill="none" stroke="#e36f47" d="M153.55 259.9H160.55"/>
</g>
<g clip-path="url(#clip_102)">
<path transform="matrix(1,0,0,-1,0,400)" stroke-width="2.4" stroke-linecap="round" stroke-linejoin="round" fill="none" stroke="#e36f47" d="M198.74 277.19V284.19"/>
<path transform="matrix(1,0,0,-1,0,400)" stroke-width="2.4" stroke-linecap="round" stroke-linejoin="round" fill="none" stroke="#e36f47" d="M198.74 277.19H191.74"/>
<path transform="matrix(1,0,0,-1,0,400)" stroke-width="2.4" stroke-linecap="round" stroke-linejoin="round" fill="none" stroke="#e36f47" d="M198.74 277.19V270.19"/>
<path transform="matrix(1,0,0,-1,0,400)" stroke-width="2.4" stroke-linecap="round" stroke-linejoin="round" fill="none" stroke="#e36f47" d="M198.74 277.19H205.74"/>
</g>
<g clip-path="url(#clip_103)">
<path transform="matrix(1,0,0,-1,0,400)" stroke-width="2.4" stroke-linecap="round" stroke-linejoin="round" fill="none" stroke="#e36f47" d="M243.92 269.87V276.87"/>
<path transform="matrix(1,0,0,-1,0,400)" stroke-width="2.4" stroke-linecap="round" stroke-linejoin="round" fill="none" stroke="#e36f47" d="M243.92 269.87H236.92"/>
<path transform="matrix(1,0,0,-1,0,400)" stroke-width="2.4" stroke-linecap="round" stroke-linejoin="round" fill="none" stroke="#e36f47" d="M243.92 269.87V262.87"/>
<path transform="matrix(1,0,0,-1,0,400)" stroke-width="2.4" stroke-linecap="round" stroke-linejoin="round" fill="none" stroke="#e36f47" d="M243.92 269.87H250.92"/>
</g>
<g clip-path="url(#clip_104)">
<path transform="matrix(1,0,0,-1,0,400)" stroke-width="2.4" stroke-linecap="round" stroke-linejoin="round" fill="none" stroke="#e36f47" d="M289.1 300.38V307.38"/>
<path transform="matrix(1,0,0,-1,0,400)" stroke-width="2.4" stroke-linecap="round" stroke-linejoin="round" fill="none" stroke="#e36f47" d="M289.1 300.38H282.1"/>
<path transform="matrix(1,0,0,-1,0,400)" stroke-width="2.4" stroke-linecap="round" stroke-linejoin="round" fill="none" stroke="#e36f47" d="M289.1 300.38V293.38"/>
<path transform="matrix(1,0,0,-1,0,400)" stroke-width="2.4" stroke-linecap="round" stroke-linejoin="round" fill="none" stroke="#e36f47" d="M289.1 300.38H296.1"/>
</g>
<g clip-path="url(#clip_105)">
<path transform="matrix(1,0,0,-1,0,400)" stroke-width="2.4" stroke-linecap="round" stroke-linejoin="round" fill="none" stroke="#e36f47" d="M334.28 323.17V330.17"/>
<path transform="matrix(1,0,0,-1,0,400)" stroke-width="2.4" stroke-linecap="round" stroke-linejoin="round" fill="none" stroke="#e36f47" d="M334.28 323.17H327.28"/>
<path transform="matrix(1,0,0,-1,0,400)" stroke-width="2.4" stroke-linecap="round" stroke-linejoin="round" fill="none" stroke="#e36f47" d="M334.28 323.17V316.17"/>
<path transform="matrix(1,0,0,-1,0,400)" stroke-width="2.4" stroke-linecap="round" stroke-linejoin="round" fill="none" stroke="#e36f47" d="M334.28 323.17H341.28"/>
</g>
<g clip-path="url(#clip_106)">
<path transform="matrix(1,0,0,-1,0,400)" stroke-width="2.4" stroke-linecap="round" stroke-linejoin="round" fill="none" stroke="#e36f47" d="M379.46 316.2V323.2"/>
<path transform="matrix(1,0,0,-1,0,400)" stroke-width="2.4" stroke-linecap="round" stroke-linejoin="round" fill="none" stroke="#e36f47" d="M379.46 316.2H372.46"/>
<path transform="matrix(1,0,0,-1,0,400)" stroke-width="2.4" stroke-linecap="round" stroke-linejoin="round" fill="none" stroke="#e36f47" d="M379.46 316.2V309.2"/>
<path transform="matrix(1,0,0,-1,0,400)" stroke-width="2.4" stroke-linecap="round" stroke-linejoin="round" fill="none" stroke="#e36f47" d="M379.46 316.2H386.46"/>
</g>
<g clip-path="url(#clip_107)">
<path transform="matrix(1,0,0,-1,0,400)" stroke-width="2.4" stroke-linecap="round" stroke-linejoin="round" fill="none" stroke="#e36f47" d="M424.65 293.86V300.86"/>
<path transform="matrix(1,0,0,-1,0,400)" stroke-width="2.4" stroke-linecap="round" stroke-linejoin="round" fill="none" stroke="#e36f47" d="M424.65 293.86H417.65"/>
<path transform="matrix(1,0,0,-1,0,400)" stroke-width="2.4" stroke-linecap="round" stroke-linejoin="round" fill="none" stroke="#e36f47" d="M424.65 293.86V286.86"/>
<path transform="matrix(1,0,0,-1,0,400)" stroke-width="2.4" stroke-linecap="round" stroke-linejoin="round" fill="none" stroke="#e36f47" d="M424.65 293.86H431.65"/>
</g>
<g clip-path="url(#clip_108)">
<path transform="matrix(1,0,0,-1,0,400)" stroke-width="2.4" stroke-linecap="round" stroke-linejoin="round" fill="none" stroke="#e36f47" d="M469.83 293.92V300.92"/>
<path transform="matrix(1,0,0,-1,0,400)" stroke-width="2.4" stroke-linecap="round" stroke-linejoin="round" fill="none" stroke="#e36f47" d="M469.83 293.92H462.83"/>
<path transform="matrix(1,0,0,-1,0,400)" stroke-width="2.4" stroke-linecap="round" stroke-linejoin="round" fill="none" stroke="#e36f47" d="M469.83 293.92V286.92"/>
<path transform="matrix(1,0,0,-1,0,400)" stroke-width="2.4" stroke-linecap="round" stroke-linejoin="round" fill="none" stroke="#e36f47" d="M469.83 293.92H476.83"/>
</g>
<g clip-path="url(#clip_109)">
<path transform="matrix(1,0,0,-1,0,400)" stroke-width="3" stroke-linecap="round" stroke-linejoin="round" fill="none" stroke="#3ea44e" d="M108.37 147.64 153.55 195.95 198.74 231.59 243.92 223.66 289.1 272.77 334.28 257.26 379.46 290.47 424.65 261.82 469.83 293.78"/>
</g>
<g clip-path="url(#clip_110)">
<path transform="matrix(1,0,0,-1,0,400)" stroke-width="2.4" stroke-linecap="round" stroke-linejoin="round" fill="none" stroke="#3ea44e" d="M108.37 147.64V154.64"/>
<path transform="matrix(1,0,0,-1,0,400)" stroke-width="2.4" stroke-linecap="round" stroke-linejoin="round" fill="none" stroke="#3ea44e" d="M108.37 147.64H101.37"/>
<path transform="matrix(1,0,0,-1,0,400)" stroke-width="2.4" stroke-linecap="round" stroke-linejoin="round" fill="none" stroke="#3ea44e" d="M108.37 147.64V140.64"/>
<path transform="matrix(1,0,0,-1,0,400)" stroke-width="2.4" stroke-linecap="round" stroke-linejoin="round" fill="none" stroke="#3ea44e" d="M108.37 147.64H115.37"/>
</g>
<g clip-path="url(#clip_111)">
<path transform="matrix(1,0,0,-1,0,400)" stroke-width="2.4" stroke-linecap="round" stroke-linejoin="round" fill="none" stroke="#3ea44e" d="M153.55 195.95V202.95"/>
<path transform="matrix(1,0,0,-1,0,400)" stroke-width="2.4" stroke-linecap="round" stroke-linejoin="round" fill="none" stroke="#3ea44e" d="M153.55 195.95H146.55"/>
<path transform="matrix(1,0,0,-1,0,400)" stroke-width="2.4" stroke-linecap="round" stroke-linejoin="round" fill="none" stroke="#3ea44e" d="M153.55 195.95V188.95"/>
<path transform="matrix(1,0,0,-1,0,400)" stroke-width="2.4" stroke-linecap="round" stroke-linejoin="round" fill="none" stroke="#3ea44e" d="M153.55 195.95H160.55"/>
</g>
<g clip-path="url(#clip_112)">
<path transform="matrix(1,0,0,-1,0,400)" stroke-width="2.4" stroke-linecap="round" stroke-linejoin="round" fill="none" stroke="#3ea44e" d="M198.74 231.59V238.59"/>
<path transform="matrix(1,0,0,-1,0,400)" stroke-width="2.4" stroke-linecap="round" stroke-linejoin="round" fill="none" stroke="#3ea44e" d="M198.74 231.59H191.74"/>
<path transform="matrix(1,0,0,-1,0,400)" stroke-width="2.4" stroke-linecap="round" stroke-linejoin="round" fill="none" stroke="#3ea44e" d="M198.74 231.59V224.59"/>
<path transform="matrix(1,0,0,-1,0,400)" stroke-width="2.4" stroke-linecap="round" stroke-linejoin="round" fill="none" stroke="#3ea44e" d="M198.74 231.59H205.74"/>
</g>
<g clip-path="url(#clip_113)">
<path transform="matrix(1,0,0,-1,0,400)" stroke-width="2.4" stroke-linecap="round" stroke-linejoin="round" fill="none" stroke="#3ea44e" d="M243.92 223.66V230.66"/>
<path transform="matrix(1,0,0,-1,0,400)" stroke-width="2.4" stroke-linecap="round" stroke-linejoin="round" fill="none" stroke="#3ea44e" d="M243.92 223.66H236.92"/>
<path transform="matrix(1,0,0,-1,0,400)" stroke-width="2.4" stroke-linecap="round" stroke-linejoin="round" fill="none" stroke="#3ea44e" d="M243.92 223.66V216.66"/>
<path transform="matrix(1,0,0,-1,0,400)" stroke-width="2.4" stroke-linecap="round" stroke-linejoin="round" fill="none" stroke="#3ea44e" d="M243.92 223.66H250.92"/>
</g>
<g clip-path="url(#clip_114)">
<path transform="matrix(1,0,0,-1,0,400)" stroke-width="2.4" stroke-linecap="round" stroke-linejoin="round" fill="none" stroke="#3ea44e" d="M289.1 272.77V279.77"/>
<path transform="matrix(1,0,0,-1,0,400)" stroke-width="2.4" stroke-linecap="round" stroke-linejoin="round" fill="none" stroke="#3ea44e" d="M289.1 272.77H282.1"/>
<path transform="matrix(1,0,0,-1,0,400)" stroke-width="2.4" stroke-linecap="round" stroke-linejoin="round" fill="none" stroke="#3ea44e" d="M289.1 272.77V265.77"/>
<path transform="matrix(1,0,0,-1,0,400)" stroke-width="2.4" stroke-linecap="round" stroke-linejoin="round" fill="none" stroke="#3ea44e" d="M289.1 272.77H296.1"/>
</g>
<g clip-path="url(#clip_115)">
<path transform="matrix(1,0,0,-1,0,400)" stroke-width="2.4" stroke-linecap="round" stroke-linejoin="round" fill="none" stroke="#3ea44e" d="M334.28 257.26V264.26"/>
<path transform="matrix(1,0,0,-1,0,400)" stroke-width="2.4" stroke-linecap="round" stroke-linejoin="round" fill="none" stroke="#3ea44e" d="M334.28 257.26H327.28"/>
<path transform="matrix(1,0,0,-1,0,400)" stroke-width="2.4" stroke-linecap="round" stroke-linejoin="round" fill="none" stroke="#3ea44e" d="M334.28 257.26V250.26"/>
<path transform="matrix(1,0,0,-1,0,400)" stroke-width="2.4" stroke-linecap="round" stroke-linejoin="round" fill="none" stroke="#3ea44e" d="M334.28 257.26H341.28"/>
</g>
<g clip-path="url(#clip_116)">
<path transform="matrix(1,0,0,-1,0,400)" stroke-width="2.4" stroke-linecap="round" stroke-linejoin="round" fill="none" stroke="#3ea44e" d="M379.46 290.47V297.47"/>
<path transform="matrix(1,0,0,-1,0,400)" stroke-width="2.4" stroke-linecap="round" stroke-linejoin="round" fill="none" stroke="#3ea44e" d="M379.46 290.47H372.46"/>
<path transform="matrix(1,0,0,-1,0,400)" stroke-width="2.4" stroke-linecap="round" stroke-linejoin="round" fill="none" stroke="#3ea44e" d="M379.46 290.47V283.47"/>
<path transform="matrix(1,0,0,-1,0,400)" stroke-width="2.4" stroke-linecap="round" stroke-linejoin="round" fill="none" stroke="#3ea44e" d="M379.46 290.47H386.46"/>
</g>
<g clip-path="url(#clip_117)">
<path transform="matrix(1,0,0,-1,0,400)" stroke-width="2.4" stroke-linecap="round" stroke-linejoin="round" fill="none" stroke="#3ea44e" d="M424.65 261.82V268.82"/>
<path transform="matrix(1,0,0,-1,0,400)" stroke-width="2.4" stroke-linecap="round" stroke-linejoin="round" fill="none" stroke="#3ea44e" d="M424.65 261.82H417.65"/>
<path transform="matrix(1,0,0,-1,0,400)" stroke-width="2.4" stroke-linecap="round" stroke-linejoin="round" fill="none" stroke="#3ea44e" d="M424.65 261.82V254.82"/>
<path transform="matrix(1,0,0,-1,0,400)" stroke-width="2.4" stroke-linecap="round" stroke-linejoin="round" fill="none" stroke="#3ea44e" d="M424.65 261.82H431.65"/>
</g>
<g clip-path="url(#clip_118)">
<path transform="matrix(1,0,0,-1,0,400)" stroke-width="2.4" stroke-linecap="round" stroke-linejoin="round" fill="none" stroke="#3ea44e" d="M469.83 293.78V300.78"/>
<path transform="matrix(1,0,0,-1,0,400)" stroke-width="2.4" stroke-linecap="round" stroke-linejoin="round" fill="none" stroke="#3ea44e" d="M469.83 293.78H462.83"/>
<path transform="matrix(1,0,0,-1,0,400)" stroke-width="2.4" stroke-linecap="round" stroke-linejoin="round" fill="none" stroke="#3ea44e" d="M469.83 293.78V286.78"/>
<path transform="matrix(1,0,0,-1,0,400)" stroke-width="2.4" stroke-linecap="round" stroke-linejoin="round" fill="none" stroke="#3ea44e" d="M469.83 293.78H476.83"/>
</g>
<g clip-path="url(#clip_119)">
<path transform="matrix(1,0,0,-1,0,400)" stroke-width="3" stroke-linecap="round" stroke-linejoin="round" fill="none" stroke="#c371d2" d="M108.37 105.11 153.55 152.47 198.74 172.86 243.92 200.5 289.1 201.62 334.28 216.84 379.46 224.6 424.65 229.06 469.83 229.19"/>
</g>
<g clip-path="url(#clip_120)">
<path transform="matrix(1,0,0,-1,0,400)" stroke-width="2.4" stroke-linecap="round" stroke-linejoin="round" fill="none" stroke="#c371d2" d="M108.37 105.11V112.11"/>
<path transform="matrix(1,0,0,-1,0,400)" stroke-width="2.4" stroke-linecap="round" stroke-linejoin="round" fill="none" stroke="#c371d2" d="M108.37 105.11H101.37"/>
<path transform="matrix(1,0,0,-1,0,400)" stroke-width="2.4" stroke-linecap="round" stroke-linejoin="round" fill="none" stroke="#c371d2" d="M108.37 105.11V98.11"/>
<path transform="matrix(1,0,0,-1,0,400)" stroke-width="2.4" stroke-linecap="round" stroke-linejoin="round" fill="none" stroke="#c371d2" d="M108.37 105.11H115.37"/>
</g>
<g clip-path="url(#clip_121)">
<path transform="matrix(1,0,0,-1,0,400)" stroke-width="2.4" stroke-linecap="round" stroke-linejoin="round" fill="none" stroke="#c371d2" d="M153.55 152.47V159.47"/>
<path transform="matrix(1,0,0,-1,0,400)" stroke-width="2.4" stroke-linecap="round" stroke-linejoin="round" fill="none" stroke="#c371d2" d="M153.55 152.47H146.55"/>
<path transform="matrix(1,0,0,-1,0,400)" stroke-width="2.4" stroke-linecap="round" stroke-linejoin="round" fill="none" stroke="#c371d2" d="M153.55 152.47V145.47"/>
<path transform="matrix(1,0,0,-1,0,400)" stroke-width="2.4" stroke-linecap="round" stroke-linejoin="round" fill="none" stroke="#c371d2" d="M153.55 152.47H160.55"/>
</g>
<g clip-path="url(#clip_122)">
<path transform="matrix(1,0,0,-1,0,400)" stroke-width="2.4" stroke-linecap="round" stroke-linejoin="round" fill="none" stroke="#c371d2" d="M198.74 172.86V179.86"/>
<path transform="matrix(1,0,0,-1,0,400)" stroke-width="2.4" stroke-linecap="round" stroke-linejoin="round" fill="none" stroke="#c371d2" d="M198.74 172.86H191.74"/>
<path transform="matrix(1,0,0,-1,0,400)" stroke-width="2.4" stroke-linecap="round" stroke-linejoin="round" fill="none" stroke="#c371d2" d="M198.74 172.86V165.86"/>
<path transform="matrix(1,0,0,-1,0,400)" stroke-width="2.4" stroke-linecap="round" stroke-linejoin="round" fill="none" stroke="#c371d2" d="M198.74 172.86H205.74"/>
</g>
<g clip-path="url(#clip_123)">
<path transform="matrix(1,0,0,-1,0,400)" stroke-width="2.4" stroke-linecap="round" stroke-linejoin="round" fill="none" stroke="#c371d2" d="M243.92 200.5V207.5"/>
<path transform="matrix(1,0,0,-1,0,400)" stroke-width="2.4" stroke-linecap="round" stroke-linejoin="round" fill="none" stroke="#c371d2" d="M243.92 200.5H236.92"/>
<path transform="matrix(1,0,0,-1,0,400)" stroke-width="2.4" stroke-linecap="round" stroke-linejoin="round" fill="none" stroke="#c371d2" d="M243.92 200.5V193.5"/>
<path transform="matrix(1,0,0,-1,0,400)" stroke-width="2.4" stroke-linecap="round" stroke-linejoin="round" fill="none" stroke="#c371d2" d="M243.92 200.5H250.92"/>
</g>
<g clip-path="url(#clip_124)">
<path transform="matrix(1,0,0,-1,0,400)" stroke-width="2.4" stroke-linecap="round" stroke-linejoin="round" fill="none" stroke="#c371d2" d="M289.1 201.62V208.62"/>
<path transform="matrix(1,0,0,-1,0,400)" stroke-width="2.4" stroke-linecap="round" stroke-linejoin="round" fill="none" stroke="#c371d2" d="M289.1 201.62H282.1"/>
<path transform="matrix(1,0,0,-1,0,400)" stroke-width="2.4" stroke-linecap="round" stroke-linejoin="round" fill="none" stroke="#c371d2" d="M289.1 201.62V194.62"/>
<path transform="matrix(1,0,0,-1,0,400)" stroke-width="2.4" stroke-linecap="round" stroke-linejoin="round" fill="none" stroke="#c371d2" d="M289.1 201.62H296.1"/>
</g>
<g clip-path="url(#clip_125)">
<path transform="matrix(1,0,0,-1,0,400)" stroke-width="2.4" stroke-linecap="round" stroke-linejoin="round" fill="none" stroke="#c371d2" d="M334.28 216.84V223.84"/>
<path transform="matrix(1,0,0,-1,0,400)" stroke-width="2.4" stroke-linecap="round" stroke-linejoin="round" fill="none" stroke="#c371d2" d="M334.28 216.84H327.28"/>
<path transform="matrix(1,0,0,-1,0,400)" stroke-width="2.4" stroke-linecap="round" stroke-linejoin="round" fill="none" stroke="#c371d2" d="M334.28 216.84V209.84"/>
<path transform="matrix(1,0,0,-1,0,400)" stroke-width="2.4" stroke-linecap="round" stroke-linejoin="round" fill="none" stroke="#c371d2" d="M334.28 216.84H341.28"/>
</g>
<g clip-path="url(#clip_126)">
<path transform="matrix(1,0,0,-1,0,400)" stroke-width="2.4" stroke-linecap="round" stroke-linejoin="round" fill="none" stroke="#c371d2" d="M379.46 224.6V231.6"/>
<path transform="matrix(1,0,0,-1,0,400)" stroke-width="2.4" stroke-linecap="round" stroke-linejoin="round" fill="none" stroke="#c371d2" d="M379.46 224.6H372.46"/>
<path transform="matrix(1,0,0,-1,0,400)" stroke-width="2.4" stroke-linecap="round" stroke-linejoin="round" fill="none" stroke="#c371d2" d="M379.46 224.6V217.6"/>
<path transform="matrix(1,0,0,-1,0,400)" stroke-width="2.4" stroke-linecap="round" stroke-linejoin="round" fill="none" stroke="#c371d2" d="M379.46 224.6H386.46"/>
</g>
<g clip-path="url(#clip_127)">
<path transform="matrix(1,0,0,-1,0,400)" stroke-width="2.4" stroke-linecap="round" stroke-linejoin="round" fill="none" stroke="#c371d2" d="M424.65 229.06V236.06"/>
<path transform="matrix(1,0,0,-1,0,400)" stroke-width="2.4" stroke-linecap="round" stroke-linejoin="round" fill="none" stroke="#c371d2" d="M424.65 229.06H417.65"/>
<path transform="matrix(1,0,0,-1,0,400)" stroke-width="2.4" stroke-linecap="round" stroke-linejoin="round" fill="none" stroke="#c371d2" d="M424.65 229.06V222.06"/>
<path transform="matrix(1,0,0,-1,0,400)" stroke-width="2.4" stroke-linecap="round" stroke-linejoin="round" fill="none" stroke="#c371d2" d="M424.65 229.06H431.65"/>
</g>
<g clip-path="url(#clip_128)">
<path transform="matrix(1,0,0,-1,0,400)" stroke-width="2.4" stroke-linecap="round" stroke-linejoin="round" fill="none" stroke="#c371d2" d="M469.83 229.19V236.19"/>
<path transform="matrix(1,0,0,-1,0,400)" stroke-width="2.4" stroke-linecap="round" stroke-linejoin="round" fill="none" stroke="#c371d2" d="M469.83 229.19H462.83"/>
<path transform="matrix(1,0,0,-1,0,400)" stroke-width="2.4" stroke-linecap="round" stroke-linejoin="round" fill="none" stroke="#c371d2" d="M469.83 229.19V222.19"/>
<path transform="matrix(1,0,0,-1,0,400)" stroke-width="2.4" stroke-linecap="round" stroke-linejoin="round" fill="none" stroke="#c371d2" d="M469.83 229.19H476.83"/>
</g>
<g clip-path="url(#clip_129)">
<path transform="matrix(1,0,0,-1,0,400)" stroke-width="3" stroke-linecap="round" stroke-linejoin="round" fill="none" stroke="#ac8e18" d="M108.37 81.76 153.55 142.32 198.74 145.9 243.92 179.25 289.1 187.96 334.28 186.06 379.46 193.64 424.65 206.89 469.83 205.65"/>
</g>
<g clip-path="url(#clip_130)">
<path transform="matrix(1,0,0,-1,0,400)" stroke-width="2.4" stroke-linecap="round" stroke-linejoin="round" fill="none" stroke="#ac8e18" d="M108.37 81.76V88.76"/>
<path transform="matrix(1,0,0,-1,0,400)" stroke-width="2.4" stroke-linecap="round" stroke-linejoin="round" fill="none" stroke="#ac8e18" d="M108.37 81.76H101.37"/>
<path transform="matrix(1,0,0,-1,0,400)" stroke-width="2.4" stroke-linecap="round" stroke-linejoin="round" fill="none" stroke="#ac8e18" d="M108.37 81.76V74.76"/>
<path transform="matrix(1,0,0,-1,0,400)" stroke-width="2.4" stroke-linecap="round" stroke-linejoin="round" fill="none" stroke="#ac8e18" d="M108.37 81.76H115.37"/>
</g>
<g clip-path="url(#clip_131)">
<path transform="matrix(1,0,0,-1,0,400)" stroke-width="2.4" stroke-linecap="round" stroke-linejoin="round" fill="none" stroke="#ac8e18" d="M153.55 142.32V149.32"/>
<path transform="matrix(1,0,0,-1,0,400)" stroke-width="2.4" stroke-linecap="round" stroke-linejoin="round" fill="none" stroke="#ac8e18" d="M153.55 142.32H146.55"/>
<path transform="matrix(1,0,0,-1,0,400)" stroke-width="2.4" stroke-linecap="round" stroke-linejoin="round" fill="none" stroke="#ac8e18" d="M153.55 142.32V135.32"/>
<path transform="matrix(1,0,0,-1,0,400)" stroke-width="2.4" stroke-linecap="round" stroke-linejoin="round" fill="none" stroke="#ac8e18" d="M153.55 142.32H160.55"/>
</g>
<g clip-path="url(#clip_132)">
<path transform="matrix(1,0,0,-1,0,400)" stroke-width="2.4" stroke-linecap="round" stroke-linejoin="round" fill="none" stroke="#ac8e18" d="M198.74 145.9V152.9"/>
<path transform="matrix(1,0,0,-1,0,400)" stroke-width="2.4" stroke-linecap="round" stroke-linejoin="round" fill="none" stroke="#ac8e18" d="M198.74 145.9H191.74"/>
<path transform="matrix(1,0,0,-1,0,400)" stroke-width="2.4" stroke-linecap="round" stroke-linejoin="round" fill="none" stroke="#ac8e18" d="M198.74 145.9V138.9"/>
<path transform="matrix(1,0,0,-1,0,400)" stroke-width="2.4" stroke-linecap="round" stroke-linejoin="round" fill="none" stroke="#ac8e18" d="M198.74 145.9H205.74"/>
</g>
<g clip-path="url(#clip_133)">
<path transform="matrix(1,0,0,-1,0,400)" stroke-width="2.4" stroke-linecap="round" stroke-linejoin="round" fill="none" stroke="#ac8e18" d="M243.92 179.25V186.25"/>
<path transform="matrix(1,0,0,-1,0,400)" stroke-width="2.4" stroke-linecap="round" stroke-linejoin="round" fill="none" stroke="#ac8e18" d="M243.92 179.25H236.92"/>
<path transform="matrix(1,0,0,-1,0,400)" stroke-width="2.4" stroke-linecap="round" stroke-linejoin="round" fill="none" stroke="#ac8e18" d="M243.92 179.25V172.25"/>
<path transform="matrix(1,0,0,-1,0,400)" stroke-width="2.4" stroke-linecap="round" stroke-linejoin="round" fill="none" stroke="#ac8e18" d="M243.92 179.25H250.92"/>
</g>
<g clip-path="url(#clip_134)">
<path transform="matrix(1,0,0,-1,0,400)" stroke-width="2.4" stroke-linecap="round" stroke-linejoin="round" fill="none" stroke="#ac8e18" d="M289.1 187.96V194.96"/>
<path transform="matrix(1,0,0,-1,0,400)" stroke-width="2.4" stroke-linecap="round" stroke-linejoin="round" fill="none" stroke="#ac8e18" d="M289.1 187.96H282.1"/>
<path transform="matrix(1,0,0,-1,0,400)" stroke-width="2.4" stroke-linecap="round" stroke-linejoin="round" fill="none" stroke="#ac8e18" d="M289.1 187.96V180.96"/>
<path transform="matrix(1,0,0,-1,0,400)" stroke-width="2.4" stroke-linecap="round" stroke-linejoin="round" fill="none" stroke="#ac8e18" d="M289.1 187.96H296.1"/>
</g>
<g clip-path="url(#clip_135)">
<path transform="matrix(1,0,0,-1,0,400)" stroke-width="2.4" stroke-linecap="round" stroke-linejoin="round" fill="none" stroke="#ac8e18" d="M334.28 186.06V193.06"/>
<path transform="matrix(1,0,0,-1,0,400)" stroke-width="2.4" stroke-linecap="round" stroke-linejoin="round" fill="none" stroke="#ac8e18" d="M334.28 186.06H327.28"/>
<path transform="matrix(1,0,0,-1,0,400)" stroke-width="2.4" stroke-linecap="round" stroke-linejoin="round" fill="none" stroke="#ac8e18" d="M334.28 186.06V179.06"/>
<path transform="matrix(1,0,0,-1,0,400)" stroke-width="2.4" stroke-linecap="round" stroke-linejoin="round" fill="none" stroke="#ac8e18" d="M334.28 186.06H341.28"/>
</g>
<g clip-path="url(#clip_136)">
<path transform="matrix(1,0,0,-1,0,400)" stroke-width="2.4" stroke-linecap="round" stroke-linejoin="round" fill="none" stroke="#ac8e18" d="M379.46 193.64V200.64"/>
<path transform="matrix(1,0,0,-1,0,400)" stroke-width="2.4" stroke-linecap="round" stroke-linejoin="round" fill="none" stroke="#ac8e18" d="M379.46 193.64H372.46"/>
<path transform="matrix(1,0,0,-1,0,400)" stroke-width="2.4" stroke-linecap="round" stroke-linejoin="round" fill="none" stroke="#ac8e18" d="M379.46 193.64V186.64"/>
<path transform="matrix(1,0,0,-1,0,400)" stroke-width="2.4" stroke-linecap="round" stroke-linejoin="round" fill="none" stroke="#ac8e18" d="M379.46 193.64H386.46"/>
</g>
<g clip-path="url(#clip_137)">
<path transform="matrix(1,0,0,-1,0,400)" stroke-width="2.4" stroke-linecap="round" stroke-linejoin="round" fill="none" stroke="#ac8e18" d="M424.65 206.89V213.89"/>
<path transform="matrix(1,0,0,-1,0,400)" stroke-width="2.4" stroke-linecap="round" stroke-linejoin="round" fill="none" stroke="#ac8e18" d="M424.65 206.89H417.65"/>
<path transform="matrix(1,0,0,-1,0,400)" stroke-width="2.4" stroke-linecap="round" stroke-linejoin="round" fill="none" stroke="#ac8e18" d="M424.65 206.89V199.89"/>
<path transform="matrix(1,0,0,-1,0,400)" stroke-width="2.4" stroke-linecap="round" stroke-linejoin="round" fill="none" stroke="#ac8e18" d="M424.65 206.89H431.65"/>
</g>
<g clip-path="url(#clip_138)">
<path transform="matrix(1,0,0,-1,0,400)" stroke-width="2.4" stroke-linecap="round" stroke-linejoin="round" fill="none" stroke="#ac8e18" d="M469.83 205.65V212.65"/>
<path transform="matrix(1,0,0,-1,0,400)" stroke-width="2.4" stroke-linecap="round" stroke-linejoin="round" fill="none" stroke="#ac8e18" d="M469.83 205.65H462.83"/>
<path transform="matrix(1,0,0,-1,0,400)" stroke-width="2.4" stroke-linecap="round" stroke-linejoin="round" fill="none" stroke="#ac8e18" d="M469.83 205.65V198.65"/>
<path transform="matrix(1,0,0,-1,0,400)" stroke-width="2.4" stroke-linecap="round" stroke-linejoin="round" fill="none" stroke="#ac8e18" d="M469.83 205.65H476.83"/>
</g>
<g clip-path="url(#clip_139)">
<path transform="matrix(1,0,0,-1,0,400)" d="M487.33 172.33H588.19V250.09H487.33" fill="#ffffff" fill-rule="evenodd"/>
</g>
<g clip-path="url(#clip_140)">
<path transform="matrix(1,0,0,-1,0,400)" stroke-width="1" stroke-linecap="round" stroke-linejoin="round" fill="none" stroke="#000000" d="M487.33 172.33H588.19V250.09H487.33V172.33"/>
</g>
<g clip-path="url(#clip_141)">
<path transform="matrix(1,0,0,-1,0,400)" stroke-width="3" stroke-linecap="round" stroke-linejoin="round" fill="none" stroke="#009afa" d="M493.16 237.13H528.16"/>
</g>
<g clip-path="url(#clip_142)">
<path transform="matrix(1,0,0,-1,0,400)" stroke-width="2.4" stroke-linecap="round" stroke-linejoin="round" fill="none" stroke="#009afa" d="M510.66 237.13V242.53"/>
<path transform="matrix(1,0,0,-1,0,400)" stroke-width="2.4" stroke-linecap="round" stroke-linejoin="round" fill="none" stroke="#009afa" d="M510.66 237.13H505.26"/>
<path transform="matrix(1,0,0,-1,0,400)" stroke-width="2.4" stroke-linecap="round" stroke-linejoin="round" fill="none" stroke="#009afa" d="M510.66 237.13V231.73"/>
<path transform="matrix(1,0,0,-1,0,400)" stroke-width="2.4" stroke-linecap="round" stroke-linejoin="round" fill="none" stroke="#009afa" d="M510.66 237.13H516.06"/>
</g>
<g clip-path="url(#clip_143)">
<path transform="matrix(1,0,0,-1,0,400)" d="M533.99 241.45H535.74L537.94 235.57 540.16 241.45H541.9V232.81H540.76V240.4L538.53 234.47H537.36L535.13 240.4V232.81H533.99V241.45Z"/>
</g>
<g clip-path="url(#clip_144)">
<path transform="matrix(1,0,0,-1,0,400)" d="M548.08 238.19H555.5V237.22H548.08V238.19M548.08 235.83H555.5V234.85H548.08V235.83Z"/>
</g>
<g clip-path="url(#clip_145)">
<path transform="matrix(1,0,0,-1,0,400)" d="M562.8 233.79H566.88V232.81H561.39V233.79C561.39 233.79 562.05 234.48 563.2 235.64 563.2 235.64 564.35 236.8 564.65 237.14 564.65 237.14 565.21 237.77 565.43 238.2 565.43 238.2 565.65 238.64 565.65 239.07 565.65 239.07 565.65 239.76 565.17 240.19 565.17 240.19 564.69 240.62 563.91 240.62 563.91 240.62 563.36 240.62 562.75 240.43 562.75 240.43 562.14 240.24 561.45 239.85V241.03C561.45 241.03 562.15 241.32 562.77 241.46 562.77 241.46 563.38 241.61 563.89 241.61 563.89 241.61 565.23 241.61 566.03 240.94 566.03 240.94 566.83 240.26 566.83 239.14 566.83 239.14 566.83 238.61 566.63 238.13 566.63 238.13 566.43 237.65 565.9 237.01 565.9 237.01 565.76 236.84 564.98 236.03 564.98 236.03 564.21 235.24 562.8 233.79Z"/>
</g>
<g clip-path="url(#clip_146)">
<path transform="matrix(1,0,0,-1,0,400)" d="M571.83 240.68C571.83 240.68 570.93 240.68 570.47 239.79 570.47 239.79 570.02 238.9 570.02 237.12 570.02 237.12 570.02 235.35 570.47 234.45 570.47 234.45 570.93 233.57 571.83 233.57 571.83 233.57 572.74 233.57 573.19 234.45 573.19 234.45 573.65 235.35 573.65 237.12 573.65 237.12 573.65 238.9 573.19 239.79 573.19 239.79 572.74 240.68 571.83 240.68M571.83 241.61C571.83 241.61 573.28 241.61 574.05 240.46 574.05 240.46 574.82 239.31 574.82 237.12 574.82 237.12 574.82 234.94 574.05 233.79 574.05 233.79 573.28 232.64 571.83 232.64 571.83 232.64 570.38 232.64 569.61 233.79 569.61 233.79 568.84 234.94 568.84 237.12 568.84 237.12 568.84 239.31 569.61 240.46 569.61 240.46 570.38 241.61 571.83 241.61Z"/>
</g>
<g clip-path="url(#clip_147)">
<path transform="matrix(1,0,0,-1,0,400)" stroke-width="3" stroke-linecap="round" stroke-linejoin="round" fill="none" stroke="#e36f47" d="M493.16 224.17H528.16"/>
</g>
<g clip-path="url(#clip_148)">
<path transform="matrix(1,0,0,-1,0,400)" stroke-width="2.4" stroke-linecap="round" stroke-linejoin="round" fill="none" stroke="#e36f47" d="M510.66 224.17V229.57"/>
<path transform="matrix(1,0,0,-1,0,400)" stroke-width="2.4" stroke-linecap="round" stroke-linejoin="round" fill="none" stroke="#e36f47" d="M510.66 224.17H505.26"/>
<path transform="matrix(1,0,0,-1,0,400)" stroke-width="2.4" stroke-linecap="round" stroke-linejoin="round" fill="none" stroke="#e36f47" d="M510.66 224.17V218.77"/>
<path transform="matrix(1,0,0,-1,0,400)" stroke-width="2.4" stroke-linecap="round" stroke-linejoin="round" fill="none" stroke="#e36f47" d="M510.66 224.17H516.06"/>
</g>
<g clip-path="url(#clip_149)">
<path transform="matrix(1,0,0,-1,0,400)" d="M533.99 228.49H535.74L537.94 222.61 540.16 228.49H541.9V219.85H540.76V227.44L538.53 221.51H537.36L535.13 227.44V219.85H533.99V228.49Z"/>
</g>
<g clip-path="url(#clip_150)">
<path transform="matrix(1,0,0,-1,0,400)" d="M548.08 225.23H555.5V224.26H548.08V225.23M548.08 222.87H555.5V221.89H548.08V222.87Z"/>
</g>
<g clip-path="url(#clip_151)">
<path transform="matrix(1,0,0,-1,0,400)" d="M561.8 228.49H566.39V227.51H562.87V225.39C562.87 225.39 563.13 225.48 563.38 225.52 563.38 225.52 563.63 225.56 563.89 225.56 563.89 225.56 565.34 225.56 566.18 224.77 566.18 224.77 567.03 223.98 567.03 222.62 567.03 222.62 567.03 221.23 566.16 220.45 566.16 220.45 565.29 219.68 563.71 219.68 563.71 219.68 563.17 219.68 562.6 219.78 562.6 219.78 562.04 219.87 561.44 220.05V221.23C561.44 221.23 561.96 220.94 562.51 220.81 562.51 220.81 563.07 220.67 563.69 220.67 563.69 220.67 564.69 220.67 565.27 221.19 565.27 221.19 565.86 221.72 565.86 222.62 565.86 222.62 565.86 223.53 565.27 224.05 565.27 224.05 564.69 224.58 563.69 224.58 563.69 224.58 563.22 224.58 562.75 224.47 562.75 224.47 562.29 224.37 561.8 224.15V228.49Z"/>
</g>
<g clip-path="url(#clip_152)">
<path transform="matrix(1,0,0,-1,0,400)" d="M571.83 227.72C571.83 227.72 570.93 227.72 570.47 226.83 570.47 226.83 570.02 225.94 570.02 224.16 570.02 224.16 570.02 222.39 570.47 221.49 570.47 221.49 570.93 220.61 571.83 220.61 571.83 220.61 572.74 220.61 573.19 221.49 573.19 221.49 573.65 222.39 573.65 224.16 573.65 224.16 573.65 225.94 573.19 226.83 573.19 226.83 572.74 227.72 571.83 227.72M571.83 228.65C571.83 228.65 573.28 228.65 574.05 227.5 574.05 227.5 574.82 226.35 574.82 224.16 574.82 224.16 574.82 221.98 574.05 220.83 574.05 220.83 573.28 219.68 571.83 219.68 571.83 219.68 570.38 219.68 569.61 220.83 569.61 220.83 568.84 221.98 568.84 224.16 568.84 224.16 568.84 226.35 569.61 227.5 569.61 227.5 570.38 228.65 571.83 228.65Z"/>
</g>
<g clip-path="url(#clip_153)">
<path transform="matrix(1,0,0,-1,0,400)" stroke-width="3" stroke-linecap="round" stroke-linejoin="round" fill="none" stroke="#3ea44e" d="M493.16 211.21H528.16"/>
</g>
<g clip-path="url(#clip_154)">
<path transform="matrix(1,0,0,-1,0,400)" stroke-width="2.4" stroke-linecap="round" stroke-linejoin="round" fill="none" stroke="#3ea44e" d="M510.66 211.21V216.61"/>
<path transform="matrix(1,0,0,-1,0,400)" stroke-width="2.4" stroke-linecap="round" stroke-linejoin="round" fill="none" stroke="#3ea44e" d="M510.66 211.21H505.26"/>
<path transform="matrix(1,0,0,-1,0,400)" stroke-width="2.4" stroke-linecap="round" stroke-linejoin="round" fill="none" stroke="#3ea44e" d="M510.66 211.21V205.81"/>
<path transform="matrix(1,0,0,-1,0,400)" stroke-width="2.4" stroke-linecap="round" stroke-linejoin="round" fill="none" stroke="#3ea44e" d="M510.66 211.21H516.06"/>
</g>
<g clip-path="url(#clip_155)">
<path transform="matrix(1,0,0,-1,0,400)" d="M533.99 215.53H535.74L537.94 209.65 540.16 215.53H541.9V206.89H540.76V214.48L538.53 208.55H537.36L535.13 214.48V206.89H533.99V215.53Z"/>
</g>
<g clip-path="url(#clip_156)">
<path transform="matrix(1,0,0,-1,0,400)" d="M548.08 212.27H555.5V211.3H548.08V212.27M548.08 209.91H555.5V208.93H548.08V209.91Z"/>
</g>
<g clip-path="url(#clip_157)">
<path transform="matrix(1,0,0,-1,0,400)" d="M561.99 207.87H563.9V214.47L561.82 214.05V215.11L563.89 215.53H565.06V207.87H566.97V206.89H561.99V207.87Z"/>
</g>
<g clip-path="url(#clip_158)">
<path transform="matrix(1,0,0,-1,0,400)" d="M571.83 214.76C571.83 214.76 570.93 214.76 570.47 213.87 570.47 213.87 570.02 212.98 570.02 211.2 570.02 211.2 570.02 209.43 570.47 208.53 570.47 208.53 570.93 207.65 571.83 207.65 571.83 207.65 572.74 207.65 573.19 208.53 573.19 208.53 573.65 209.43 573.65 211.2 573.65 211.2 573.65 212.98 573.19 213.87 573.19 213.87 572.74 214.76 571.83 214.76M571.83 215.69C571.83 215.69 573.28 215.69 574.05 214.54 574.05 214.54 574.82 213.39 574.82 211.2 574.82 211.2 574.82 209.02 574.05 207.87 574.05 207.87 573.28 206.72 571.83 206.72 571.83 206.72 570.38 206.72 569.61 207.87 569.61 207.87 568.84 209.02 568.84 211.2 568.84 211.2 568.84 213.39 569.61 214.54 569.61 214.54 570.38 215.69 571.83 215.69Z"/>
</g>
<g clip-path="url(#clip_159)">
<path transform="matrix(1,0,0,-1,0,400)" d="M579.37 214.76C579.37 214.76 578.47 214.76 578.01 213.87 578.01 213.87 577.56 212.98 577.56 211.2 577.56 211.2 577.56 209.43 578.01 208.53 578.01 208.53 578.47 207.65 579.37 207.65 579.37 207.65 580.28 207.65 580.73 208.53 580.73 208.53 581.19 209.43 581.19 211.2 581.19 211.2 581.19 212.98 580.73 213.87 580.73 213.87 580.28 214.76 579.37 214.76M579.37 215.69C579.37 215.69 580.82 215.69 581.59 214.54 581.59 214.54 582.36 213.39 582.36 211.2 582.36 211.2 582.36 209.02 581.59 207.87 581.59 207.87 580.82 206.72 579.37 206.72 579.37 206.72 577.92 206.72 577.15 207.87 577.15 207.87 576.38 209.02 576.38 211.2 576.38 211.2 576.38 213.39 577.15 214.54 577.15 214.54 577.92 215.69 579.37 215.69Z"/>
</g>
<g clip-path="url(#clip_160)">
<path transform="matrix(1,0,0,-1,0,400)" stroke-width="3" stroke-linecap="round" stroke-linejoin="round" fill="none" stroke="#c371d2" d="M493.16 198.25H528.16"/>
</g>
<g clip-path="url(#clip_161)">
<path transform="matrix(1,0,0,-1,0,400)" stroke-width="2.4" stroke-linecap="round" stroke-linejoin="round" fill="none" stroke="#c371d2" d="M510.66 198.25V203.65"/>
<path transform="matrix(1,0,0,-1,0,400)" stroke-width="2.4" stroke-linecap="round" stroke-linejoin="round" fill="none" stroke="#c371d2" d="M510.66 198.25H505.26"/>
<path transform="matrix(1,0,0,-1,0,400)" stroke-width="2.4" stroke-linecap="round" stroke-linejoin="round" fill="none" stroke="#c371d2" d="M510.66 198.25V192.85"/>
<path transform="matrix(1,0,0,-1,0,400)" stroke-width="2.4" stroke-linecap="round" stroke-linejoin="round" fill="none" stroke="#c371d2" d="M510.66 198.25H516.06"/>
</g>
<g clip-path="url(#clip_162)">
<path transform="matrix(1,0,0,-1,0,400)" d="M533.99 202.57H535.74L537.94 196.69 540.16 202.57H541.9V193.93H540.76V201.52L538.53 195.59H537.36L535.13 201.52V193.93H533.99V202.57Z"/>
</g>
<g clip-path="url(#clip_163)">
<path transform="matrix(1,0,0,-1,0,400)" d="M548.08 199.31H555.5V198.34H548.08V199.31M548.08 196.95H555.5V195.97H548.08V196.95Z"/>
</g>
<g clip-path="url(#clip_164)">
<path transform="matrix(1,0,0,-1,0,400)" d="M561.99 194.91H563.9V201.51L561.82 201.09V202.15L563.89 202.57H565.06V194.91H566.97V193.93H561.99V194.91Z"/>
</g>
<g clip-path="url(#clip_165)">
<path transform="matrix(1,0,0,-1,0,400)" d="M569.34 202.57H573.93V201.59H570.41V199.47C570.41 199.47 570.67 199.56 570.92 199.6 570.92 199.6 571.18 199.64 571.43 199.64 571.43 199.64 572.88 199.64 573.72 198.85 573.72 198.85 574.57 198.06 574.57 196.7 574.57 196.7 574.57 195.31 573.7 194.53 573.7 194.53 572.83 193.76 571.25 193.76 571.25 193.76 570.71 193.76 570.14 193.86 570.14 193.86 569.58 193.95 568.98 194.13V195.31C568.98 195.31 569.5 195.02 570.05 194.89 570.05 194.89 570.61 194.75 571.23 194.75 571.23 194.75 572.23 194.75 572.81 195.27 572.81 195.27 573.4 195.8 573.4 196.7 573.4 196.7 573.4 197.61 572.81 198.13 572.81 198.13 572.23 198.66 571.23 198.66 571.23 198.66 570.76 198.66 570.29 198.55 570.29 198.55 569.83 198.45 569.34 198.23V202.57Z"/>
</g>
<g clip-path="url(#clip_166)">
<path transform="matrix(1,0,0,-1,0,400)" d="M579.37 201.8C579.37 201.8 578.47 201.8 578.01 200.91 578.01 200.91 577.56 200.02 577.56 198.24 577.56 198.24 577.56 196.47 578.01 195.57 578.01 195.57 578.47 194.69 579.37 194.69 579.37 194.69 580.28 194.69 580.73 195.57 580.73 195.57 581.19 196.47 581.19 198.24 581.19 198.24 581.19 200.02 580.73 200.91 580.73 200.91 580.28 201.8 579.37 201.8M579.37 202.73C579.37 202.73 580.82 202.73 581.59 201.58 581.59 201.58 582.36 200.43 582.36 198.24 582.36 198.24 582.36 196.06 581.59 194.91 581.59 194.91 580.82 193.76 579.37 193.76 579.37 193.76 577.92 193.76 577.15 194.91 577.15 194.91 576.38 196.06 576.38 198.24 576.38 198.24 576.38 200.43 577.15 201.58 577.15 201.58 577.92 202.73 579.37 202.73Z"/>
</g>
<g clip-path="url(#clip_167)">
<path transform="matrix(1,0,0,-1,0,400)" stroke-width="3" stroke-linecap="round" stroke-linejoin="round" fill="none" stroke="#ac8e18" d="M493.16 185.29H528.16"/>
</g>
<g clip-path="url(#clip_168)">
<path transform="matrix(1,0,0,-1,0,400)" stroke-width="2.4" stroke-linecap="round" stroke-linejoin="round" fill="none" stroke="#ac8e18" d="M510.66 185.29V190.69"/>
<path transform="matrix(1,0,0,-1,0,400)" stroke-width="2.4" stroke-linecap="round" stroke-linejoin="round" fill="none" stroke="#ac8e18" d="M510.66 185.29H505.26"/>
<path transform="matrix(1,0,0,-1,0,400)" stroke-width="2.4" stroke-linecap="round" stroke-linejoin="round" fill="none" stroke="#ac8e18" d="M510.66 185.29V179.89"/>
<path transform="matrix(1,0,0,-1,0,400)" stroke-width="2.4" stroke-linecap="round" stroke-linejoin="round" fill="none" stroke="#ac8e18" d="M510.66 185.29H516.06"/>
</g>
<g clip-path="url(#clip_169)">
<path transform="matrix(1,0,0,-1,0,400)" d="M533.99 189.61H535.74L537.94 183.73 540.16 189.61H541.9V180.97H540.76V188.56L538.53 182.63H537.36L535.13 188.56V180.97H533.99V189.61Z"/>
</g>
<g clip-path="url(#clip_170)">
<path transform="matrix(1,0,0,-1,0,400)" d="M548.08 186.35H555.5V185.38H548.08V186.35M548.08 183.99H555.5V183.01H548.08V183.99Z"/>
</g>
<g clip-path="url(#clip_171)">
<path transform="matrix(1,0,0,-1,0,400)" d="M562.8 181.95H566.88V180.97H561.39V181.95C561.39 181.95 562.05 182.64 563.2 183.8 563.2 183.8 564.35 184.96 564.65 185.3 564.65 185.3 565.21 185.93 565.43 186.36 565.43 186.36 565.65 186.8 565.65 187.23 565.65 187.23 565.65 187.92 565.17 188.35 565.17 188.35 564.69 188.78 563.91 188.78 563.91 188.78 563.36 188.78 562.75 188.59 562.75 188.59 562.14 188.4 561.45 188.01V189.19C561.45 189.19 562.15 189.48 562.77 189.62 562.77 189.62 563.38 189.77 563.89 189.77 563.89 189.77 565.23 189.77 566.03 189.1 566.03 189.1 566.83 188.42 566.83 187.3 566.83 187.3 566.83 186.77 566.63 186.29 566.63 186.29 566.43 185.81 565.9 185.17 565.9 185.17 565.76 185 564.98 184.19 564.98 184.19 564.21 183.4 562.8 181.95Z"/>
</g>
<g clip-path="url(#clip_172)">
<path transform="matrix(1,0,0,-1,0,400)" d="M571.83 188.84C571.83 188.84 570.93 188.84 570.47 187.95 570.47 187.95 570.02 187.06 570.02 185.28 570.02 185.28 570.02 183.51 570.47 182.61 570.47 182.61 570.93 181.73 571.83 181.73 571.83 181.73 572.74 181.73 573.19 182.61 573.19 182.61 573.65 183.51 573.65 185.28 573.65 185.28 573.65 187.06 573.19 187.95 573.19 187.95 572.74 188.84 571.83 188.84M571.83 189.77C571.83 189.77 573.28 189.77 574.05 188.62 574.05 188.62 574.82 187.47 574.82 185.28 574.82 185.28 574.82 183.1 574.05 181.95 574.05 181.95 573.28 180.8 571.83 180.8 571.83 180.8 570.38 180.8 569.61 181.95 569.61 181.95 568.84 183.1 568.84 185.28 568.84 185.28 568.84 187.47 569.61 188.62 569.61 188.62 570.38 189.77 571.83 189.77Z"/>
</g>
<g clip-path="url(#clip_173)">
<path transform="matrix(1,0,0,-1,0,400)" d="M579.37 188.84C579.37 188.84 578.47 188.84 578.01 187.95 578.01 187.95 577.56 187.06 577.56 185.28 577.56 185.28 577.56 183.51 578.01 182.61 578.01 182.61 578.47 181.73 579.37 181.73 579.37 181.73 580.28 181.73 580.73 182.61 580.73 182.61 581.19 183.51 581.19 185.28 581.19 185.28 581.19 187.06 580.73 187.95 580.73 187.95 580.28 188.84 579.37 188.84M579.37 189.77C579.37 189.77 580.82 189.77 581.59 188.62 581.59 188.62 582.36 187.47 582.36 185.28 582.36 185.28 582.36 183.1 581.59 181.95 581.59 181.95 580.82 180.8 579.37 180.8 579.37 180.8 577.92 180.8 577.15 181.95 577.15 181.95 576.38 183.1 576.38 185.28 576.38 185.28 576.38 187.47 577.15 188.62 577.15 188.62 577.92 189.77 579.37 189.77Z"/>
</g>
</svg>
