<?xml version="1.0" encoding="UTF-8" standalone="no"?>
<!DOCTYPE svg PUBLIC "-//W3C//DTD SVG 1.1//EN" "http://www.w3.org/Graphics/SVG/1.1/DTD/svg11.dtd">
<svg width="100%" height="100%" viewBox="0 0 600 400" version="1.1" xmlns="http://www.w3.org/2000/svg" xmlns:xlink="http://www.w3.org/1999/xlink" xml:space="preserve" xmlns:serif="http://www.serif.com/" style="fill-rule:evenodd;clip-rule:evenodd;stroke-linecap:round;stroke-linejoin:round;">
    <g>
        <g transform="matrix(1,0,0,-1,0,400)">
            <path d="M0,0L600,0L600,400L0,400" style="fill:white;"/>
        </g>
    </g>
    <g>
        <g transform="matrix(1,0,0,-1,0,400)">
            <path d="M63.19,44.21L469.83,44.21L469.83,388.19L63.19,388.19" style="fill:white;"/>
        </g>
    </g>
    <g>
        <clipPath id="_clip1">
            <rect x="63.19" y="11.81" width="406.64" height="343.98"/>
        </clipPath>
        <g clip-path="url(#_clip1)">
            <g transform="matrix(1,0,0,-1,0,400)">
                <path d="M63.19,44.21L63.19,388.19" style="fill:none;fill-rule:nonzero;stroke:black;stroke-opacity:0.09;stroke-width:0.5px;"/>
            </g>
        </g>
    </g>
    <g>
        <clipPath id="_clip2">
            <rect x="63.19" y="11.81" width="406.64" height="343.98"/>
        </clipPath>
        <g clip-path="url(#_clip2)">
            <g transform="matrix(1,0,0,-1,0,400)">
                <path d="M185.18,44.21L185.18,388.19" style="fill:none;fill-rule:nonzero;stroke:black;stroke-opacity:0.09;stroke-width:0.5px;"/>
            </g>
        </g>
    </g>
    <g>
        <clipPath id="_clip3">
            <rect x="63.19" y="11.81" width="406.64" height="343.98"/>
        </clipPath>
        <g clip-path="url(#_clip3)">
            <g transform="matrix(1,0,0,-1,0,400)">
                <path d="M307.17,44.21L307.17,388.19" style="fill:none;fill-rule:nonzero;stroke:black;stroke-opacity:0.09;stroke-width:0.5px;"/>
            </g>
        </g>
    </g>
    <g>
        <clipPath id="_clip4">
            <rect x="63.19" y="11.81" width="406.64" height="343.98"/>
        </clipPath>
        <g clip-path="url(#_clip4)">
            <g transform="matrix(1,0,0,-1,0,400)">
                <path d="M429.16,44.21L429.16,388.19" style="fill:none;fill-rule:nonzero;stroke:black;stroke-opacity:0.09;stroke-width:0.5px;"/>
            </g>
        </g>
    </g>
    <g>
        <clipPath id="_clip5">
            <rect x="63.19" y="11.81" width="406.64" height="343.98"/>
        </clipPath>
        <g clip-path="url(#_clip5)">
            <g transform="matrix(1,0,0,-1,0,400)">
                <path d="M63.19,44.21L63.19,388.19" style="fill:none;fill-rule:nonzero;stroke:black;stroke-opacity:0.09;stroke-width:0.5px;"/>
            </g>
        </g>
    </g>
    <g>
        <clipPath id="_clip6">
            <rect x="63.19" y="11.81" width="406.64" height="343.98"/>
        </clipPath>
        <g clip-path="url(#_clip6)">
            <g transform="matrix(1,0,0,-1,0,400)">
                <path d="M185.18,44.21L185.18,388.19" style="fill:none;fill-rule:nonzero;stroke:black;stroke-opacity:0.09;stroke-width:0.5px;"/>
            </g>
        </g>
    </g>
    <g>
        <clipPath id="_clip7">
            <rect x="63.19" y="11.81" width="406.64" height="343.98"/>
        </clipPath>
        <g clip-path="url(#_clip7)">
            <g transform="matrix(1,0,0,-1,0,400)">
                <path d="M307.17,44.21L307.17,388.19" style="fill:none;fill-rule:nonzero;stroke:black;stroke-opacity:0.09;stroke-width:0.5px;"/>
            </g>
        </g>
    </g>
    <g>
        <clipPath id="_clip8">
            <rect x="63.19" y="11.81" width="406.64" height="343.98"/>
        </clipPath>
        <g clip-path="url(#_clip8)">
            <g transform="matrix(1,0,0,-1,0,400)">
                <path d="M429.16,44.21L429.16,388.19" style="fill:none;fill-rule:nonzero;stroke:black;stroke-opacity:0.09;stroke-width:0.5px;"/>
            </g>
        </g>
    </g>
    <g>
        <clipPath id="_clip9">
            <rect x="63.19" y="11.81" width="406.64" height="343.98"/>
        </clipPath>
        <g clip-path="url(#_clip9)">
            <g transform="matrix(1,0,0,-1,0,400)">
                <path d="M63.19,44.21L469.83,44.21" style="fill:none;fill-rule:nonzero;stroke:black;stroke-opacity:0.09;stroke-width:0.5px;"/>
            </g>
        </g>
    </g>
    <g>
        <clipPath id="_clip10">
            <rect x="63.19" y="11.81" width="406.64" height="343.98"/>
        </clipPath>
        <g clip-path="url(#_clip10)">
            <g transform="matrix(1,0,0,-1,0,400)">
                <path d="M63.19,130.2L469.83,130.2" style="fill:none;fill-rule:nonzero;stroke:black;stroke-opacity:0.09;stroke-width:0.5px;"/>
            </g>
        </g>
    </g>
    <g>
        <clipPath id="_clip11">
            <rect x="63.19" y="11.81" width="406.64" height="343.98"/>
        </clipPath>
        <g clip-path="url(#_clip11)">
            <g transform="matrix(1,0,0,-1,0,400)">
                <path d="M63.19,216.2L469.83,216.2" style="fill:none;fill-rule:nonzero;stroke:black;stroke-opacity:0.09;stroke-width:0.5px;"/>
            </g>
        </g>
    </g>
    <g>
        <clipPath id="_clip12">
            <rect x="63.19" y="11.81" width="406.64" height="343.98"/>
        </clipPath>
        <g clip-path="url(#_clip12)">
            <g transform="matrix(1,0,0,-1,0,400)">
                <path d="M63.19,302.19L469.83,302.19" style="fill:none;fill-rule:nonzero;stroke:black;stroke-opacity:0.09;stroke-width:0.5px;"/>
            </g>
        </g>
    </g>
    <g>
        <clipPath id="_clip13">
            <rect x="63.19" y="11.81" width="406.64" height="343.98"/>
        </clipPath>
        <g clip-path="url(#_clip13)">
            <g transform="matrix(1,0,0,-1,0,400)">
                <path d="M63.19,388.19L469.83,388.19" style="fill:none;fill-rule:nonzero;stroke:black;stroke-opacity:0.09;stroke-width:0.5px;"/>
            </g>
        </g>
    </g>
    <g>
        <clipPath id="_clip14">
            <rect x="63.19" y="11.81" width="406.64" height="343.98"/>
        </clipPath>
        <g clip-path="url(#_clip14)">
            <g transform="matrix(1,0,0,-1,0,400)">
                <path d="M63.19,44.21L469.83,44.21" style="fill:none;fill-rule:nonzero;stroke:black;stroke-opacity:0.09;stroke-width:0.5px;"/>
            </g>
        </g>
    </g>
    <g>
        <clipPath id="_clip15">
            <rect x="63.19" y="11.81" width="406.64" height="343.98"/>
        </clipPath>
        <g clip-path="url(#_clip15)">
            <g transform="matrix(1,0,0,-1,0,400)">
                <path d="M63.19,130.2L469.83,130.2" style="fill:none;fill-rule:nonzero;stroke:black;stroke-opacity:0.09;stroke-width:0.5px;"/>
            </g>
        </g>
    </g>
    <g>
        <clipPath id="_clip16">
            <rect x="63.19" y="11.81" width="406.64" height="343.98"/>
        </clipPath>
        <g clip-path="url(#_clip16)">
            <g transform="matrix(1,0,0,-1,0,400)">
                <path d="M63.19,216.2L469.83,216.2" style="fill:none;fill-rule:nonzero;stroke:black;stroke-opacity:0.09;stroke-width:0.5px;"/>
            </g>
        </g>
    </g>
    <g>
        <clipPath id="_clip17">
            <rect x="63.19" y="11.81" width="406.64" height="343.98"/>
        </clipPath>
        <g clip-path="url(#_clip17)">
            <g transform="matrix(1,0,0,-1,0,400)">
                <path d="M63.19,302.19L469.83,302.19" style="fill:none;fill-rule:nonzero;stroke:black;stroke-opacity:0.09;stroke-width:0.5px;"/>
            </g>
        </g>
    </g>
    <g>
        <clipPath id="_clip18">
            <rect x="63.19" y="11.81" width="406.64" height="343.98"/>
        </clipPath>
        <g clip-path="url(#_clip18)">
            <g transform="matrix(1,0,0,-1,0,400)">
                <path d="M63.19,388.19L469.83,388.19" style="fill:none;fill-rule:nonzero;stroke:black;stroke-opacity:0.09;stroke-width:0.5px;"/>
            </g>
        </g>
    </g>
    <g>
        <g transform="matrix(1,0,0,-1,0,400)">
            <path d="M63.19,44.21L469.83,44.21" style="fill:none;fill-rule:nonzero;stroke:black;stroke-width:1px;"/>
        </g>
    </g>
    <g>
        <g transform="matrix(1,0,0,-1,0,400)">
            <path d="M63.19,388.19L469.83,388.19" style="fill:none;fill-rule:nonzero;stroke:black;stroke-width:1px;"/>
        </g>
    </g>
    <g>
        <g transform="matrix(1,0,0,-1,0,400)">
            <path d="M63.19,44.21L63.19,48.93" style="fill:none;fill-rule:nonzero;stroke:black;stroke-width:1px;"/>
        </g>
    </g>
    <g>
        <g transform="matrix(1,0,0,-1,0,400)">
            <path d="M185.18,44.21L185.18,48.93" style="fill:none;fill-rule:nonzero;stroke:black;stroke-width:1px;"/>
        </g>
    </g>
    <g>
        <g transform="matrix(1,0,0,-1,0,400)">
            <path d="M307.17,44.21L307.17,48.93" style="fill:none;fill-rule:nonzero;stroke:black;stroke-width:1px;"/>
        </g>
    </g>
    <g>
        <g transform="matrix(1,0,0,-1,0,400)">
            <path d="M429.16,44.21L429.16,48.93" style="fill:none;fill-rule:nonzero;stroke:black;stroke-width:1px;"/>
        </g>
    </g>
    <g>
        <g transform="matrix(1,0,0,-1,0,400)">
            <path d="M63.19,388.19L63.19,383.46" style="fill:none;fill-rule:nonzero;stroke:black;stroke-width:1px;"/>
        </g>
    </g>
    <g>
        <g transform="matrix(1,0,0,-1,0,400)">
            <path d="M185.18,388.19L185.18,383.46" style="fill:none;fill-rule:nonzero;stroke:black;stroke-width:1px;"/>
        </g>
    </g>
    <g>
        <g transform="matrix(1,0,0,-1,0,400)">
            <path d="M307.17,388.19L307.17,383.46" style="fill:none;fill-rule:nonzero;stroke:black;stroke-width:1px;"/>
        </g>
    </g>
    <g>
        <g transform="matrix(1,0,0,-1,0,400)">
            <path d="M429.16,388.19L429.16,383.46" style="fill:none;fill-rule:nonzero;stroke:black;stroke-width:1px;"/>
        </g>
    </g>
    <g>
        <g transform="matrix(1,0,0,-1,0,400)">
            <path d="M53.77,36.48C53.77,36.48 52.86,36.48 52.41,35.58C52.41,35.58 51.96,34.7 51.96,32.92C51.96,32.92 51.96,31.14 52.41,30.25C52.41,30.25 52.86,29.36 53.77,29.36C53.77,29.36 54.68,29.36 55.13,30.25C55.13,30.25 55.58,31.14 55.58,32.92C55.58,32.92 55.58,34.7 55.13,35.58C55.13,35.58 54.68,36.48 53.77,36.48M53.77,37.4C53.77,37.4 55.22,37.4 55.98,36.25C55.98,36.25 56.75,35.1 56.75,32.92C56.75,32.92 56.75,30.73 55.98,29.58C55.98,29.58 55.22,28.44 53.77,28.44C53.77,28.44 52.31,28.44 51.54,29.58C51.54,29.58 50.78,30.73 50.78,32.92C50.78,32.92 50.78,35.1 51.54,36.25C51.54,36.25 52.31,37.4 53.77,37.4Z" style="fill-rule:nonzero;"/>
        </g>
    </g>
    <g>
        <g transform="matrix(1,0,0,-1,0,400)">
            <rect x="58.81" y="28.61" width="1.22" height="1.46" style="fill-rule:nonzero;"/>
        </g>
    </g>
    <g>
        <g transform="matrix(1,0,0,-1,0,400)">
            <path d="M65.07,36.48C65.07,36.48 64.17,36.48 63.71,35.58C63.71,35.58 63.26,34.7 63.26,32.92C63.26,32.92 63.26,31.14 63.71,30.25C63.71,30.25 64.17,29.36 65.07,29.36C65.07,29.36 65.98,29.36 66.43,30.25C66.43,30.25 66.89,31.14 66.89,32.92C66.89,32.92 66.89,34.7 66.43,35.58C66.43,35.58 65.98,36.48 65.07,36.48M65.07,37.4C65.07,37.4 66.53,37.4 67.29,36.25C67.29,36.25 68.06,35.1 68.06,32.92C68.06,32.92 68.06,30.73 67.29,29.58C67.29,29.58 66.53,28.44 65.07,28.44C65.07,28.44 63.62,28.44 62.85,29.58C62.85,29.58 62.09,30.73 62.09,32.92C62.09,32.92 62.09,35.1 62.85,36.25C62.85,36.25 63.62,37.4 65.07,37.4Z" style="fill-rule:nonzero;"/>
        </g>
    </g>
    <g>
        <g transform="matrix(1,0,0,-1,0,400)">
            <path d="M72.62,36.48C72.62,36.48 71.71,36.48 71.26,35.58C71.26,35.58 70.8,34.7 70.8,32.92C70.8,32.92 70.8,31.14 71.26,30.25C71.26,30.25 71.71,29.36 72.62,29.36C72.62,29.36 73.52,29.36 73.98,30.25C73.98,30.25 74.43,31.14 74.43,32.92C74.43,32.92 74.43,34.7 73.98,35.58C73.98,35.58 73.52,36.48 72.62,36.48M72.62,37.4C72.62,37.4 74.07,37.4 74.83,36.25C74.83,36.25 75.6,35.1 75.6,32.92C75.6,32.92 75.6,30.73 74.83,29.58C74.83,29.58 74.07,28.44 72.62,28.44C72.62,28.44 71.16,28.44 70.39,29.58C70.39,29.58 69.63,30.73 69.63,32.92C69.63,32.92 69.63,35.1 70.39,36.25C70.39,36.25 71.16,37.4 72.62,37.4Z" style="fill-rule:nonzero;"/>
        </g>
    </g>
    <g>
        <g transform="matrix(1,0,0,-1,0,400)">
            <path d="M175.91,36.48C175.91,36.48 175.01,36.48 174.55,35.58C174.55,35.58 174.1,34.7 174.1,32.92C174.1,32.92 174.1,31.14 174.55,30.25C174.55,30.25 175.01,29.36 175.91,29.36C175.91,29.36 176.82,29.36 177.27,30.25C177.27,30.25 177.73,31.14 177.73,32.92C177.73,32.92 177.73,34.7 177.27,35.58C177.27,35.58 176.82,36.48 175.91,36.48M175.91,37.4C175.91,37.4 177.36,37.4 178.13,36.25C178.13,36.25 178.9,35.1 178.9,32.92C178.9,32.92 178.9,30.73 178.13,29.58C178.13,29.58 177.36,28.44 175.91,28.44C175.91,28.44 174.46,28.44 173.69,29.58C173.69,29.58 172.92,30.73 172.92,32.92C172.92,32.92 172.92,35.1 173.69,36.25C173.69,36.25 174.46,37.4 175.91,37.4Z" style="fill-rule:nonzero;"/>
        </g>
    </g>
    <g>
        <g transform="matrix(1,0,0,-1,0,400)">
            <rect x="180.95" y="28.61" width="1.22" height="1.46" style="fill-rule:nonzero;"/>
        </g>
    </g>
    <g>
        <g transform="matrix(1,0,0,-1,0,400)">
            <path d="M187.22,36.48C187.22,36.48 186.32,36.48 185.86,35.58C185.86,35.58 185.41,34.7 185.41,32.92C185.41,32.92 185.41,31.14 185.86,30.25C185.86,30.25 186.32,29.36 187.22,29.36C187.22,29.36 188.13,29.36 188.58,30.25C188.58,30.25 189.04,31.14 189.04,32.92C189.04,32.92 189.04,34.7 188.58,35.58C188.58,35.58 188.13,36.48 187.22,36.48M187.22,37.4C187.22,37.4 188.67,37.4 189.44,36.25C189.44,36.25 190.2,35.1 190.2,32.92C190.2,32.92 190.2,30.73 189.44,29.58C189.44,29.58 188.67,28.44 187.22,28.44C187.22,28.44 185.77,28.44 185,29.58C185,29.58 184.23,30.73 184.23,32.92C184.23,32.92 184.23,35.1 185,36.25C185,36.25 185.77,37.4 187.22,37.4Z" style="fill-rule:nonzero;"/>
        </g>
    </g>
    <g>
        <g transform="matrix(1,0,0,-1,0,400)">
            <path d="M192.46,29.59L194.37,29.59L194.37,36.18L192.29,35.76L192.29,36.83L194.36,37.25L195.53,37.25L195.53,29.59L197.44,29.59L197.44,28.61L192.46,28.61L192.46,29.59Z" style="fill-rule:nonzero;"/>
        </g>
    </g>
    <g>
        <g transform="matrix(1,0,0,-1,0,400)">
            <path d="M297.95,36.48C297.95,36.48 297.05,36.48 296.59,35.58C296.59,35.58 296.14,34.7 296.14,32.92C296.14,32.92 296.14,31.14 296.59,30.25C296.59,30.25 297.05,29.36 297.95,29.36C297.95,29.36 298.86,29.36 299.31,30.25C299.31,30.25 299.77,31.14 299.77,32.92C299.77,32.92 299.77,34.7 299.31,35.58C299.31,35.58 298.86,36.48 297.95,36.48M297.95,37.4C297.95,37.4 299.4,37.4 300.16,36.25C300.16,36.25 300.93,35.1 300.93,32.92C300.93,32.92 300.93,30.73 300.16,29.58C300.16,29.58 299.4,28.44 297.95,28.44C297.95,28.44 296.5,28.44 295.73,29.58C295.73,29.58 294.96,30.73 294.96,32.92C294.96,32.92 294.96,35.1 295.73,36.25C295.73,36.25 296.5,37.4 297.95,37.4Z" style="fill-rule:nonzero;"/>
        </g>
    </g>
    <g>
        <g transform="matrix(1,0,0,-1,0,400)">
            <rect x="302.99" y="28.61" width="1.22" height="1.46" style="fill-rule:nonzero;"/>
        </g>
    </g>
    <g>
        <g transform="matrix(1,0,0,-1,0,400)">
            <path d="M309.26,36.48C309.26,36.48 308.35,36.48 307.9,35.58C307.9,35.58 307.44,34.7 307.44,32.92C307.44,32.92 307.44,31.14 307.9,30.25C307.9,30.25 308.35,29.36 309.26,29.36C309.26,29.36 310.16,29.36 310.62,30.25C310.62,30.25 311.07,31.14 311.07,32.92C311.07,32.92 311.07,34.7 310.62,35.58C310.62,35.58 310.16,36.48 309.26,36.48M309.26,37.4C309.26,37.4 310.71,37.4 311.47,36.25C311.47,36.25 312.24,35.1 312.24,32.92C312.24,32.92 312.24,30.73 311.47,29.58C311.47,29.58 310.71,28.44 309.26,28.44C309.26,28.44 307.8,28.44 307.03,29.58C307.03,29.58 306.27,30.73 306.27,32.92C306.27,32.92 306.27,35.1 307.03,36.25C307.03,36.25 307.8,37.4 309.26,37.4Z" style="fill-rule:nonzero;"/>
        </g>
    </g>
    <g>
        <g transform="matrix(1,0,0,-1,0,400)">
            <path d="M315.3,29.59L319.38,29.59L319.38,28.61L313.9,28.61L313.9,29.59C313.9,29.59 314.56,30.28 315.71,31.43C315.71,31.43 316.86,32.6 317.16,32.93C317.16,32.93 317.72,33.56 317.94,34C317.94,34 318.16,34.44 318.16,34.86C318.16,34.86 318.16,35.55 317.68,35.98C317.68,35.98 317.2,36.42 316.42,36.42C316.42,36.42 315.87,36.42 315.26,36.23C315.26,36.23 314.65,36.04 313.96,35.65L313.96,36.83C313.96,36.83 314.66,37.11 315.27,37.26C315.27,37.26 315.89,37.4 316.4,37.4C316.4,37.4 317.74,37.4 318.54,36.73C318.54,36.73 319.34,36.06 319.34,34.94C319.34,34.94 319.34,34.4 319.13,33.92C319.13,33.92 318.94,33.45 318.41,32.8C318.41,32.8 318.27,32.63 317.49,31.83C317.49,31.83 316.72,31.03 315.3,29.59Z" style="fill-rule:nonzero;"/>
        </g>
    </g>
    <g>
        <g transform="matrix(1,0,0,-1,0,400)">
            <path d="M419.82,36.48C419.82,36.48 418.92,36.48 418.46,35.58C418.46,35.58 418.01,34.7 418.01,32.92C418.01,32.92 418.01,31.14 418.46,30.25C418.46,30.25 418.92,29.36 419.82,29.36C419.82,29.36 420.73,29.36 421.18,30.25C421.18,30.25 421.64,31.14 421.64,32.92C421.64,32.92 421.64,34.7 421.18,35.58C421.18,35.58 420.73,36.48 419.82,36.48M419.82,37.4C419.82,37.4 421.27,37.4 422.04,36.25C422.04,36.25 422.81,35.1 422.81,32.92C422.81,32.92 422.81,30.73 422.04,29.58C422.04,29.58 421.27,28.44 419.82,28.44C419.82,28.44 418.37,28.44 417.6,29.58C417.6,29.58 416.83,30.73 416.83,32.92C416.83,32.92 416.83,35.1 417.6,36.25C417.6,36.25 418.37,37.4 419.82,37.4Z" style="fill-rule:nonzero;"/>
        </g>
    </g>
    <g>
        <g transform="matrix(1,0,0,-1,0,400)">
            <rect x="424.86" y="28.61" width="1.22" height="1.46" style="fill-rule:nonzero;"/>
        </g>
    </g>
    <g>
        <g transform="matrix(1,0,0,-1,0,400)">
            <path d="M431.13,36.48C431.13,36.48 430.23,36.48 429.77,35.58C429.77,35.58 429.32,34.7 429.32,32.92C429.32,32.92 429.32,31.14 429.77,30.25C429.77,30.25 430.23,29.36 431.13,29.36C431.13,29.36 432.04,29.36 432.49,30.25C432.49,30.25 432.95,31.14 432.95,32.92C432.95,32.92 432.95,34.7 432.49,35.58C432.49,35.58 432.04,36.48 431.13,36.48M431.13,37.4C431.13,37.4 432.58,37.4 433.34,36.25C433.34,36.25 434.11,35.1 434.11,32.92C434.11,32.92 434.11,30.73 433.34,29.58C433.34,29.58 432.58,28.44 431.13,28.44C431.13,28.44 429.68,28.44 428.91,29.58C428.91,29.58 428.14,30.73 428.14,32.92C428.14,32.92 428.14,35.1 428.91,36.25C428.91,36.25 429.68,37.4 431.13,37.4Z" style="fill-rule:nonzero;"/>
        </g>
    </g>
    <g>
        <g transform="matrix(1,0,0,-1,0,400)">
            <path d="M439.71,33.26C439.71,33.26 440.55,33.08 441.02,32.52C441.02,32.52 441.49,31.95 441.49,31.12C441.49,31.12 441.49,29.84 440.61,29.14C440.61,29.14 439.73,28.44 438.11,28.44C438.11,28.44 437.57,28.44 436.99,28.55C436.99,28.55 436.42,28.65 435.8,28.87L435.8,29.99C435.8,29.99 436.29,29.71 436.87,29.57C436.87,29.57 437.45,29.42 438.08,29.42C438.08,29.42 439.18,29.42 439.75,29.86C439.75,29.86 440.33,30.29 440.33,31.12C440.33,31.12 440.33,31.88 439.79,32.31C439.79,32.31 439.26,32.74 438.3,32.74L437.3,32.74L437.3,33.7L438.35,33.7C438.35,33.7 439.21,33.7 439.67,34.04C439.67,34.04 440.13,34.39 440.13,35.04C440.13,35.04 440.13,35.71 439.65,36.06C439.65,36.06 439.18,36.42 438.3,36.42C438.3,36.42 437.82,36.42 437.27,36.31C437.27,36.31 436.72,36.21 436.06,35.99L436.06,37.03C436.06,37.03 436.73,37.22 437.31,37.31C437.31,37.31 437.89,37.4 438.41,37.4C438.41,37.4 439.74,37.4 440.51,36.79C440.51,36.79 441.29,36.19 441.29,35.16C441.29,35.16 441.29,34.44 440.88,33.95C440.88,33.95 440.47,33.45 439.71,33.26Z" style="fill-rule:nonzero;"/>
        </g>
    </g>
    <g>
        <g transform="matrix(1,0,0,-1,0,400)">
            <path d="M234.05,19.87L244.1,19.87L244.1,18.52L239.88,18.52L239.88,7.99L238.27,7.99L238.27,18.52L234.05,18.52L234.05,19.87Z" style="fill-rule:nonzero;"/>
        </g>
    </g>
    <g>
        <g transform="matrix(1,0,0,-1,0,400)">
            <path d="M245.09,16.9L246.55,16.9L246.55,7.99L245.09,7.99L245.09,16.9M245.09,20.37L246.55,20.37L246.55,18.52L245.09,18.52L245.09,20.37Z" style="fill-rule:nonzero;"/>
        </g>
    </g>
    <g>
        <g transform="matrix(1,0,0,-1,0,400)">
            <path d="M256.55,15.19C256.55,15.19 257.1,16.18 257.87,16.65C257.87,16.65 258.63,17.12 259.67,17.12C259.67,17.12 261.06,17.12 261.81,16.14C261.81,16.14 262.57,15.17 262.57,13.37L262.57,7.99L261.1,7.99L261.1,13.32C261.1,13.32 261.1,14.6 260.64,15.22C260.64,15.22 260.19,15.84 259.26,15.84C259.26,15.84 258.12,15.84 257.46,15.09C257.46,15.09 256.8,14.33 256.8,13.03L256.8,7.99L255.33,7.99L255.33,13.32C255.33,13.32 255.33,14.61 254.88,15.22C254.88,15.22 254.42,15.84 253.48,15.84C253.48,15.84 252.35,15.84 251.69,15.08C251.69,15.08 251.03,14.32 251.03,13.03L251.03,7.99L249.56,7.99L249.56,16.9L251.03,16.9L251.03,15.52C251.03,15.52 251.53,16.34 252.23,16.73C252.23,16.73 252.93,17.12 253.9,17.12C253.9,17.12 254.87,17.12 255.54,16.62C255.54,16.62 256.23,16.13 256.55,15.19Z" style="fill-rule:nonzero;"/>
        </g>
    </g>
    <g>
        <g transform="matrix(1,0,0,-1,0,400)">
            <path d="M273.11,12.81L273.11,12.09L266.38,12.09C266.38,12.09 266.48,10.58 267.29,9.79C267.29,9.79 268.11,9 269.56,9C269.56,9 270.41,9 271.2,9.21C271.2,9.21 271.99,9.41 272.77,9.83L272.77,8.44C272.77,8.44 271.98,8.11 271.16,7.93C271.16,7.93 270.33,7.76 269.48,7.76C269.48,7.76 267.34,7.76 266.1,9C266.1,9 264.85,10.24 264.85,12.36C264.85,12.36 264.85,14.55 266.03,15.83C266.03,15.83 267.22,17.12 269.22,17.12C269.22,17.12 271.02,17.12 272.06,15.95C272.06,15.95 273.11,14.8 273.11,12.81M271.65,13.24C271.65,13.24 271.63,14.44 270.97,15.16C270.97,15.16 270.32,15.87 269.24,15.87C269.24,15.87 268.01,15.87 267.27,15.18C267.27,15.18 266.54,14.49 266.43,13.23L271.65,13.24Z" style="fill-rule:nonzero;"/>
        </g>
    </g>
    <g>
        <g transform="matrix(1,0,0,-1,0,400)">
            <path d="M284.21,20.35C284.21,20.35 283.15,18.52 282.63,16.73C282.63,16.73 282.11,14.94 282.11,13.11C282.11,13.11 282.11,11.27 282.63,9.46C282.63,9.46 283.16,7.66 284.21,5.84L282.94,5.84C282.94,5.84 281.75,7.71 281.15,9.52C281.15,9.52 280.56,11.32 280.56,13.11C280.56,13.11 280.56,14.88 281.15,16.68C281.15,16.68 281.74,18.48 282.94,20.35L284.21,20.35Z" style="fill-rule:nonzero;"/>
        </g>
    </g>
    <g>
        <g transform="matrix(1,0,0,-1,0,400)">
            <path d="M292.74,16.64L292.74,15.25C292.74,15.25 292.12,15.57 291.45,15.73C291.45,15.73 290.78,15.89 290.06,15.89C290.06,15.89 288.97,15.89 288.42,15.56C288.42,15.56 287.88,15.22 287.88,14.55C287.88,14.55 287.88,14.04 288.27,13.75C288.27,13.75 288.66,13.46 289.84,13.2L290.34,13.09C290.34,13.09 291.9,12.76 292.55,12.14C292.55,12.14 293.21,11.54 293.21,10.45C293.21,10.45 293.21,9.21 292.23,8.48C292.23,8.48 291.25,7.76 289.53,7.76C289.53,7.76 288.81,7.76 288.03,7.9C288.03,7.9 287.26,8.04 286.4,8.32L286.4,9.83C286.4,9.83 287.21,9.41 288,9.19C288,9.19 288.79,8.98 289.56,8.98C289.56,8.98 290.6,8.98 291.15,9.33C291.15,9.33 291.71,9.69 291.71,10.34C291.71,10.34 291.71,10.93 291.3,11.25C291.3,11.25 290.91,11.57 289.55,11.86L289.04,11.98C289.04,11.98 287.68,12.27 287.07,12.86C287.07,12.86 286.47,13.46 286.47,14.49C286.47,14.49 286.47,15.75 287.36,16.43C287.36,16.43 288.25,17.12 289.89,17.12C289.89,17.12 290.7,17.12 291.41,17C291.41,17 292.13,16.88 292.74,16.64Z" style="fill-rule:nonzero;"/>
        </g>
    </g>
    <g>
        <g transform="matrix(1,0,0,-1,0,400)">
            <path d="M295.31,20.35L296.59,20.35C296.59,20.35 297.78,18.48 298.37,16.68C298.37,16.68 298.97,14.88 298.97,13.11C298.97,13.11 298.97,11.32 298.37,9.52C298.37,9.52 297.78,7.71 296.59,5.84L295.31,5.84C295.31,5.84 296.37,7.66 296.89,9.46C296.89,9.46 297.41,11.27 297.41,13.11C297.41,13.11 297.41,14.94 296.89,16.73C296.89,16.73 296.37,18.52 295.31,20.35Z" style="fill-rule:nonzero;"/>
        </g>
    </g>
    <g>
        <g transform="matrix(1,0,0,-1,0,400)">
            <path d="M63.19,44.21L63.19,388.19" style="fill:none;fill-rule:nonzero;stroke:black;stroke-width:1px;"/>
        </g>
    </g>
    <g>
        <g transform="matrix(1,0,0,-1,0,400)">
            <path d="M469.83,44.21L469.83,388.19" style="fill:none;fill-rule:nonzero;stroke:black;stroke-width:1px;"/>
        </g>
    </g>
    <g>
        <g transform="matrix(1,0,0,-1,0,400)">
            <path d="M63.19,44.21L66.85,44.21" style="fill:none;fill-rule:nonzero;stroke:black;stroke-width:1px;"/>
        </g>
    </g>
    <g>
        <g transform="matrix(1,0,0,-1,0,400)">
            <path d="M63.19,130.2L66.85,130.2" style="fill:none;fill-rule:nonzero;stroke:black;stroke-width:1px;"/>
        </g>
    </g>
    <g>
        <g transform="matrix(1,0,0,-1,0,400)">
            <path d="M63.19,216.2L66.85,216.2" style="fill:none;fill-rule:nonzero;stroke:black;stroke-width:1px;"/>
        </g>
    </g>
    <g>
        <g transform="matrix(1,0,0,-1,0,400)">
            <path d="M63.19,302.19L66.85,302.19" style="fill:none;fill-rule:nonzero;stroke:black;stroke-width:1px;"/>
        </g>
    </g>
    <g>
        <g transform="matrix(1,0,0,-1,0,400)">
            <path d="M63.19,388.19L66.85,388.19" style="fill:none;fill-rule:nonzero;stroke:black;stroke-width:1px;"/>
        </g>
    </g>
    <g>
        <g transform="matrix(1,0,0,-1,0,400)">
            <path d="M469.83,44.21L466.17,44.21" style="fill:none;fill-rule:nonzero;stroke:black;stroke-width:1px;"/>
        </g>
    </g>
    <g>
        <g transform="matrix(1,0,0,-1,0,400)">
            <path d="M469.83,130.2L466.17,130.2" style="fill:none;fill-rule:nonzero;stroke:black;stroke-width:1px;"/>
        </g>
    </g>
    <g>
        <g transform="matrix(1,0,0,-1,0,400)">
            <path d="M469.83,216.2L466.17,216.2" style="fill:none;fill-rule:nonzero;stroke:black;stroke-width:1px;"/>
        </g>
    </g>
    <g>
        <g transform="matrix(1,0,0,-1,0,400)">
            <path d="M469.83,302.19L466.17,302.19" style="fill:none;fill-rule:nonzero;stroke:black;stroke-width:1px;"/>
        </g>
    </g>
    <g>
        <g transform="matrix(1,0,0,-1,0,400)">
            <path d="M469.83,388.19L466.17,388.19" style="fill:none;fill-rule:nonzero;stroke:black;stroke-width:1px;"/>
        </g>
    </g>
    <g>
        <g transform="matrix(2.00313,0,0,-2.00313,-50.1328,530.241)">
            <path d="M28.8,125.25L30.71,125.25L30.71,131.84L28.63,131.43L28.63,132.49L30.7,132.91L31.87,132.91L31.87,125.25L33.78,125.25L33.78,124.27L28.8,124.27L28.8,125.25Z" style="fill-rule:nonzero;"/>
        </g>
    </g>
    <g>
        <g transform="matrix(2.00313,0,0,-2.00313,-50.1328,530.241)">
            <path d="M38.64,132.14C38.64,132.14 37.73,132.14 37.28,131.25C37.28,131.25 36.83,130.36 36.83,128.58C36.83,128.58 36.83,126.8 37.28,125.91C37.28,125.91 37.73,125.03 38.64,125.03C38.64,125.03 39.55,125.03 40,125.91C40,125.91 40.45,126.8 40.45,128.58C40.45,128.58 40.45,130.36 40,131.25C40,131.25 39.55,132.14 38.64,132.14M38.64,133.07C38.64,133.07 40.09,133.07 40.85,131.91C40.85,131.91 41.62,130.77 41.62,128.58C41.62,128.58 41.62,126.4 40.85,125.25C40.85,125.25 40.09,124.1 38.64,124.1C38.64,124.1 37.18,124.1 36.41,125.25C36.41,125.25 35.65,126.4 35.65,128.58C35.65,128.58 35.65,130.77 36.41,131.91C36.41,131.91 37.18,133.07 38.64,133.07Z" style="fill-rule:nonzero;"/>
        </g>
    </g>
    <g>
        <g transform="matrix(2.00313,0,0,-2.00313,-50.1328,530.241)">
            <rect x="41.62" y="133.74" width="6.03" height="0.8" style="fill-rule:nonzero;"/>
        </g>
    </g>
    <g>
        <g transform="matrix(2.00313,0,0,-2.00313,-50.1328,530.241)">
            <path d="M51.85,135.01C51.85,135.01 51.21,135.01 50.83,134.57C50.83,134.57 50.46,134.14 50.46,133.37C50.46,133.37 50.46,132.62 50.83,132.17C50.83,132.17 51.21,131.74 51.85,131.74C51.85,131.74 52.49,131.74 52.86,132.17C52.86,132.17 53.24,132.62 53.24,133.37C53.24,133.37 53.24,134.14 52.86,134.57C52.86,134.57 52.49,135.01 51.85,135.01M53.73,137.99L53.73,137.12C53.73,137.12 53.38,137.29 53.01,137.38C53.01,137.38 52.65,137.47 52.29,137.47C52.29,137.47 51.35,137.47 50.85,136.83C50.85,136.83 50.36,136.2 50.29,134.92C50.29,134.92 50.57,135.33 50.98,135.54C50.98,135.54 51.4,135.76 51.91,135.76C51.91,135.76 52.96,135.76 53.58,135.12C53.58,135.12 54.19,134.48 54.19,133.37C54.19,133.37 54.19,132.29 53.55,131.64C53.55,131.64 52.91,130.99 51.85,130.99C51.85,130.99 50.63,130.99 49.99,131.92C49.99,131.92 49.34,132.85 49.34,134.62C49.34,134.62 49.34,136.29 50.13,137.28C50.13,137.28 50.92,138.27 52.25,138.27C52.25,138.27 52.61,138.27 52.97,138.2C52.97,138.2 53.34,138.13 53.73,137.99Z" style="fill-rule:nonzero;"/>
        </g>
    </g>
    <g>
        <g transform="matrix(1.99844,0,0,-1.99844,-48.4685,619.488)">
            <path d="M28.73,211.25L30.64,211.25L30.64,217.84L28.57,217.42L28.57,218.49L30.63,218.91L31.8,218.91L31.8,211.25L33.71,211.25L33.71,210.27L28.73,210.27L28.73,211.25Z" style="fill-rule:nonzero;"/>
        </g>
    </g>
    <g>
        <g transform="matrix(1.99844,0,0,-1.99844,-48.4685,619.488)">
            <path d="M38.57,218.14C38.57,218.14 37.67,218.14 37.21,217.24C37.21,217.24 36.76,216.36 36.76,214.58C36.76,214.58 36.76,212.8 37.21,211.91C37.21,211.91 37.67,211.02 38.57,211.02C38.57,211.02 39.48,211.02 39.93,211.91C39.93,211.91 40.39,212.8 40.39,214.58C40.39,214.58 40.39,216.36 39.93,217.24C39.93,217.24 39.48,218.14 38.57,218.14M38.57,219.06C38.57,219.06 40.02,219.06 40.79,217.91C40.79,217.91 41.56,216.76 41.56,214.58C41.56,214.58 41.56,212.39 40.79,211.24C40.79,211.24 40.02,210.1 38.57,210.1C38.57,210.1 37.12,210.1 36.35,211.24C36.35,211.24 35.58,212.39 35.58,214.58C35.58,214.58 35.58,216.76 36.35,217.91C36.35,217.91 37.12,219.06 38.57,219.06Z" style="fill-rule:nonzero;"/>
        </g>
    </g>
    <g>
        <g transform="matrix(1.99844,0,0,-1.99844,-48.4685,619.488)">
            <rect x="41.56" y="219.74" width="6.02" height="0.8" style="fill-rule:nonzero;"/>
        </g>
    </g>
    <g>
        <g transform="matrix(1.99844,0,0,-1.99844,-48.4685,619.488)">
            <path d="M52.24,223.31L49.85,219.56L52.24,219.56L52.24,223.31M52,224.14L53.19,224.14L53.19,219.56L54.19,219.56L54.19,218.77L53.19,218.77L53.19,217.12L52.24,217.12L52.24,218.77L49.08,218.77L49.08,219.69L52,224.14Z" style="fill-rule:nonzero;"/>
        </g>
    </g>
    <g>
        <g transform="matrix(2,0,0,-2,-50.4672,701.715)">
            <path d="M29.16,297.24L31.07,297.24L31.07,303.84L28.99,303.42L28.99,304.48L31.05,304.9L32.22,304.9L32.22,297.24L34.13,297.24L34.13,296.26L29.16,296.26L29.16,297.24Z" style="fill-rule:nonzero;"/>
        </g>
    </g>
    <g>
        <g transform="matrix(2,0,0,-2,-50.4672,701.715)">
            <path d="M38.99,304.13C38.99,304.13 38.09,304.13 37.63,303.24C37.63,303.24 37.18,302.35 37.18,300.57C37.18,300.57 37.18,298.8 37.63,297.9C37.63,297.9 38.09,297.02 38.99,297.02C38.99,297.02 39.9,297.02 40.35,297.9C40.35,297.9 40.81,298.8 40.81,300.57C40.81,300.57 40.81,302.35 40.35,303.24C40.35,303.24 39.9,304.13 38.99,304.13M38.99,305.06C38.99,305.06 40.45,305.06 41.21,303.91C41.21,303.91 41.98,302.76 41.98,300.57C41.98,300.57 41.98,298.39 41.21,297.24C41.21,297.24 40.45,296.09 38.99,296.09C38.99,296.09 37.54,296.09 36.77,297.24C36.77,297.24 36.01,298.39 36.01,300.57C36.01,300.57 36.01,302.76 36.77,303.91C36.77,303.91 37.54,305.06 38.99,305.06Z" style="fill-rule:nonzero;"/>
        </g>
    </g>
    <g>
        <g transform="matrix(2,0,0,-2,-50.4672,701.715)">
            <rect x="41.98" y="305.73" width="6.03" height="0.8" style="fill-rule:nonzero;"/>
        </g>
    </g>
    <g>
        <g transform="matrix(2,0,0,-2,-50.4672,701.715)">
            <path d="M50.88,303.91L54.19,303.91L54.19,303.11L49.73,303.11L49.73,303.91C49.73,303.91 50.27,304.47 51.21,305.41C51.21,305.41 52.14,306.36 52.38,306.63C52.38,306.63 52.84,307.14 53.02,307.5C53.02,307.5 53.2,307.85 53.2,308.2C53.2,308.2 53.2,308.76 52.8,309.11C52.8,309.11 52.41,309.46 51.78,309.46C51.78,309.46 51.34,309.46 50.84,309.31C50.84,309.31 50.34,309.15 49.78,308.84L49.78,309.8C49.78,309.8 50.35,310.03 50.85,310.14C50.85,310.14 51.35,310.26 51.76,310.26C51.76,310.26 52.86,310.26 53.5,309.72C53.5,309.72 54.15,309.17 54.15,308.26C54.15,308.26 54.15,307.83 53.99,307.43C53.99,307.43 53.83,307.05 53.4,306.52C53.4,306.52 53.28,306.39 52.65,305.73C52.65,305.73 52.02,305.08 50.88,303.91Z" style="fill-rule:nonzero;"/>
        </g>
    </g>
    <g>
        <g transform="matrix(1.99552,0,0,-1.99552,-50.2494,793.161)">
            <path d="M36.51,383.24L38.42,383.24L38.42,389.83L36.35,389.42L36.35,390.48L38.41,390.9L39.58,390.9L39.58,383.24L41.49,383.24L41.49,382.26L36.51,382.26L36.51,383.24Z" style="fill-rule:nonzero;"/>
        </g>
    </g>
    <g>
        <g transform="matrix(1.99552,0,0,-1.99552,-50.2494,793.161)">
            <path d="M46.35,390.13C46.35,390.13 45.45,390.13 44.99,389.24C44.99,389.24 44.54,388.35 44.54,386.57C44.54,386.57 44.54,384.79 44.99,383.9C44.99,383.9 45.45,383.02 46.35,383.02C46.35,383.02 47.26,383.02 47.71,383.9C47.71,383.9 48.17,384.79 48.17,386.57C48.17,386.57 48.17,388.35 47.71,389.24C47.71,389.24 47.26,390.13 46.35,390.13M46.35,391.05C46.35,391.05 47.81,391.05 48.57,389.9C48.57,389.9 49.34,388.76 49.34,386.57C49.34,386.57 49.34,384.39 48.57,383.24C48.57,383.24 47.81,382.09 46.35,382.09C46.35,382.09 44.9,382.09 44.13,383.24C44.13,383.24 43.37,384.39 43.37,386.57C43.37,386.57 43.37,388.76 44.13,389.9C44.13,389.9 44.9,391.05 46.35,391.05Z" style="fill-rule:nonzero;"/>
        </g>
    </g>
    <g>
        <g transform="matrix(1.99552,0,0,-1.99552,-50.2494,793.161)">
            <path d="M51.76,395.5C51.76,395.5 51.03,395.5 50.66,394.78C50.66,394.78 50.29,394.06 50.29,392.61C50.29,392.61 50.29,391.17 50.66,390.45C50.66,390.45 51.03,389.73 51.76,389.73C51.76,389.73 52.5,389.73 52.87,390.45C52.87,390.45 53.24,391.17 53.24,392.61C53.24,392.61 53.24,394.06 52.87,394.78C52.87,394.78 52.5,395.5 51.76,395.5M51.76,396.26C51.76,396.26 52.94,396.26 53.57,395.32C53.57,395.32 54.19,394.39 54.19,392.61C54.19,392.61 54.19,390.84 53.57,389.9C53.57,389.9 52.94,388.97 51.76,388.97C51.76,388.97 50.58,388.97 49.96,389.9C49.96,389.9 49.34,390.84 49.34,392.61C49.34,392.61 49.34,394.39 49.96,395.32C49.96,395.32 50.58,396.26 51.76,396.26Z" style="fill-rule:nonzero;"/>
        </g>
    </g>
    <g>
        <g transform="matrix(1,0,0,-1,-0.869313,359.04)">
            <path d="M4.12,197.14L4.12,204.65L5.47,204.65L5.47,198.74L8.99,198.74L8.99,204.4L10.34,204.4L10.34,198.74L14.65,198.74L14.65,204.79L16,204.79L16,197.14L4.12,197.14Z" style="fill-rule:nonzero;"/>
        </g>
    </g>
    <g>
        <g transform="matrix(1,0,0,-1,-0.869313,359.04)">
            <path d="M8.46,212.53C8.46,212.53 8.31,212.29 8.25,211.99C8.25,211.99 8.18,211.71 8.18,211.36C8.18,211.36 8.18,210.11 8.99,209.45C8.99,209.45 9.79,208.78 11.31,208.78L16,208.78L16,207.31L7.09,207.31L7.09,208.78L8.47,208.78C8.47,208.78 7.66,209.25 7.27,209.99C7.27,209.99 6.87,210.73 6.87,211.78C6.87,211.78 6.87,211.94 6.9,212.12C6.9,212.12 6.91,212.3 6.95,212.52L8.46,212.53Z" style="fill-rule:nonzero;"/>
        </g>
    </g>
    <g>
        <g transform="matrix(1,0,0,-1,-0.869313,359.04)">
            <path d="M8.46,218.95C8.46,218.95 8.31,218.7 8.25,218.41C8.25,218.41 8.18,218.12 8.18,217.77C8.18,217.77 8.18,216.53 8.99,215.86C8.99,215.86 9.79,215.2 11.31,215.2L16,215.2L16,213.73L7.09,213.73L7.09,215.2L8.47,215.2C8.47,215.2 7.66,215.66 7.27,216.4C7.27,216.4 6.87,217.14 6.87,218.2C6.87,218.2 6.87,218.35 6.9,218.53C6.9,218.53 6.91,218.72 6.95,218.94L8.46,218.95Z" style="fill-rule:nonzero;"/>
        </g>
    </g>
    <g>
        <g transform="matrix(1,0,0,-1,-0.869313,359.04)">
            <path d="M8.12,223.58C8.12,223.58 8.12,222.4 9.04,221.72C9.04,221.72 9.95,221.03 11.55,221.03C11.55,221.03 13.15,221.03 14.08,221.71C14.08,221.71 14.99,222.39 14.99,223.58C14.99,223.58 14.99,224.75 14.07,225.43C14.07,225.43 13.14,226.12 11.55,226.12C11.55,226.12 9.97,226.12 9.05,225.43C9.05,225.43 8.12,224.75 8.12,223.58M6.87,223.58C6.87,223.58 6.87,225.49 8.12,226.58C8.12,226.58 9.36,227.67 11.55,227.67C11.55,227.67 13.74,227.67 14.99,226.58C14.99,226.58 16.23,225.49 16.23,223.58C16.23,223.58 16.23,221.66 14.99,220.57C14.99,220.57 13.74,219.49 11.55,219.49C11.55,219.49 9.36,219.49 8.12,220.57C8.12,220.57 6.87,221.66 6.87,223.58Z" style="fill-rule:nonzero;"/>
        </g>
    </g>
    <g>
        <g transform="matrix(1,0,0,-1,-0.869313,359.04)">
            <path d="M8.46,235.26C8.46,235.26 8.31,235.01 8.25,234.72C8.25,234.72 8.18,234.43 8.18,234.08C8.18,234.08 8.18,232.84 8.99,232.17C8.99,232.17 9.79,231.51 11.31,231.51L16,231.51L16,230.04L7.09,230.04L7.09,231.51L8.47,231.51C8.47,231.51 7.66,231.97 7.27,232.71C7.27,232.71 6.87,233.45 6.87,234.51C6.87,234.51 6.87,234.66 6.9,234.84C6.9,234.84 6.91,235.03 6.95,235.25L8.46,235.26Z" style="fill-rule:nonzero;"/>
        </g>
    </g>
    <g>
        <clipPath id="_clip19">
            <rect x="63.19" y="11.81" width="406.64" height="343.98"/>
        </clipPath>
        <g clip-path="url(#_clip19)">
            <g transform="matrix(1,0,0,-1,0,400)">
                <path d="M108.37,356.06L153.55,318.62L198.74,325.26L243.92,328.92L289.1,332.65L334.28,347.81L379.46,369.32L424.65,378.33L469.83,354.34" style="fill:none;fill-rule:nonzero;stroke:rgb(0,154,250);stroke-width:3px;"/>
            </g>
        </g>
    </g>
    <g>
        <g transform="matrix(1,0,0,-1,0,400)">
            <path d="M108.37,356.06L108.37,363.06" style="fill:none;fill-rule:nonzero;stroke:rgb(0,154,250);stroke-width:2.4px;"/>
        </g>
        <g transform="matrix(1,0,0,-1,0,400)">
            <path d="M108.37,356.06L101.37,356.06" style="fill:none;fill-rule:nonzero;stroke:rgb(0,154,250);stroke-width:2.4px;"/>
        </g>
        <g transform="matrix(1,0,0,-1,0,400)">
            <path d="M108.37,356.06L108.37,349.06" style="fill:none;fill-rule:nonzero;stroke:rgb(0,154,250);stroke-width:2.4px;"/>
        </g>
        <g transform="matrix(1,0,0,-1,0,400)">
            <path d="M108.37,356.06L115.37,356.06" style="fill:none;fill-rule:nonzero;stroke:rgb(0,154,250);stroke-width:2.4px;"/>
        </g>
    </g>
    <g>
        <g transform="matrix(1,0,0,-1,0,400)">
            <path d="M153.55,318.62L153.55,325.62" style="fill:none;fill-rule:nonzero;stroke:rgb(0,154,250);stroke-width:2.4px;"/>
        </g>
        <g transform="matrix(1,0,0,-1,0,400)">
            <path d="M153.55,318.62L146.55,318.62" style="fill:none;fill-rule:nonzero;stroke:rgb(0,154,250);stroke-width:2.4px;"/>
        </g>
        <g transform="matrix(1,0,0,-1,0,400)">
            <path d="M153.55,318.62L153.55,311.62" style="fill:none;fill-rule:nonzero;stroke:rgb(0,154,250);stroke-width:2.4px;"/>
        </g>
        <g transform="matrix(1,0,0,-1,0,400)">
            <path d="M153.55,318.62L160.55,318.62" style="fill:none;fill-rule:nonzero;stroke:rgb(0,154,250);stroke-width:2.4px;"/>
        </g>
    </g>
    <g>
        <g transform="matrix(1,0,0,-1,0,400)">
            <path d="M198.74,325.26L198.74,332.26" style="fill:none;fill-rule:nonzero;stroke:rgb(0,154,250);stroke-width:2.4px;"/>
        </g>
        <g transform="matrix(1,0,0,-1,0,400)">
            <path d="M198.74,325.26L191.74,325.26" style="fill:none;fill-rule:nonzero;stroke:rgb(0,154,250);stroke-width:2.4px;"/>
        </g>
        <g transform="matrix(1,0,0,-1,0,400)">
            <path d="M198.74,325.26L198.74,318.26" style="fill:none;fill-rule:nonzero;stroke:rgb(0,154,250);stroke-width:2.4px;"/>
        </g>
        <g transform="matrix(1,0,0,-1,0,400)">
            <path d="M198.74,325.26L205.74,325.26" style="fill:none;fill-rule:nonzero;stroke:rgb(0,154,250);stroke-width:2.4px;"/>
        </g>
    </g>
    <g>
        <g transform="matrix(1,0,0,-1,0,400)">
            <path d="M243.92,328.92L243.92,335.92" style="fill:none;fill-rule:nonzero;stroke:rgb(0,154,250);stroke-width:2.4px;"/>
        </g>
        <g transform="matrix(1,0,0,-1,0,400)">
            <path d="M243.92,328.92L236.92,328.92" style="fill:none;fill-rule:nonzero;stroke:rgb(0,154,250);stroke-width:2.4px;"/>
        </g>
        <g transform="matrix(1,0,0,-1,0,400)">
            <path d="M243.92,328.92L243.92,321.92" style="fill:none;fill-rule:nonzero;stroke:rgb(0,154,250);stroke-width:2.4px;"/>
        </g>
        <g transform="matrix(1,0,0,-1,0,400)">
            <path d="M243.92,328.92L250.92,328.92" style="fill:none;fill-rule:nonzero;stroke:rgb(0,154,250);stroke-width:2.4px;"/>
        </g>
    </g>
    <g>
        <g transform="matrix(1,0,0,-1,0,400)">
            <path d="M289.1,332.65L289.1,339.65" style="fill:none;fill-rule:nonzero;stroke:rgb(0,154,250);stroke-width:2.4px;"/>
        </g>
        <g transform="matrix(1,0,0,-1,0,400)">
            <path d="M289.1,332.65L282.1,332.65" style="fill:none;fill-rule:nonzero;stroke:rgb(0,154,250);stroke-width:2.4px;"/>
        </g>
        <g transform="matrix(1,0,0,-1,0,400)">
            <path d="M289.1,332.65L289.1,325.65" style="fill:none;fill-rule:nonzero;stroke:rgb(0,154,250);stroke-width:2.4px;"/>
        </g>
        <g transform="matrix(1,0,0,-1,0,400)">
            <path d="M289.1,332.65L296.1,332.65" style="fill:none;fill-rule:nonzero;stroke:rgb(0,154,250);stroke-width:2.4px;"/>
        </g>
    </g>
    <g>
        <g transform="matrix(1,0,0,-1,0,400)">
            <path d="M334.28,347.81L334.28,354.81" style="fill:none;fill-rule:nonzero;stroke:rgb(0,154,250);stroke-width:2.4px;"/>
        </g>
        <g transform="matrix(1,0,0,-1,0,400)">
            <path d="M334.28,347.81L327.28,347.81" style="fill:none;fill-rule:nonzero;stroke:rgb(0,154,250);stroke-width:2.4px;"/>
        </g>
        <g transform="matrix(1,0,0,-1,0,400)">
            <path d="M334.28,347.81L334.28,340.81" style="fill:none;fill-rule:nonzero;stroke:rgb(0,154,250);stroke-width:2.4px;"/>
        </g>
        <g transform="matrix(1,0,0,-1,0,400)">
            <path d="M334.28,347.81L341.28,347.81" style="fill:none;fill-rule:nonzero;stroke:rgb(0,154,250);stroke-width:2.4px;"/>
        </g>
    </g>
    <g>
        <g transform="matrix(1,0,0,-1,0,400)">
            <path d="M379.46,369.32L379.46,376.32" style="fill:none;fill-rule:nonzero;stroke:rgb(0,154,250);stroke-width:2.4px;"/>
        </g>
        <g transform="matrix(1,0,0,-1,0,400)">
            <path d="M379.46,369.32L372.46,369.32" style="fill:none;fill-rule:nonzero;stroke:rgb(0,154,250);stroke-width:2.4px;"/>
        </g>
        <g transform="matrix(1,0,0,-1,0,400)">
            <path d="M379.46,369.32L379.46,362.32" style="fill:none;fill-rule:nonzero;stroke:rgb(0,154,250);stroke-width:2.4px;"/>
        </g>
        <g transform="matrix(1,0,0,-1,0,400)">
            <path d="M379.46,369.32L386.46,369.32" style="fill:none;fill-rule:nonzero;stroke:rgb(0,154,250);stroke-width:2.4px;"/>
        </g>
    </g>
    <g>
        <g transform="matrix(1,0,0,-1,0,400)">
            <path d="M424.65,378.33L424.65,385.33" style="fill:none;fill-rule:nonzero;stroke:rgb(0,154,250);stroke-width:2.4px;"/>
        </g>
        <g transform="matrix(1,0,0,-1,0,400)">
            <path d="M424.65,378.33L417.65,378.33" style="fill:none;fill-rule:nonzero;stroke:rgb(0,154,250);stroke-width:2.4px;"/>
        </g>
        <g transform="matrix(1,0,0,-1,0,400)">
            <path d="M424.65,378.33L424.65,371.33" style="fill:none;fill-rule:nonzero;stroke:rgb(0,154,250);stroke-width:2.4px;"/>
        </g>
        <g transform="matrix(1,0,0,-1,0,400)">
            <path d="M424.65,378.33L431.65,378.33" style="fill:none;fill-rule:nonzero;stroke:rgb(0,154,250);stroke-width:2.4px;"/>
        </g>
    </g>
    <g>
        <clipPath id="_clip20">
            <rect x="63.19" y="11.81" width="406.64" height="343.98"/>
        </clipPath>
        <g clip-path="url(#_clip20)">
            <g transform="matrix(1,0,0,-1,0,400)">
                <path d="M469.83,354.34L469.83,361.34" style="fill:none;fill-rule:nonzero;stroke:rgb(0,154,250);stroke-width:2.4px;"/>
            </g>
            <g transform="matrix(1,0,0,-1,0,400)">
                <path d="M469.83,354.34L462.83,354.34" style="fill:none;fill-rule:nonzero;stroke:rgb(0,154,250);stroke-width:2.4px;"/>
            </g>
            <g transform="matrix(1,0,0,-1,0,400)">
                <path d="M469.83,354.34L469.83,347.34" style="fill:none;fill-rule:nonzero;stroke:rgb(0,154,250);stroke-width:2.4px;"/>
            </g>
            <g transform="matrix(1,0,0,-1,0,400)">
                <path d="M469.83,354.34L476.83,354.34" style="fill:none;fill-rule:nonzero;stroke:rgb(0,154,250);stroke-width:2.4px;"/>
            </g>
        </g>
    </g>
    <g>
        <clipPath id="_clip21">
            <rect x="63.19" y="11.81" width="406.64" height="343.98"/>
        </clipPath>
        <g clip-path="url(#_clip21)">
            <g transform="matrix(1,0,0,-1,0,400)">
                <path d="M108.37,221.87L153.55,259.9L198.74,277.19L243.92,269.87L289.1,300.38L334.28,323.17L379.46,316.2L424.65,293.86L469.83,293.92" style="fill:none;fill-rule:nonzero;stroke:rgb(227,111,71);stroke-width:3px;"/>
            </g>
        </g>
    </g>
    <g>
        <g transform="matrix(1,0,0,-1,0,400)">
            <path d="M108.37,221.87L108.37,228.87" style="fill:none;fill-rule:nonzero;stroke:rgb(227,111,71);stroke-width:2.4px;"/>
        </g>
        <g transform="matrix(1,0,0,-1,0,400)">
            <path d="M108.37,221.87L101.37,221.87" style="fill:none;fill-rule:nonzero;stroke:rgb(227,111,71);stroke-width:2.4px;"/>
        </g>
        <g transform="matrix(1,0,0,-1,0,400)">
            <path d="M108.37,221.87L108.37,214.87" style="fill:none;fill-rule:nonzero;stroke:rgb(227,111,71);stroke-width:2.4px;"/>
        </g>
        <g transform="matrix(1,0,0,-1,0,400)">
            <path d="M108.37,221.87L115.37,221.87" style="fill:none;fill-rule:nonzero;stroke:rgb(227,111,71);stroke-width:2.4px;"/>
        </g>
    </g>
    <g>
        <g transform="matrix(1,0,0,-1,0,400)">
            <path d="M153.55,259.9L153.55,266.9" style="fill:none;fill-rule:nonzero;stroke:rgb(227,111,71);stroke-width:2.4px;"/>
        </g>
        <g transform="matrix(1,0,0,-1,0,400)">
            <path d="M153.55,259.9L146.55,259.9" style="fill:none;fill-rule:nonzero;stroke:rgb(227,111,71);stroke-width:2.4px;"/>
        </g>
        <g transform="matrix(1,0,0,-1,0,400)">
            <path d="M153.55,259.9L153.55,252.9" style="fill:none;fill-rule:nonzero;stroke:rgb(227,111,71);stroke-width:2.4px;"/>
        </g>
        <g transform="matrix(1,0,0,-1,0,400)">
            <path d="M153.55,259.9L160.55,259.9" style="fill:none;fill-rule:nonzero;stroke:rgb(227,111,71);stroke-width:2.4px;"/>
        </g>
    </g>
    <g>
        <g transform="matrix(1,0,0,-1,0,400)">
            <path d="M198.74,277.19L198.74,284.19" style="fill:none;fill-rule:nonzero;stroke:rgb(227,111,71);stroke-width:2.4px;"/>
        </g>
        <g transform="matrix(1,0,0,-1,0,400)">
            <path d="M198.74,277.19L191.74,277.19" style="fill:none;fill-rule:nonzero;stroke:rgb(227,111,71);stroke-width:2.4px;"/>
        </g>
        <g transform="matrix(1,0,0,-1,0,400)">
            <path d="M198.74,277.19L198.74,270.19" style="fill:none;fill-rule:nonzero;stroke:rgb(227,111,71);stroke-width:2.4px;"/>
        </g>
        <g transform="matrix(1,0,0,-1,0,400)">
            <path d="M198.74,277.19L205.74,277.19" style="fill:none;fill-rule:nonzero;stroke:rgb(227,111,71);stroke-width:2.4px;"/>
        </g>
    </g>
    <g>
        <g transform="matrix(1,0,0,-1,0,400)">
            <path d="M243.92,269.87L243.92,276.87" style="fill:none;fill-rule:nonzero;stroke:rgb(227,111,71);stroke-width:2.4px;"/>
        </g>
        <g transform="matrix(1,0,0,-1,0,400)">
            <path d="M243.92,269.87L236.92,269.87" style="fill:none;fill-rule:nonzero;stroke:rgb(227,111,71);stroke-width:2.4px;"/>
        </g>
        <g transform="matrix(1,0,0,-1,0,400)">
            <path d="M243.92,269.87L243.92,262.87" style="fill:none;fill-rule:nonzero;stroke:rgb(227,111,71);stroke-width:2.4px;"/>
        </g>
        <g transform="matrix(1,0,0,-1,0,400)">
            <path d="M243.92,269.87L250.92,269.87" style="fill:none;fill-rule:nonzero;stroke:rgb(227,111,71);stroke-width:2.4px;"/>
        </g>
    </g>
    <g>
        <g transform="matrix(1,0,0,-1,0,400)">
            <path d="M289.1,300.38L289.1,307.38" style="fill:none;fill-rule:nonzero;stroke:rgb(227,111,71);stroke-width:2.4px;"/>
        </g>
        <g transform="matrix(1,0,0,-1,0,400)">
            <path d="M289.1,300.38L282.1,300.38" style="fill:none;fill-rule:nonzero;stroke:rgb(227,111,71);stroke-width:2.4px;"/>
        </g>
        <g transform="matrix(1,0,0,-1,0,400)">
            <path d="M289.1,300.38L289.1,293.38" style="fill:none;fill-rule:nonzero;stroke:rgb(227,111,71);stroke-width:2.4px;"/>
        </g>
        <g transform="matrix(1,0,0,-1,0,400)">
            <path d="M289.1,300.38L296.1,300.38" style="fill:none;fill-rule:nonzero;stroke:rgb(227,111,71);stroke-width:2.4px;"/>
        </g>
    </g>
    <g>
        <g transform="matrix(1,0,0,-1,0,400)">
            <path d="M334.28,323.17L334.28,330.17" style="fill:none;fill-rule:nonzero;stroke:rgb(227,111,71);stroke-width:2.4px;"/>
        </g>
        <g transform="matrix(1,0,0,-1,0,400)">
            <path d="M334.28,323.17L327.28,323.17" style="fill:none;fill-rule:nonzero;stroke:rgb(227,111,71);stroke-width:2.4px;"/>
        </g>
        <g transform="matrix(1,0,0,-1,0,400)">
            <path d="M334.28,323.17L334.28,316.17" style="fill:none;fill-rule:nonzero;stroke:rgb(227,111,71);stroke-width:2.4px;"/>
        </g>
        <g transform="matrix(1,0,0,-1,0,400)">
            <path d="M334.28,323.17L341.28,323.17" style="fill:none;fill-rule:nonzero;stroke:rgb(227,111,71);stroke-width:2.4px;"/>
        </g>
    </g>
    <g>
        <g transform="matrix(1,0,0,-1,0,400)">
            <path d="M379.46,316.2L379.46,323.2" style="fill:none;fill-rule:nonzero;stroke:rgb(227,111,71);stroke-width:2.4px;"/>
        </g>
        <g transform="matrix(1,0,0,-1,0,400)">
            <path d="M379.46,316.2L372.46,316.2" style="fill:none;fill-rule:nonzero;stroke:rgb(227,111,71);stroke-width:2.4px;"/>
        </g>
        <g transform="matrix(1,0,0,-1,0,400)">
            <path d="M379.46,316.2L379.46,309.2" style="fill:none;fill-rule:nonzero;stroke:rgb(227,111,71);stroke-width:2.4px;"/>
        </g>
        <g transform="matrix(1,0,0,-1,0,400)">
            <path d="M379.46,316.2L386.46,316.2" style="fill:none;fill-rule:nonzero;stroke:rgb(227,111,71);stroke-width:2.4px;"/>
        </g>
    </g>
    <g>
        <g transform="matrix(1,0,0,-1,0,400)">
            <path d="M424.65,293.86L424.65,300.86" style="fill:none;fill-rule:nonzero;stroke:rgb(227,111,71);stroke-width:2.4px;"/>
        </g>
        <g transform="matrix(1,0,0,-1,0,400)">
            <path d="M424.65,293.86L417.65,293.86" style="fill:none;fill-rule:nonzero;stroke:rgb(227,111,71);stroke-width:2.4px;"/>
        </g>
        <g transform="matrix(1,0,0,-1,0,400)">
            <path d="M424.65,293.86L424.65,286.86" style="fill:none;fill-rule:nonzero;stroke:rgb(227,111,71);stroke-width:2.4px;"/>
        </g>
        <g transform="matrix(1,0,0,-1,0,400)">
            <path d="M424.65,293.86L431.65,293.86" style="fill:none;fill-rule:nonzero;stroke:rgb(227,111,71);stroke-width:2.4px;"/>
        </g>
    </g>
    <g>
        <clipPath id="_clip22">
            <rect x="63.19" y="11.81" width="406.64" height="343.98"/>
        </clipPath>
        <g clip-path="url(#_clip22)">
            <g transform="matrix(1,0,0,-1,0,400)">
                <path d="M469.83,293.92L469.83,300.92" style="fill:none;fill-rule:nonzero;stroke:rgb(227,111,71);stroke-width:2.4px;"/>
            </g>
            <g transform="matrix(1,0,0,-1,0,400)">
                <path d="M469.83,293.92L462.83,293.92" style="fill:none;fill-rule:nonzero;stroke:rgb(227,111,71);stroke-width:2.4px;"/>
            </g>
            <g transform="matrix(1,0,0,-1,0,400)">
                <path d="M469.83,293.92L469.83,286.92" style="fill:none;fill-rule:nonzero;stroke:rgb(227,111,71);stroke-width:2.4px;"/>
            </g>
            <g transform="matrix(1,0,0,-1,0,400)">
                <path d="M469.83,293.92L476.83,293.92" style="fill:none;fill-rule:nonzero;stroke:rgb(227,111,71);stroke-width:2.4px;"/>
            </g>
        </g>
    </g>
    <g>
        <clipPath id="_clip23">
            <rect x="63.19" y="11.81" width="406.64" height="343.98"/>
        </clipPath>
        <g clip-path="url(#_clip23)">
            <g transform="matrix(1,0,0,-1,0,400)">
                <path d="M108.37,147.64L153.55,195.95L198.74,231.59L243.92,223.66L289.1,272.77L334.28,257.26L379.46,290.47L424.65,261.82L469.83,293.78" style="fill:none;fill-rule:nonzero;stroke:rgb(62,164,78);stroke-width:3px;"/>
            </g>
        </g>
    </g>
    <g>
        <g transform="matrix(1,0,0,-1,0,400)">
            <path d="M108.37,147.64L108.37,154.64" style="fill:none;fill-rule:nonzero;stroke:rgb(62,164,78);stroke-width:2.4px;"/>
        </g>
        <g transform="matrix(1,0,0,-1,0,400)">
            <path d="M108.37,147.64L101.37,147.64" style="fill:none;fill-rule:nonzero;stroke:rgb(62,164,78);stroke-width:2.4px;"/>
        </g>
        <g transform="matrix(1,0,0,-1,0,400)">
            <path d="M108.37,147.64L108.37,140.64" style="fill:none;fill-rule:nonzero;stroke:rgb(62,164,78);stroke-width:2.4px;"/>
        </g>
        <g transform="matrix(1,0,0,-1,0,400)">
            <path d="M108.37,147.64L115.37,147.64" style="fill:none;fill-rule:nonzero;stroke:rgb(62,164,78);stroke-width:2.4px;"/>
        </g>
    </g>
    <g>
        <g transform="matrix(1,0,0,-1,0,400)">
            <path d="M153.55,195.95L153.55,202.95" style="fill:none;fill-rule:nonzero;stroke:rgb(62,164,78);stroke-width:2.4px;"/>
        </g>
        <g transform="matrix(1,0,0,-1,0,400)">
            <path d="M153.55,195.95L146.55,195.95" style="fill:none;fill-rule:nonzero;stroke:rgb(62,164,78);stroke-width:2.4px;"/>
        </g>
        <g transform="matrix(1,0,0,-1,0,400)">
            <path d="M153.55,195.95L153.55,188.95" style="fill:none;fill-rule:nonzero;stroke:rgb(62,164,78);stroke-width:2.4px;"/>
        </g>
        <g transform="matrix(1,0,0,-1,0,400)">
            <path d="M153.55,195.95L160.55,195.95" style="fill:none;fill-rule:nonzero;stroke:rgb(62,164,78);stroke-width:2.4px;"/>
        </g>
    </g>
    <g>
        <g transform="matrix(1,0,0,-1,0,400)">
            <path d="M198.74,231.59L198.74,238.59" style="fill:none;fill-rule:nonzero;stroke:rgb(62,164,78);stroke-width:2.4px;"/>
        </g>
        <g transform="matrix(1,0,0,-1,0,400)">
            <path d="M198.74,231.59L191.74,231.59" style="fill:none;fill-rule:nonzero;stroke:rgb(62,164,78);stroke-width:2.4px;"/>
        </g>
        <g transform="matrix(1,0,0,-1,0,400)">
            <path d="M198.74,231.59L198.74,224.59" style="fill:none;fill-rule:nonzero;stroke:rgb(62,164,78);stroke-width:2.4px;"/>
        </g>
        <g transform="matrix(1,0,0,-1,0,400)">
            <path d="M198.74,231.59L205.74,231.59" style="fill:none;fill-rule:nonzero;stroke:rgb(62,164,78);stroke-width:2.4px;"/>
        </g>
    </g>
    <g>
        <g transform="matrix(1,0,0,-1,0,400)">
            <path d="M243.92,223.66L243.92,230.66" style="fill:none;fill-rule:nonzero;stroke:rgb(62,164,78);stroke-width:2.4px;"/>
        </g>
        <g transform="matrix(1,0,0,-1,0,400)">
            <path d="M243.92,223.66L236.92,223.66" style="fill:none;fill-rule:nonzero;stroke:rgb(62,164,78);stroke-width:2.4px;"/>
        </g>
        <g transform="matrix(1,0,0,-1,0,400)">
            <path d="M243.92,223.66L243.92,216.66" style="fill:none;fill-rule:nonzero;stroke:rgb(62,164,78);stroke-width:2.4px;"/>
        </g>
        <g transform="matrix(1,0,0,-1,0,400)">
            <path d="M243.92,223.66L250.92,223.66" style="fill:none;fill-rule:nonzero;stroke:rgb(62,164,78);stroke-width:2.4px;"/>
        </g>
    </g>
    <g>
        <g transform="matrix(1,0,0,-1,0,400)">
            <path d="M289.1,272.77L289.1,279.77" style="fill:none;fill-rule:nonzero;stroke:rgb(62,164,78);stroke-width:2.4px;"/>
        </g>
        <g transform="matrix(1,0,0,-1,0,400)">
            <path d="M289.1,272.77L282.1,272.77" style="fill:none;fill-rule:nonzero;stroke:rgb(62,164,78);stroke-width:2.4px;"/>
        </g>
        <g transform="matrix(1,0,0,-1,0,400)">
            <path d="M289.1,272.77L289.1,265.77" style="fill:none;fill-rule:nonzero;stroke:rgb(62,164,78);stroke-width:2.4px;"/>
        </g>
        <g transform="matrix(1,0,0,-1,0,400)">
            <path d="M289.1,272.77L296.1,272.77" style="fill:none;fill-rule:nonzero;stroke:rgb(62,164,78);stroke-width:2.4px;"/>
        </g>
    </g>
    <g>
        <g transform="matrix(1,0,0,-1,0,400)">
            <path d="M334.28,257.26L334.28,264.26" style="fill:none;fill-rule:nonzero;stroke:rgb(62,164,78);stroke-width:2.4px;"/>
        </g>
        <g transform="matrix(1,0,0,-1,0,400)">
            <path d="M334.28,257.26L327.28,257.26" style="fill:none;fill-rule:nonzero;stroke:rgb(62,164,78);stroke-width:2.4px;"/>
        </g>
        <g transform="matrix(1,0,0,-1,0,400)">
            <path d="M334.28,257.26L334.28,250.26" style="fill:none;fill-rule:nonzero;stroke:rgb(62,164,78);stroke-width:2.4px;"/>
        </g>
        <g transform="matrix(1,0,0,-1,0,400)">
            <path d="M334.28,257.26L341.28,257.26" style="fill:none;fill-rule:nonzero;stroke:rgb(62,164,78);stroke-width:2.4px;"/>
        </g>
    </g>
    <g>
        <g transform="matrix(1,0,0,-1,0,400)">
            <path d="M379.46,290.47L379.46,297.47" style="fill:none;fill-rule:nonzero;stroke:rgb(62,164,78);stroke-width:2.4px;"/>
        </g>
        <g transform="matrix(1,0,0,-1,0,400)">
            <path d="M379.46,290.47L372.46,290.47" style="fill:none;fill-rule:nonzero;stroke:rgb(62,164,78);stroke-width:2.4px;"/>
        </g>
        <g transform="matrix(1,0,0,-1,0,400)">
            <path d="M379.46,290.47L379.46,283.47" style="fill:none;fill-rule:nonzero;stroke:rgb(62,164,78);stroke-width:2.4px;"/>
        </g>
        <g transform="matrix(1,0,0,-1,0,400)">
            <path d="M379.46,290.47L386.46,290.47" style="fill:none;fill-rule:nonzero;stroke:rgb(62,164,78);stroke-width:2.4px;"/>
        </g>
    </g>
    <g>
        <g transform="matrix(1,0,0,-1,0,400)">
            <path d="M424.65,261.82L424.65,268.82" style="fill:none;fill-rule:nonzero;stroke:rgb(62,164,78);stroke-width:2.4px;"/>
        </g>
        <g transform="matrix(1,0,0,-1,0,400)">
            <path d="M424.65,261.82L417.65,261.82" style="fill:none;fill-rule:nonzero;stroke:rgb(62,164,78);stroke-width:2.4px;"/>
        </g>
        <g transform="matrix(1,0,0,-1,0,400)">
            <path d="M424.65,261.82L424.65,254.82" style="fill:none;fill-rule:nonzero;stroke:rgb(62,164,78);stroke-width:2.4px;"/>
        </g>
        <g transform="matrix(1,0,0,-1,0,400)">
            <path d="M424.65,261.82L431.65,261.82" style="fill:none;fill-rule:nonzero;stroke:rgb(62,164,78);stroke-width:2.4px;"/>
        </g>
    </g>
    <g>
        <clipPath id="_clip24">
            <rect x="63.19" y="11.81" width="406.64" height="343.98"/>
        </clipPath>
        <g clip-path="url(#_clip24)">
            <g transform="matrix(1,0,0,-1,0,400)">
                <path d="M469.83,293.78L469.83,300.78" style="fill:none;fill-rule:nonzero;stroke:rgb(62,164,78);stroke-width:2.4px;"/>
            </g>
            <g transform="matrix(1,0,0,-1,0,400)">
                <path d="M469.83,293.78L462.83,293.78" style="fill:none;fill-rule:nonzero;stroke:rgb(62,164,78);stroke-width:2.4px;"/>
            </g>
            <g transform="matrix(1,0,0,-1,0,400)">
                <path d="M469.83,293.78L469.83,286.78" style="fill:none;fill-rule:nonzero;stroke:rgb(62,164,78);stroke-width:2.4px;"/>
            </g>
            <g transform="matrix(1,0,0,-1,0,400)">
                <path d="M469.83,293.78L476.83,293.78" style="fill:none;fill-rule:nonzero;stroke:rgb(62,164,78);stroke-width:2.4px;"/>
            </g>
        </g>
    </g>
    <g>
        <clipPath id="_clip25">
            <rect x="63.19" y="11.81" width="406.64" height="343.98"/>
        </clipPath>
        <g clip-path="url(#_clip25)">
            <g transform="matrix(1,0,0,-1,0,400)">
                <path d="M108.37,105.11L153.55,152.47L198.74,172.86L243.92,200.5L289.1,201.62L334.28,216.84L379.46,224.6L424.65,229.06L469.83,229.19" style="fill:none;fill-rule:nonzero;stroke:rgb(195,113,210);stroke-width:3px;"/>
            </g>
        </g>
    </g>
    <g>
        <g transform="matrix(1,0,0,-1,0,400)">
            <path d="M108.37,105.11L108.37,112.11" style="fill:none;fill-rule:nonzero;stroke:rgb(195,113,210);stroke-width:2.4px;"/>
        </g>
        <g transform="matrix(1,0,0,-1,0,400)">
            <path d="M108.37,105.11L101.37,105.11" style="fill:none;fill-rule:nonzero;stroke:rgb(195,113,210);stroke-width:2.4px;"/>
        </g>
        <g transform="matrix(1,0,0,-1,0,400)">
            <path d="M108.37,105.11L108.37,98.11" style="fill:none;fill-rule:nonzero;stroke:rgb(195,113,210);stroke-width:2.4px;"/>
        </g>
        <g transform="matrix(1,0,0,-1,0,400)">
            <path d="M108.37,105.11L115.37,105.11" style="fill:none;fill-rule:nonzero;stroke:rgb(195,113,210);stroke-width:2.4px;"/>
        </g>
    </g>
    <g>
        <g transform="matrix(1,0,0,-1,0,400)">
            <path d="M153.55,152.47L153.55,159.47" style="fill:none;fill-rule:nonzero;stroke:rgb(195,113,210);stroke-width:2.4px;"/>
        </g>
        <g transform="matrix(1,0,0,-1,0,400)">
            <path d="M153.55,152.47L146.55,152.47" style="fill:none;fill-rule:nonzero;stroke:rgb(195,113,210);stroke-width:2.4px;"/>
        </g>
        <g transform="matrix(1,0,0,-1,0,400)">
            <path d="M153.55,152.47L153.55,145.47" style="fill:none;fill-rule:nonzero;stroke:rgb(195,113,210);stroke-width:2.4px;"/>
        </g>
        <g transform="matrix(1,0,0,-1,0,400)">
            <path d="M153.55,152.47L160.55,152.47" style="fill:none;fill-rule:nonzero;stroke:rgb(195,113,210);stroke-width:2.4px;"/>
        </g>
    </g>
    <g>
        <g transform="matrix(1,0,0,-1,0,400)">
            <path d="M198.74,172.86L198.74,179.86" style="fill:none;fill-rule:nonzero;stroke:rgb(195,113,210);stroke-width:2.4px;"/>
        </g>
        <g transform="matrix(1,0,0,-1,0,400)">
            <path d="M198.74,172.86L191.74,172.86" style="fill:none;fill-rule:nonzero;stroke:rgb(195,113,210);stroke-width:2.4px;"/>
        </g>
        <g transform="matrix(1,0,0,-1,0,400)">
            <path d="M198.74,172.86L198.74,165.86" style="fill:none;fill-rule:nonzero;stroke:rgb(195,113,210);stroke-width:2.4px;"/>
        </g>
        <g transform="matrix(1,0,0,-1,0,400)">
            <path d="M198.74,172.86L205.74,172.86" style="fill:none;fill-rule:nonzero;stroke:rgb(195,113,210);stroke-width:2.4px;"/>
        </g>
    </g>
    <g>
        <g transform="matrix(1,0,0,-1,0,400)">
            <path d="M243.92,200.5L243.92,207.5" style="fill:none;fill-rule:nonzero;stroke:rgb(195,113,210);stroke-width:2.4px;"/>
        </g>
        <g transform="matrix(1,0,0,-1,0,400)">
            <path d="M243.92,200.5L236.92,200.5" style="fill:none;fill-rule:nonzero;stroke:rgb(195,113,210);stroke-width:2.4px;"/>
        </g>
        <g transform="matrix(1,0,0,-1,0,400)">
            <path d="M243.92,200.5L243.92,193.5" style="fill:none;fill-rule:nonzero;stroke:rgb(195,113,210);stroke-width:2.4px;"/>
        </g>
        <g transform="matrix(1,0,0,-1,0,400)">
            <path d="M243.92,200.5L250.92,200.5" style="fill:none;fill-rule:nonzero;stroke:rgb(195,113,210);stroke-width:2.4px;"/>
        </g>
    </g>
    <g>
        <g transform="matrix(1,0,0,-1,0,400)">
            <path d="M289.1,201.62L289.1,208.62" style="fill:none;fill-rule:nonzero;stroke:rgb(195,113,210);stroke-width:2.4px;"/>
        </g>
        <g transform="matrix(1,0,0,-1,0,400)">
            <path d="M289.1,201.62L282.1,201.62" style="fill:none;fill-rule:nonzero;stroke:rgb(195,113,210);stroke-width:2.4px;"/>
        </g>
        <g transform="matrix(1,0,0,-1,0,400)">
            <path d="M289.1,201.62L289.1,194.62" style="fill:none;fill-rule:nonzero;stroke:rgb(195,113,210);stroke-width:2.4px;"/>
        </g>
        <g transform="matrix(1,0,0,-1,0,400)">
            <path d="M289.1,201.62L296.1,201.62" style="fill:none;fill-rule:nonzero;stroke:rgb(195,113,210);stroke-width:2.4px;"/>
        </g>
    </g>
    <g>
        <g transform="matrix(1,0,0,-1,0,400)">
            <path d="M334.28,216.84L334.28,223.84" style="fill:none;fill-rule:nonzero;stroke:rgb(195,113,210);stroke-width:2.4px;"/>
        </g>
        <g transform="matrix(1,0,0,-1,0,400)">
            <path d="M334.28,216.84L327.28,216.84" style="fill:none;fill-rule:nonzero;stroke:rgb(195,113,210);stroke-width:2.4px;"/>
        </g>
        <g transform="matrix(1,0,0,-1,0,400)">
            <path d="M334.28,216.84L334.28,209.84" style="fill:none;fill-rule:nonzero;stroke:rgb(195,113,210);stroke-width:2.4px;"/>
        </g>
        <g transform="matrix(1,0,0,-1,0,400)">
            <path d="M334.28,216.84L341.28,216.84" style="fill:none;fill-rule:nonzero;stroke:rgb(195,113,210);stroke-width:2.4px;"/>
        </g>
    </g>
    <g>
        <g transform="matrix(1,0,0,-1,0,400)">
            <path d="M379.46,224.6L379.46,231.6" style="fill:none;fill-rule:nonzero;stroke:rgb(195,113,210);stroke-width:2.4px;"/>
        </g>
        <g transform="matrix(1,0,0,-1,0,400)">
            <path d="M379.46,224.6L372.46,224.6" style="fill:none;fill-rule:nonzero;stroke:rgb(195,113,210);stroke-width:2.4px;"/>
        </g>
        <g transform="matrix(1,0,0,-1,0,400)">
            <path d="M379.46,224.6L379.46,217.6" style="fill:none;fill-rule:nonzero;stroke:rgb(195,113,210);stroke-width:2.4px;"/>
        </g>
        <g transform="matrix(1,0,0,-1,0,400)">
            <path d="M379.46,224.6L386.46,224.6" style="fill:none;fill-rule:nonzero;stroke:rgb(195,113,210);stroke-width:2.4px;"/>
        </g>
    </g>
    <g>
        <g transform="matrix(1,0,0,-1,0,400)">
            <path d="M424.65,229.06L424.65,236.06" style="fill:none;fill-rule:nonzero;stroke:rgb(195,113,210);stroke-width:2.4px;"/>
        </g>
        <g transform="matrix(1,0,0,-1,0,400)">
            <path d="M424.65,229.06L417.65,229.06" style="fill:none;fill-rule:nonzero;stroke:rgb(195,113,210);stroke-width:2.4px;"/>
        </g>
        <g transform="matrix(1,0,0,-1,0,400)">
            <path d="M424.65,229.06L424.65,222.06" style="fill:none;fill-rule:nonzero;stroke:rgb(195,113,210);stroke-width:2.4px;"/>
        </g>
        <g transform="matrix(1,0,0,-1,0,400)">
            <path d="M424.65,229.06L431.65,229.06" style="fill:none;fill-rule:nonzero;stroke:rgb(195,113,210);stroke-width:2.4px;"/>
        </g>
    </g>
    <g>
        <clipPath id="_clip26">
            <rect x="63.19" y="11.81" width="406.64" height="343.98"/>
        </clipPath>
        <g clip-path="url(#_clip26)">
            <g transform="matrix(1,0,0,-1,0,400)">
                <path d="M469.83,229.19L469.83,236.19" style="fill:none;fill-rule:nonzero;stroke:rgb(195,113,210);stroke-width:2.4px;"/>
            </g>
            <g transform="matrix(1,0,0,-1,0,400)">
                <path d="M469.83,229.19L462.83,229.19" style="fill:none;fill-rule:nonzero;stroke:rgb(195,113,210);stroke-width:2.4px;"/>
            </g>
            <g transform="matrix(1,0,0,-1,0,400)">
                <path d="M469.83,229.19L469.83,222.19" style="fill:none;fill-rule:nonzero;stroke:rgb(195,113,210);stroke-width:2.4px;"/>
            </g>
            <g transform="matrix(1,0,0,-1,0,400)">
                <path d="M469.83,229.19L476.83,229.19" style="fill:none;fill-rule:nonzero;stroke:rgb(195,113,210);stroke-width:2.4px;"/>
            </g>
        </g>
    </g>
    <g>
        <clipPath id="_clip27">
            <rect x="63.19" y="11.81" width="406.64" height="343.98"/>
        </clipPath>
        <g clip-path="url(#_clip27)">
            <g transform="matrix(1,0,0,-1,0,400)">
                <path d="M108.37,81.76L153.55,142.32L198.74,145.9L243.92,179.25L289.1,187.96L334.28,186.06L379.46,193.64L424.65,206.89L469.83,205.65" style="fill:none;fill-rule:nonzero;stroke:rgb(172,142,24);stroke-width:3px;"/>
            </g>
        </g>
    </g>
    <g>
        <g transform="matrix(1,0,0,-1,0,400)">
            <path d="M108.37,81.76L108.37,88.76" style="fill:none;fill-rule:nonzero;stroke:rgb(172,142,24);stroke-width:2.4px;"/>
        </g>
        <g transform="matrix(1,0,0,-1,0,400)">
            <path d="M108.37,81.76L101.37,81.76" style="fill:none;fill-rule:nonzero;stroke:rgb(172,142,24);stroke-width:2.4px;"/>
        </g>
        <g transform="matrix(1,0,0,-1,0,400)">
            <path d="M108.37,81.76L108.37,74.76" style="fill:none;fill-rule:nonzero;stroke:rgb(172,142,24);stroke-width:2.4px;"/>
        </g>
        <g transform="matrix(1,0,0,-1,0,400)">
            <path d="M108.37,81.76L115.37,81.76" style="fill:none;fill-rule:nonzero;stroke:rgb(172,142,24);stroke-width:2.4px;"/>
        </g>
    </g>
    <g>
        <g transform="matrix(1,0,0,-1,0,400)">
            <path d="M153.55,142.32L153.55,149.32" style="fill:none;fill-rule:nonzero;stroke:rgb(172,142,24);stroke-width:2.4px;"/>
        </g>
        <g transform="matrix(1,0,0,-1,0,400)">
            <path d="M153.55,142.32L146.55,142.32" style="fill:none;fill-rule:nonzero;stroke:rgb(172,142,24);stroke-width:2.4px;"/>
        </g>
        <g transform="matrix(1,0,0,-1,0,400)">
            <path d="M153.55,142.32L153.55,135.32" style="fill:none;fill-rule:nonzero;stroke:rgb(172,142,24);stroke-width:2.4px;"/>
        </g>
        <g transform="matrix(1,0,0,-1,0,400)">
            <path d="M153.55,142.32L160.55,142.32" style="fill:none;fill-rule:nonzero;stroke:rgb(172,142,24);stroke-width:2.4px;"/>
        </g>
    </g>
    <g>
        <g transform="matrix(1,0,0,-1,0,400)">
            <path d="M198.74,145.9L198.74,152.9" style="fill:none;fill-rule:nonzero;stroke:rgb(172,142,24);stroke-width:2.4px;"/>
        </g>
        <g transform="matrix(1,0,0,-1,0,400)">
            <path d="M198.74,145.9L191.74,145.9" style="fill:none;fill-rule:nonzero;stroke:rgb(172,142,24);stroke-width:2.4px;"/>
        </g>
        <g transform="matrix(1,0,0,-1,0,400)">
            <path d="M198.74,145.9L198.74,138.9" style="fill:none;fill-rule:nonzero;stroke:rgb(172,142,24);stroke-width:2.4px;"/>
        </g>
        <g transform="matrix(1,0,0,-1,0,400)">
            <path d="M198.74,145.9L205.74,145.9" style="fill:none;fill-rule:nonzero;stroke:rgb(172,142,24);stroke-width:2.4px;"/>
        </g>
    </g>
    <g>
        <g transform="matrix(1,0,0,-1,0,400)">
            <path d="M243.92,179.25L243.92,186.25" style="fill:none;fill-rule:nonzero;stroke:rgb(172,142,24);stroke-width:2.4px;"/>
        </g>
        <g transform="matrix(1,0,0,-1,0,400)">
            <path d="M243.92,179.25L236.92,179.25" style="fill:none;fill-rule:nonzero;stroke:rgb(172,142,24);stroke-width:2.4px;"/>
        </g>
        <g transform="matrix(1,0,0,-1,0,400)">
            <path d="M243.92,179.25L243.92,172.25" style="fill:none;fill-rule:nonzero;stroke:rgb(172,142,24);stroke-width:2.4px;"/>
        </g>
        <g transform="matrix(1,0,0,-1,0,400)">
            <path d="M243.92,179.25L250.92,179.25" style="fill:none;fill-rule:nonzero;stroke:rgb(172,142,24);stroke-width:2.4px;"/>
        </g>
    </g>
    <g>
        <g transform="matrix(1,0,0,-1,0,400)">
            <path d="M289.1,187.96L289.1,194.96" style="fill:none;fill-rule:nonzero;stroke:rgb(172,142,24);stroke-width:2.4px;"/>
        </g>
        <g transform="matrix(1,0,0,-1,0,400)">
            <path d="M289.1,187.96L282.1,187.96" style="fill:none;fill-rule:nonzero;stroke:rgb(172,142,24);stroke-width:2.4px;"/>
        </g>
        <g transform="matrix(1,0,0,-1,0,400)">
            <path d="M289.1,187.96L289.1,180.96" style="fill:none;fill-rule:nonzero;stroke:rgb(172,142,24);stroke-width:2.4px;"/>
        </g>
        <g transform="matrix(1,0,0,-1,0,400)">
            <path d="M289.1,187.96L296.1,187.96" style="fill:none;fill-rule:nonzero;stroke:rgb(172,142,24);stroke-width:2.4px;"/>
        </g>
    </g>
    <g>
        <g transform="matrix(1,0,0,-1,0,400)">
            <path d="M334.28,186.06L334.28,193.06" style="fill:none;fill-rule:nonzero;stroke:rgb(172,142,24);stroke-width:2.4px;"/>
        </g>
        <g transform="matrix(1,0,0,-1,0,400)">
            <path d="M334.28,186.06L327.28,186.06" style="fill:none;fill-rule:nonzero;stroke:rgb(172,142,24);stroke-width:2.4px;"/>
        </g>
        <g transform="matrix(1,0,0,-1,0,400)">
            <path d="M334.28,186.06L334.28,179.06" style="fill:none;fill-rule:nonzero;stroke:rgb(172,142,24);stroke-width:2.4px;"/>
        </g>
        <g transform="matrix(1,0,0,-1,0,400)">
            <path d="M334.28,186.06L341.28,186.06" style="fill:none;fill-rule:nonzero;stroke:rgb(172,142,24);stroke-width:2.4px;"/>
        </g>
    </g>
    <g>
        <g transform="matrix(1,0,0,-1,0,400)">
            <path d="M379.46,193.64L379.46,200.64" style="fill:none;fill-rule:nonzero;stroke:rgb(172,142,24);stroke-width:2.4px;"/>
        </g>
        <g transform="matrix(1,0,0,-1,0,400)">
            <path d="M379.46,193.64L372.46,193.64" style="fill:none;fill-rule:nonzero;stroke:rgb(172,142,24);stroke-width:2.4px;"/>
        </g>
        <g transform="matrix(1,0,0,-1,0,400)">
            <path d="M379.46,193.64L379.46,186.64" style="fill:none;fill-rule:nonzero;stroke:rgb(172,142,24);stroke-width:2.4px;"/>
        </g>
        <g transform="matrix(1,0,0,-1,0,400)">
            <path d="M379.46,193.64L386.46,193.64" style="fill:none;fill-rule:nonzero;stroke:rgb(172,142,24);stroke-width:2.4px;"/>
        </g>
    </g>
    <g>
        <g transform="matrix(1,0,0,-1,0,400)">
            <path d="M424.65,206.89L424.65,213.89" style="fill:none;fill-rule:nonzero;stroke:rgb(172,142,24);stroke-width:2.4px;"/>
        </g>
        <g transform="matrix(1,0,0,-1,0,400)">
            <path d="M424.65,206.89L417.65,206.89" style="fill:none;fill-rule:nonzero;stroke:rgb(172,142,24);stroke-width:2.4px;"/>
        </g>
        <g transform="matrix(1,0,0,-1,0,400)">
            <path d="M424.65,206.89L424.65,199.89" style="fill:none;fill-rule:nonzero;stroke:rgb(172,142,24);stroke-width:2.4px;"/>
        </g>
        <g transform="matrix(1,0,0,-1,0,400)">
            <path d="M424.65,206.89L431.65,206.89" style="fill:none;fill-rule:nonzero;stroke:rgb(172,142,24);stroke-width:2.4px;"/>
        </g>
    </g>
    <g>
        <clipPath id="_clip28">
            <rect x="63.19" y="11.81" width="406.64" height="343.98"/>
        </clipPath>
        <g clip-path="url(#_clip28)">
            <g transform="matrix(1,0,0,-1,0,400)">
                <path d="M469.83,205.65L469.83,212.65" style="fill:none;fill-rule:nonzero;stroke:rgb(172,142,24);stroke-width:2.4px;"/>
            </g>
            <g transform="matrix(1,0,0,-1,0,400)">
                <path d="M469.83,205.65L462.83,205.65" style="fill:none;fill-rule:nonzero;stroke:rgb(172,142,24);stroke-width:2.4px;"/>
            </g>
            <g transform="matrix(1,0,0,-1,0,400)">
                <path d="M469.83,205.65L469.83,198.65" style="fill:none;fill-rule:nonzero;stroke:rgb(172,142,24);stroke-width:2.4px;"/>
            </g>
            <g transform="matrix(1,0,0,-1,0,400)">
                <path d="M469.83,205.65L476.83,205.65" style="fill:none;fill-rule:nonzero;stroke:rgb(172,142,24);stroke-width:2.4px;"/>
            </g>
        </g>
    </g>
    <g>
        <g transform="matrix(1,0,0,-1,0,400)">
            <path d="M487.33,172.33L588.19,172.33L588.19,250.09L487.33,250.09" style="fill:white;"/>
        </g>
    </g>
    <g>
        <g transform="matrix(1,0,0,-1,0,400)">
            <path d="M487.33,172.33L588.19,172.33L588.19,250.09L487.33,250.09L487.33,172.33" style="fill:none;fill-rule:nonzero;stroke:black;stroke-width:1px;"/>
        </g>
    </g>
    <g>
        <g transform="matrix(1,0,0,-1,0,400)">
            <path d="M493.16,237.13L528.16,237.13" style="fill:none;fill-rule:nonzero;stroke:rgb(0,154,250);stroke-width:3px;"/>
        </g>
    </g>
    <g>
        <g transform="matrix(1,0,0,-1,0,400)">
            <path d="M510.66,237.13L510.66,242.53" style="fill:none;fill-rule:nonzero;stroke:rgb(0,154,250);stroke-width:2.4px;"/>
        </g>
        <g transform="matrix(1,0,0,-1,0,400)">
            <path d="M510.66,237.13L505.26,237.13" style="fill:none;fill-rule:nonzero;stroke:rgb(0,154,250);stroke-width:2.4px;"/>
        </g>
        <g transform="matrix(1,0,0,-1,0,400)">
            <path d="M510.66,237.13L510.66,231.73" style="fill:none;fill-rule:nonzero;stroke:rgb(0,154,250);stroke-width:2.4px;"/>
        </g>
        <g transform="matrix(1,0,0,-1,0,400)">
            <path d="M510.66,237.13L516.06,237.13" style="fill:none;fill-rule:nonzero;stroke:rgb(0,154,250);stroke-width:2.4px;"/>
        </g>
    </g>
    <g>
        <g transform="matrix(1,0,0,-1,0,400)">
            <path d="M533.99,241.45L535.74,241.45L537.94,235.57L540.16,241.45L541.9,241.45L541.9,232.81L540.76,232.81L540.76,240.4L538.53,234.47L537.36,234.47L535.13,240.4L535.13,232.81L533.99,232.81L533.99,241.45Z" style="fill-rule:nonzero;"/>
        </g>
    </g>
    <g>
        <g transform="matrix(1,0,0,-1,0,400)">
            <path d="M548.08,238.19L555.5,238.19L555.5,237.22L548.08,237.22L548.08,238.19M548.08,235.83L555.5,235.83L555.5,234.85L548.08,234.85L548.08,235.83Z" style="fill-rule:nonzero;"/>
        </g>
    </g>
    <g>
        <g transform="matrix(1,0,0,-1,0,400)">
            <path d="M562.8,233.79L566.88,233.79L566.88,232.81L561.39,232.81L561.39,233.79C561.39,233.79 562.05,234.48 563.2,235.64C563.2,235.64 564.35,236.8 564.65,237.14C564.65,237.14 565.21,237.77 565.43,238.2C565.43,238.2 565.65,238.64 565.65,239.07C565.65,239.07 565.65,239.76 565.17,240.19C565.17,240.19 564.69,240.62 563.91,240.62C563.91,240.62 563.36,240.62 562.75,240.43C562.75,240.43 562.14,240.24 561.45,239.85L561.45,241.03C561.45,241.03 562.15,241.32 562.77,241.46C562.77,241.46 563.38,241.61 563.89,241.61C563.89,241.61 565.23,241.61 566.03,240.94C566.03,240.94 566.83,240.26 566.83,239.14C566.83,239.14 566.83,238.61 566.63,238.13C566.63,238.13 566.43,237.65 565.9,237.01C565.9,237.01 565.76,236.84 564.98,236.03C564.98,236.03 564.21,235.24 562.8,233.79Z" style="fill-rule:nonzero;"/>
        </g>
    </g>
    <g>
        <g transform="matrix(1,0,0,-1,0,400)">
            <path d="M571.83,240.68C571.83,240.68 570.93,240.68 570.47,239.79C570.47,239.79 570.02,238.9 570.02,237.12C570.02,237.12 570.02,235.35 570.47,234.45C570.47,234.45 570.93,233.57 571.83,233.57C571.83,233.57 572.74,233.57 573.19,234.45C573.19,234.45 573.65,235.35 573.65,237.12C573.65,237.12 573.65,238.9 573.19,239.79C573.19,239.79 572.74,240.68 571.83,240.68M571.83,241.61C571.83,241.61 573.28,241.61 574.05,240.46C574.05,240.46 574.82,239.31 574.82,237.12C574.82,237.12 574.82,234.94 574.05,233.79C574.05,233.79 573.28,232.64 571.83,232.64C571.83,232.64 570.38,232.64 569.61,233.79C569.61,233.79 568.84,234.94 568.84,237.12C568.84,237.12 568.84,239.31 569.61,240.46C569.61,240.46 570.38,241.61 571.83,241.61Z" style="fill-rule:nonzero;"/>
        </g>
    </g>
    <g>
        <g transform="matrix(1,0,0,-1,0,400)">
            <path d="M493.16,224.17L528.16,224.17" style="fill:none;fill-rule:nonzero;stroke:rgb(227,111,71);stroke-width:3px;"/>
        </g>
    </g>
    <g>
        <g transform="matrix(1,0,0,-1,0,400)">
            <path d="M510.66,224.17L510.66,229.57" style="fill:none;fill-rule:nonzero;stroke:rgb(227,111,71);stroke-width:2.4px;"/>
        </g>
        <g transform="matrix(1,0,0,-1,0,400)">
            <path d="M510.66,224.17L505.26,224.17" style="fill:none;fill-rule:nonzero;stroke:rgb(227,111,71);stroke-width:2.4px;"/>
        </g>
        <g transform="matrix(1,0,0,-1,0,400)">
            <path d="M510.66,224.17L510.66,218.77" style="fill:none;fill-rule:nonzero;stroke:rgb(227,111,71);stroke-width:2.4px;"/>
        </g>
        <g transform="matrix(1,0,0,-1,0,400)">
            <path d="M510.66,224.17L516.06,224.17" style="fill:none;fill-rule:nonzero;stroke:rgb(227,111,71);stroke-width:2.4px;"/>
        </g>
    </g>
    <g>
        <g transform="matrix(1,0,0,-1,0,400)">
            <path d="M533.99,228.49L535.74,228.49L537.94,222.61L540.16,228.49L541.9,228.49L541.9,219.85L540.76,219.85L540.76,227.44L538.53,221.51L537.36,221.51L535.13,227.44L535.13,219.85L533.99,219.85L533.99,228.49Z" style="fill-rule:nonzero;"/>
        </g>
    </g>
    <g>
        <g transform="matrix(1,0,0,-1,0,400)">
            <path d="M548.08,225.23L555.5,225.23L555.5,224.26L548.08,224.26L548.08,225.23M548.08,222.87L555.5,222.87L555.5,221.89L548.08,221.89L548.08,222.87Z" style="fill-rule:nonzero;"/>
        </g>
    </g>
    <g>
        <g transform="matrix(1,0,0,-1,0,400)">
            <path d="M561.8,228.49L566.39,228.49L566.39,227.51L562.87,227.51L562.87,225.39C562.87,225.39 563.13,225.48 563.38,225.52C563.38,225.52 563.63,225.56 563.89,225.56C563.89,225.56 565.34,225.56 566.18,224.77C566.18,224.77 567.03,223.98 567.03,222.62C567.03,222.62 567.03,221.23 566.16,220.45C566.16,220.45 565.29,219.68 563.71,219.68C563.71,219.68 563.17,219.68 562.6,219.78C562.6,219.78 562.04,219.87 561.44,220.05L561.44,221.23C561.44,221.23 561.96,220.94 562.51,220.81C562.51,220.81 563.07,220.67 563.69,220.67C563.69,220.67 564.69,220.67 565.27,221.19C565.27,221.19 565.86,221.72 565.86,222.62C565.86,222.62 565.86,223.53 565.27,224.05C565.27,224.05 564.69,224.58 563.69,224.58C563.69,224.58 563.22,224.58 562.75,224.47C562.75,224.47 562.29,224.37 561.8,224.15L561.8,228.49Z" style="fill-rule:nonzero;"/>
        </g>
    </g>
    <g>
        <g transform="matrix(1,0,0,-1,0,400)">
            <path d="M571.83,227.72C571.83,227.72 570.93,227.72 570.47,226.83C570.47,226.83 570.02,225.94 570.02,224.16C570.02,224.16 570.02,222.39 570.47,221.49C570.47,221.49 570.93,220.61 571.83,220.61C571.83,220.61 572.74,220.61 573.19,221.49C573.19,221.49 573.65,222.39 573.65,224.16C573.65,224.16 573.65,225.94 573.19,226.83C573.19,226.83 572.74,227.72 571.83,227.72M571.83,228.65C571.83,228.65 573.28,228.65 574.05,227.5C574.05,227.5 574.82,226.35 574.82,224.16C574.82,224.16 574.82,221.98 574.05,220.83C574.05,220.83 573.28,219.68 571.83,219.68C571.83,219.68 570.38,219.68 569.61,220.83C569.61,220.83 568.84,221.98 568.84,224.16C568.84,224.16 568.84,226.35 569.61,227.5C569.61,227.5 570.38,228.65 571.83,228.65Z" style="fill-rule:nonzero;"/>
        </g>
    </g>
    <g>
        <g transform="matrix(1,0,0,-1,0,400)">
            <path d="M493.16,211.21L528.16,211.21" style="fill:none;fill-rule:nonzero;stroke:rgb(62,164,78);stroke-width:3px;"/>
        </g>
    </g>
    <g>
        <g transform="matrix(1,0,0,-1,0,400)">
            <path d="M510.66,211.21L510.66,216.61" style="fill:none;fill-rule:nonzero;stroke:rgb(62,164,78);stroke-width:2.4px;"/>
        </g>
        <g transform="matrix(1,0,0,-1,0,400)">
            <path d="M510.66,211.21L505.26,211.21" style="fill:none;fill-rule:nonzero;stroke:rgb(62,164,78);stroke-width:2.4px;"/>
        </g>
        <g transform="matrix(1,0,0,-1,0,400)">
            <path d="M510.66,211.21L510.66,205.81" style="fill:none;fill-rule:nonzero;stroke:rgb(62,164,78);stroke-width:2.4px;"/>
        </g>
        <g transform="matrix(1,0,0,-1,0,400)">
            <path d="M510.66,211.21L516.06,211.21" style="fill:none;fill-rule:nonzero;stroke:rgb(62,164,78);stroke-width:2.4px;"/>
        </g>
    </g>
    <g>
        <g transform="matrix(1,0,0,-1,0,400)">
            <path d="M533.99,215.53L535.74,215.53L537.94,209.65L540.16,215.53L541.9,215.53L541.9,206.89L540.76,206.89L540.76,214.48L538.53,208.55L537.36,208.55L535.13,214.48L535.13,206.89L533.99,206.89L533.99,215.53Z" style="fill-rule:nonzero;"/>
        </g>
    </g>
    <g>
        <g transform="matrix(1,0,0,-1,0,400)">
            <path d="M548.08,212.27L555.5,212.27L555.5,211.3L548.08,211.3L548.08,212.27M548.08,209.91L555.5,209.91L555.5,208.93L548.08,208.93L548.08,209.91Z" style="fill-rule:nonzero;"/>
        </g>
    </g>
    <g>
        <g transform="matrix(1,0,0,-1,0,400)">
            <path d="M561.99,207.87L563.9,207.87L563.9,214.47L561.82,214.05L561.82,215.11L563.89,215.53L565.06,215.53L565.06,207.87L566.97,207.87L566.97,206.89L561.99,206.89L561.99,207.87Z" style="fill-rule:nonzero;"/>
        </g>
    </g>
    <g>
        <g transform="matrix(1,0,0,-1,0,400)">
            <path d="M571.83,214.76C571.83,214.76 570.93,214.76 570.47,213.87C570.47,213.87 570.02,212.98 570.02,211.2C570.02,211.2 570.02,209.43 570.47,208.53C570.47,208.53 570.93,207.65 571.83,207.65C571.83,207.65 572.74,207.65 573.19,208.53C573.19,208.53 573.65,209.43 573.65,211.2C573.65,211.2 573.65,212.98 573.19,213.87C573.19,213.87 572.74,214.76 571.83,214.76M571.83,215.69C571.83,215.69 573.28,215.69 574.05,214.54C574.05,214.54 574.82,213.39 574.82,211.2C574.82,211.2 574.82,209.02 574.05,207.87C574.05,207.87 573.28,206.72 571.83,206.72C571.83,206.72 570.38,206.72 569.61,207.87C569.61,207.87 568.84,209.02 568.84,211.2C568.84,211.2 568.84,213.39 569.61,214.54C569.61,214.54 570.38,215.69 571.83,215.69Z" style="fill-rule:nonzero;"/>
        </g>
    </g>
    <g>
        <g transform="matrix(1,0,0,-1,0,400)">
            <path d="M579.37,214.76C579.37,214.76 578.47,214.76 578.01,213.87C578.01,213.87 577.56,212.98 577.56,211.2C577.56,211.2 577.56,209.43 578.01,208.53C578.01,208.53 578.47,207.65 579.37,207.65C579.37,207.65 580.28,207.65 580.73,208.53C580.73,208.53 581.19,209.43 581.19,211.2C581.19,211.2 581.19,212.98 580.73,213.87C580.73,213.87 580.28,214.76 579.37,214.76M579.37,215.69C579.37,215.69 580.82,215.69 581.59,214.54C581.59,214.54 582.36,213.39 582.36,211.2C582.36,211.2 582.36,209.02 581.59,207.87C581.59,207.87 580.82,206.72 579.37,206.72C579.37,206.72 577.92,206.72 577.15,207.87C577.15,207.87 576.38,209.02 576.38,211.2C576.38,211.2 576.38,213.39 577.15,214.54C577.15,214.54 577.92,215.69 579.37,215.69Z" style="fill-rule:nonzero;"/>
        </g>
    </g>
    <g>
        <g transform="matrix(1,0,0,-1,0,400)">
            <path d="M493.16,198.25L528.16,198.25" style="fill:none;fill-rule:nonzero;stroke:rgb(195,113,210);stroke-width:3px;"/>
        </g>
    </g>
    <g>
        <g transform="matrix(1,0,0,-1,0,400)">
            <path d="M510.66,198.25L510.66,203.65" style="fill:none;fill-rule:nonzero;stroke:rgb(195,113,210);stroke-width:2.4px;"/>
        </g>
        <g transform="matrix(1,0,0,-1,0,400)">
            <path d="M510.66,198.25L505.26,198.25" style="fill:none;fill-rule:nonzero;stroke:rgb(195,113,210);stroke-width:2.4px;"/>
        </g>
        <g transform="matrix(1,0,0,-1,0,400)">
            <path d="M510.66,198.25L510.66,192.85" style="fill:none;fill-rule:nonzero;stroke:rgb(195,113,210);stroke-width:2.4px;"/>
        </g>
        <g transform="matrix(1,0,0,-1,0,400)">
            <path d="M510.66,198.25L516.06,198.25" style="fill:none;fill-rule:nonzero;stroke:rgb(195,113,210);stroke-width:2.4px;"/>
        </g>
    </g>
    <g>
        <g transform="matrix(1,0,0,-1,0,400)">
            <path d="M533.99,202.57L535.74,202.57L537.94,196.69L540.16,202.57L541.9,202.57L541.9,193.93L540.76,193.93L540.76,201.52L538.53,195.59L537.36,195.59L535.13,201.52L535.13,193.93L533.99,193.93L533.99,202.57Z" style="fill-rule:nonzero;"/>
        </g>
    </g>
    <g>
        <g transform="matrix(1,0,0,-1,0,400)">
            <path d="M548.08,199.31L555.5,199.31L555.5,198.34L548.08,198.34L548.08,199.31M548.08,196.95L555.5,196.95L555.5,195.97L548.08,195.97L548.08,196.95Z" style="fill-rule:nonzero;"/>
        </g>
    </g>
    <g>
        <g transform="matrix(1,0,0,-1,0,400)">
            <path d="M561.99,194.91L563.9,194.91L563.9,201.51L561.82,201.09L561.82,202.15L563.89,202.57L565.06,202.57L565.06,194.91L566.97,194.91L566.97,193.93L561.99,193.93L561.99,194.91Z" style="fill-rule:nonzero;"/>
        </g>
    </g>
    <g>
        <g transform="matrix(1,0,0,-1,0,400)">
            <path d="M569.34,202.57L573.93,202.57L573.93,201.59L570.41,201.59L570.41,199.47C570.41,199.47 570.67,199.56 570.92,199.6C570.92,199.6 571.18,199.64 571.43,199.64C571.43,199.64 572.88,199.64 573.72,198.85C573.72,198.85 574.57,198.06 574.57,196.7C574.57,196.7 574.57,195.31 573.7,194.53C573.7,194.53 572.83,193.76 571.25,193.76C571.25,193.76 570.71,193.76 570.14,193.86C570.14,193.86 569.58,193.95 568.98,194.13L568.98,195.31C568.98,195.31 569.5,195.02 570.05,194.89C570.05,194.89 570.61,194.75 571.23,194.75C571.23,194.75 572.23,194.75 572.81,195.27C572.81,195.27 573.4,195.8 573.4,196.7C573.4,196.7 573.4,197.61 572.81,198.13C572.81,198.13 572.23,198.66 571.23,198.66C571.23,198.66 570.76,198.66 570.29,198.55C570.29,198.55 569.83,198.45 569.34,198.23L569.34,202.57Z" style="fill-rule:nonzero;"/>
        </g>
    </g>
    <g>
        <g transform="matrix(1,0,0,-1,0,400)">
            <path d="M579.37,201.8C579.37,201.8 578.47,201.8 578.01,200.91C578.01,200.91 577.56,200.02 577.56,198.24C577.56,198.24 577.56,196.47 578.01,195.57C578.01,195.57 578.47,194.69 579.37,194.69C579.37,194.69 580.28,194.69 580.73,195.57C580.73,195.57 581.19,196.47 581.19,198.24C581.19,198.24 581.19,200.02 580.73,200.91C580.73,200.91 580.28,201.8 579.37,201.8M579.37,202.73C579.37,202.73 580.82,202.73 581.59,201.58C581.59,201.58 582.36,200.43 582.36,198.24C582.36,198.24 582.36,196.06 581.59,194.91C581.59,194.91 580.82,193.76 579.37,193.76C579.37,193.76 577.92,193.76 577.15,194.91C577.15,194.91 576.38,196.06 576.38,198.24C576.38,198.24 576.38,200.43 577.15,201.58C577.15,201.58 577.92,202.73 579.37,202.73Z" style="fill-rule:nonzero;"/>
        </g>
    </g>
    <g>
        <g transform="matrix(1,0,0,-1,0,400)">
            <path d="M493.16,185.29L528.16,185.29" style="fill:none;fill-rule:nonzero;stroke:rgb(172,142,24);stroke-width:3px;"/>
        </g>
    </g>
    <g>
        <g transform="matrix(1,0,0,-1,0,400)">
            <path d="M510.66,185.29L510.66,190.69" style="fill:none;fill-rule:nonzero;stroke:rgb(172,142,24);stroke-width:2.4px;"/>
        </g>
        <g transform="matrix(1,0,0,-1,0,400)">
            <path d="M510.66,185.29L505.26,185.29" style="fill:none;fill-rule:nonzero;stroke:rgb(172,142,24);stroke-width:2.4px;"/>
        </g>
        <g transform="matrix(1,0,0,-1,0,400)">
            <path d="M510.66,185.29L510.66,179.89" style="fill:none;fill-rule:nonzero;stroke:rgb(172,142,24);stroke-width:2.4px;"/>
        </g>
        <g transform="matrix(1,0,0,-1,0,400)">
            <path d="M510.66,185.29L516.06,185.29" style="fill:none;fill-rule:nonzero;stroke:rgb(172,142,24);stroke-width:2.4px;"/>
        </g>
    </g>
    <g>
        <g transform="matrix(1,0,0,-1,0,400)">
            <path d="M533.99,189.61L535.74,189.61L537.94,183.73L540.16,189.61L541.9,189.61L541.9,180.97L540.76,180.97L540.76,188.56L538.53,182.63L537.36,182.63L535.13,188.56L535.13,180.97L533.99,180.97L533.99,189.61Z" style="fill-rule:nonzero;"/>
        </g>
    </g>
    <g>
        <g transform="matrix(1,0,0,-1,0,400)">
            <path d="M548.08,186.35L555.5,186.35L555.5,185.38L548.08,185.38L548.08,186.35M548.08,183.99L555.5,183.99L555.5,183.01L548.08,183.01L548.08,183.99Z" style="fill-rule:nonzero;"/>
        </g>
    </g>
    <g>
        <g transform="matrix(1,0,0,-1,0,400)">
            <path d="M562.8,181.95L566.88,181.95L566.88,180.97L561.39,180.97L561.39,181.95C561.39,181.95 562.05,182.64 563.2,183.8C563.2,183.8 564.35,184.96 564.65,185.3C564.65,185.3 565.21,185.93 565.43,186.36C565.43,186.36 565.65,186.8 565.65,187.23C565.65,187.23 565.65,187.92 565.17,188.35C565.17,188.35 564.69,188.78 563.91,188.78C563.91,188.78 563.36,188.78 562.75,188.59C562.75,188.59 562.14,188.4 561.45,188.01L561.45,189.19C561.45,189.19 562.15,189.48 562.77,189.62C562.77,189.62 563.38,189.77 563.89,189.77C563.89,189.77 565.23,189.77 566.03,189.1C566.03,189.1 566.83,188.42 566.83,187.3C566.83,187.3 566.83,186.77 566.63,186.29C566.63,186.29 566.43,185.81 565.9,185.17C565.9,185.17 565.76,185 564.98,184.19C564.98,184.19 564.21,183.4 562.8,181.95Z" style="fill-rule:nonzero;"/>
        </g>
    </g>
    <g>
        <g transform="matrix(1,0,0,-1,0,400)">
            <path d="M571.83,188.84C571.83,188.84 570.93,188.84 570.47,187.95C570.47,187.95 570.02,187.06 570.02,185.28C570.02,185.28 570.02,183.51 570.47,182.61C570.47,182.61 570.93,181.73 571.83,181.73C571.83,181.73 572.74,181.73 573.19,182.61C573.19,182.61 573.65,183.51 573.65,185.28C573.65,185.28 573.65,187.06 573.19,187.95C573.19,187.95 572.74,188.84 571.83,188.84M571.83,189.77C571.83,189.77 573.28,189.77 574.05,188.62C574.05,188.62 574.82,187.47 574.82,185.28C574.82,185.28 574.82,183.1 574.05,181.95C574.05,181.95 573.28,180.8 571.83,180.8C571.83,180.8 570.38,180.8 569.61,181.95C569.61,181.95 568.84,183.1 568.84,185.28C568.84,185.28 568.84,187.47 569.61,188.62C569.61,188.62 570.38,189.77 571.83,189.77Z" style="fill-rule:nonzero;"/>
        </g>
    </g>
    <g>
        <g transform="matrix(1,0,0,-1,0,400)">
            <path d="M579.37,188.84C579.37,188.84 578.47,188.84 578.01,187.95C578.01,187.95 577.56,187.06 577.56,185.28C577.56,185.28 577.56,183.51 578.01,182.61C578.01,182.61 578.47,181.73 579.37,181.73C579.37,181.73 580.28,181.73 580.73,182.61C580.73,182.61 581.19,183.51 581.19,185.28C581.19,185.28 581.19,187.06 580.73,187.95C580.73,187.95 580.28,188.84 579.37,188.84M579.37,189.77C579.37,189.77 580.82,189.77 581.59,188.62C581.59,188.62 582.36,187.47 582.36,185.28C582.36,185.28 582.36,183.1 581.59,181.95C581.59,181.95 580.82,180.8 579.37,180.8C579.37,180.8 577.92,180.8 577.15,181.95C577.15,181.95 576.38,183.1 576.38,185.28C576.38,185.28 576.38,187.47 577.15,188.62C577.15,188.62 577.92,189.77 579.37,189.77Z" style="fill-rule:nonzero;"/>
        </g>
    </g>
</svg>
